<svg width="640" height="1202" viewBox="0 0 640 1202" fill="none" xmlns="http://www.w3.org/2000/svg">
<g id="Group 34">
<g id="Group 33">
<path id="Ellipse 190" d="M147.751 949.334C164.769 949.334 178.565 963.13 178.565 980.148C178.565 997.166 164.769 1010.96 147.751 1010.96C130.733 1010.96 116.937 997.166 116.937 980.148C116.937 963.13 130.733 949.334 147.751 949.334Z" fill="#C4C4C4" fill-opacity="0.2"/>
<path id="Ellipse 191" d="M147.751 880.456C164.769 880.456 178.565 894.252 178.565 911.27C178.565 928.288 164.769 942.084 147.751 942.084C130.733 942.084 116.937 928.288 116.937 911.27C116.937 894.252 130.733 880.456 147.751 880.456Z" fill="#C4C4C4" fill-opacity="0.2"/>
<path id="Ellipse 192" d="M147.751 811.578C164.769 811.578 178.565 825.374 178.565 842.392C178.565 859.41 164.769 873.206 147.751 873.206C130.733 873.206 116.937 859.41 116.937 842.392C116.937 825.374 130.733 811.578 147.751 811.578Z" fill="#C4C4C4" fill-opacity="0.2"/>
<path id="Ellipse 193" d="M147.751 673.822C164.769 673.822 178.565 687.618 178.565 704.636C178.565 721.654 164.769 735.45 147.751 735.45C130.733 735.45 116.937 721.654 116.937 704.636C116.937 687.618 130.733 673.822 147.751 673.822Z" fill="#C4C4C4" fill-opacity="0.2"/>
<path id="Ellipse 194" d="M147.751 604.944C164.769 604.944 178.565 618.739 178.565 635.757C178.565 652.775 164.769 666.571 147.751 666.571C130.733 666.571 116.937 652.775 116.937 635.757C116.937 618.739 130.733 604.944 147.751 604.944Z" fill="#C4C4C4" fill-opacity="0.2"/>
<path id="Ellipse 195" d="M147.751 536.065C164.769 536.065 178.565 549.861 178.565 566.879C178.565 583.897 164.769 597.693 147.751 597.693C130.733 597.693 116.937 583.897 116.937 566.879C116.937 549.861 130.733 536.065 147.751 536.065Z" fill="#C4C4C4" fill-opacity="0.2"/>
<path id="Ellipse 196" d="M147.751 398.309C164.769 398.309 178.565 412.105 178.565 429.123C178.565 446.141 164.769 459.937 147.751 459.937C130.733 459.937 116.937 446.141 116.937 429.123C116.937 412.105 130.733 398.309 147.751 398.309Z" fill="#C4C4C4" fill-opacity="0.2"/>
<path id="Ellipse 197" d="M147.751 329.431C164.769 329.431 178.565 343.227 178.565 360.245C178.565 377.263 164.769 391.059 147.751 391.059C130.733 391.059 116.937 377.263 116.937 360.245C116.937 343.227 130.733 329.431 147.751 329.431Z" fill="#C4C4C4" fill-opacity="0.2"/>
<path id="Ellipse 198" d="M147.751 260.553C164.769 260.553 178.565 274.349 178.565 291.367C178.565 308.385 164.769 322.181 147.751 322.181C130.733 322.181 116.937 308.385 116.937 291.367C116.937 274.349 130.733 260.553 147.751 260.553Z" fill="#C4C4C4" fill-opacity="0.2"/>
<path id="Ellipse 153" d="M147.751 122.797C164.769 122.797 178.565 136.593 178.565 153.611C178.565 170.629 164.769 184.425 147.751 184.425C130.733 184.425 116.937 170.629 116.937 153.611C116.937 136.593 130.733 122.797 147.751 122.797Z" fill="#C4C4C4" fill-opacity="0.2"/>
<path id="Ellipse 155" d="M216.629 949.334C233.647 949.334 247.443 963.13 247.443 980.148C247.443 997.166 233.647 1010.96 216.629 1010.96C199.611 1010.96 185.815 997.166 185.815 980.148C185.815 963.13 199.611 949.334 216.629 949.334Z" fill="#C4C4C4" fill-opacity="0.2"/>
<path id="Ellipse 156" d="M216.629 811.578C233.647 811.578 247.443 825.374 247.443 842.392C247.443 859.41 233.647 873.206 216.629 873.206C199.611 873.206 185.815 859.41 185.815 842.392C185.815 825.374 199.611 811.578 216.629 811.578Z" fill="#C4C4C4" fill-opacity="0.2"/>
<path id="Ellipse 157" d="M216.629 673.822C233.647 673.822 247.443 687.618 247.443 704.636C247.443 721.654 233.647 735.45 216.629 735.45C199.611 735.45 185.815 721.654 185.815 704.636C185.815 687.618 199.611 673.822 216.629 673.822Z" fill="#C4C4C4" fill-opacity="0.2"/>
<path id="Ellipse 158" d="M216.629 536.065C233.647 536.065 247.443 549.861 247.443 566.879C247.443 583.897 233.647 597.693 216.629 597.693C199.611 597.693 185.815 583.897 185.815 566.879C185.815 549.861 199.611 536.065 216.629 536.065Z" fill="#C4C4C4" fill-opacity="0.2"/>
<path id="Ellipse 159" d="M216.629 398.309C233.647 398.309 247.443 412.105 247.443 429.123C247.443 446.141 233.647 459.937 216.629 459.937C199.611 459.937 185.815 446.141 185.815 429.123C185.815 412.105 199.611 398.309 216.629 398.309Z" fill="#C4C4C4" fill-opacity="0.2"/>
<path id="Ellipse 160" d="M216.629 122.797C233.647 122.797 247.443 136.593 247.443 153.611C247.443 170.629 233.647 184.425 216.629 184.425C199.611 184.425 185.815 170.629 185.815 153.611C185.815 136.593 199.611 122.797 216.629 122.797Z" fill="#C4C4C4" fill-opacity="0.2"/>
<path id="Ellipse 162" d="M285.507 949.334C302.525 949.334 316.321 963.13 316.321 980.148C316.321 997.166 302.525 1010.96 285.507 1010.96C268.489 1010.96 254.693 997.166 254.693 980.148C254.693 963.13 268.489 949.334 285.507 949.334Z" fill="#C4C4C4" fill-opacity="0.2"/>
<path id="Ellipse 163" d="M285.507 811.578C302.525 811.578 316.321 825.374 316.321 842.392C316.321 859.41 302.525 873.206 285.507 873.206C268.489 873.206 254.693 859.41 254.693 842.392C254.693 825.374 268.489 811.578 285.507 811.578Z" fill="#C4C4C4" fill-opacity="0.2"/>
<path id="Ellipse 164" d="M285.507 673.822C302.525 673.822 316.321 687.618 316.321 704.636C316.321 721.654 302.525 735.45 285.507 735.45C268.489 735.45 254.693 721.654 254.693 704.636C254.693 687.618 268.489 673.822 285.507 673.822Z" fill="#C4C4C4" fill-opacity="0.2"/>
<path id="Ellipse 165" d="M285.507 604.944C302.525 604.944 316.321 618.739 316.321 635.757C316.321 652.775 302.525 666.571 285.507 666.571C268.489 666.571 254.693 652.775 254.693 635.757C254.693 618.739 268.489 604.944 285.507 604.944Z" fill="#C4C4C4" fill-opacity="0.2"/>
<path id="Ellipse 166" d="M285.507 536.065C302.525 536.065 316.321 549.861 316.321 566.879C316.321 583.897 302.525 597.693 285.507 597.693C268.489 597.693 254.693 583.897 254.693 566.879C254.693 549.861 268.489 536.065 285.507 536.065Z" fill="#C4C4C4" fill-opacity="0.2"/>
<path id="Ellipse 167" d="M285.507 398.309C302.525 398.309 316.321 412.105 316.321 429.123C316.321 446.141 302.525 459.937 285.507 459.937C268.489 459.937 254.693 446.141 254.693 429.123C254.693 412.105 268.489 398.309 285.507 398.309Z" fill="#C4C4C4" fill-opacity="0.2"/>
<path id="Ellipse 168" d="M285.507 329.431C302.525 329.431 316.321 343.227 316.321 360.245C316.321 377.263 302.525 391.059 285.507 391.059C268.489 391.059 254.693 377.263 254.693 360.245C254.693 343.227 268.489 329.431 285.507 329.431Z" fill="#C4C4C4" fill-opacity="0.2"/>
<path id="Ellipse 169" d="M285.507 260.553C302.525 260.553 316.321 274.349 316.321 291.367C316.321 308.385 302.525 322.181 285.507 322.181C268.489 322.181 254.693 308.385 254.693 291.367C254.693 274.349 268.489 260.553 285.507 260.553Z" fill="#C4C4C4" fill-opacity="0.2"/>
<path id="Ellipse 170" d="M285.507 122.797C302.525 122.797 316.321 136.593 316.321 153.611C316.321 170.629 302.525 184.425 285.507 184.425C268.489 184.425 254.693 170.629 254.693 153.611C254.693 136.593 268.489 122.797 285.507 122.797Z" fill="#C4C4C4" fill-opacity="0.2"/>
<path id="Ellipse 171" d="M285.507 53.9196C302.525 53.9196 316.321 67.7155 316.321 84.7335C316.321 101.752 302.525 115.547 285.507 115.547C268.489 115.547 254.693 101.752 254.693 84.7335C254.693 67.7155 268.489 53.9196 285.507 53.9196Z" fill="#C4C4C4" fill-opacity="0.2"/>
<path id="Ellipse 173" d="M354.385 949.334C371.403 949.334 385.199 963.13 385.199 980.148C385.199 997.166 371.403 1010.96 354.385 1010.96C337.367 1010.96 323.571 997.166 323.571 980.148C323.571 963.13 337.367 949.334 354.385 949.334Z" fill="#C4C4C4" fill-opacity="0.2"/>
<path id="Ellipse 174" d="M354.385 811.578C371.403 811.578 385.199 825.374 385.199 842.392C385.199 859.41 371.403 873.206 354.385 873.206C337.367 873.206 323.571 859.41 323.571 842.392C323.571 825.374 337.367 811.578 354.385 811.578Z" fill="#C4C4C4" fill-opacity="0.2"/>
<path id="Ellipse 175" d="M354.385 673.822C371.403 673.822 385.199 687.618 385.199 704.636C385.199 721.654 371.403 735.45 354.385 735.45C337.367 735.45 323.571 721.654 323.571 704.636C323.571 687.618 337.367 673.822 354.385 673.822Z" fill="#C4C4C4" fill-opacity="0.2"/>
<path id="Ellipse 176" d="M354.385 536.065C371.403 536.065 385.199 549.861 385.199 566.879C385.199 583.897 371.403 597.693 354.385 597.693C337.367 597.693 323.571 583.897 323.571 566.879C323.571 549.861 337.367 536.065 354.385 536.065Z" fill="#C4C4C4" fill-opacity="0.2"/>
<path id="Ellipse 177" d="M354.385 260.553C371.403 260.553 385.199 274.349 385.199 291.367C385.199 308.385 371.403 322.181 354.385 322.181C337.367 322.181 323.571 308.385 323.571 291.367C323.571 274.349 337.367 260.553 354.385 260.553Z" fill="#C4C4C4" fill-opacity="0.2"/>
<path id="Ellipse 178" d="M354.385 122.797C371.403 122.797 385.199 136.593 385.199 153.611C385.199 170.629 371.403 184.425 354.385 184.425C337.367 184.425 323.571 170.629 323.571 153.611C323.571 136.593 337.367 122.797 354.385 122.797Z" fill="#C4C4C4" fill-opacity="0.2"/>
<path id="Ellipse 180" d="M423.263 949.334C440.281 949.334 454.077 963.13 454.077 980.148C454.077 997.166 440.281 1010.96 423.263 1010.96C406.245 1010.96 392.449 997.166 392.449 980.148C392.449 963.13 406.245 949.334 423.263 949.334Z" fill="#C4C4C4" fill-opacity="0.2"/>
<path id="Ellipse 181" d="M423.263 880.456C440.281 880.456 454.077 894.252 454.077 911.27C454.077 928.288 440.281 942.084 423.263 942.084C406.245 942.084 392.449 928.288 392.449 911.27C392.449 894.252 406.245 880.456 423.263 880.456Z" fill="#C4C4C4" fill-opacity="0.2"/>
<path id="Ellipse 182" d="M423.263 811.578C440.281 811.578 454.077 825.374 454.077 842.392C454.077 859.41 440.281 873.206 423.263 873.206C406.245 873.206 392.449 859.41 392.449 842.392C392.449 825.374 406.245 811.578 423.263 811.578Z" fill="#C4C4C4" fill-opacity="0.2"/>
<path id="Ellipse 183" d="M423.263 673.822C440.281 673.822 454.077 687.618 454.077 704.636C454.077 721.654 440.281 735.45 423.263 735.45C406.245 735.45 392.449 721.654 392.449 704.636C392.449 687.618 406.245 673.822 423.263 673.822Z" fill="#C4C4C4" fill-opacity="0.2"/>
<path id="Ellipse 184" d="M423.263 536.065C440.281 536.065 454.077 549.861 454.077 566.879C454.077 583.897 440.281 597.693 423.263 597.693C406.245 597.693 392.449 583.897 392.449 566.879C392.449 549.861 406.245 536.065 423.263 536.065Z" fill="#C4C4C4" fill-opacity="0.2"/>
<path id="Ellipse 185" d="M423.263 398.309C440.281 398.309 454.077 412.105 454.077 429.123C454.077 446.141 440.281 459.937 423.263 459.937C406.245 459.937 392.449 446.141 392.449 429.123C392.449 412.105 406.245 398.309 423.263 398.309Z" fill="#C4C4C4" fill-opacity="0.2"/>
<path id="Ellipse 186" d="M423.263 329.431C440.281 329.431 454.077 343.227 454.077 360.245C454.077 377.263 440.281 391.059 423.263 391.059C406.245 391.059 392.449 377.263 392.449 360.245C392.449 343.227 406.245 329.431 423.263 329.431Z" fill="#C4C4C4" fill-opacity="0.2"/>
<path id="Ellipse 187" d="M423.263 260.553C440.281 260.553 454.077 274.349 454.077 291.367C454.077 308.385 440.281 322.181 423.263 322.181C406.245 322.181 392.449 308.385 392.449 291.367C392.449 274.349 406.245 260.553 423.263 260.553Z" fill="#C4C4C4" fill-opacity="0.2"/>
<path id="Ellipse 188" d="M423.263 122.797C440.281 122.797 454.077 136.593 454.077 153.611C454.077 170.629 440.281 184.425 423.263 184.425C406.245 184.425 392.449 170.629 392.449 153.611C392.449 136.593 406.245 122.797 423.263 122.797Z" fill="#C4C4C4" fill-opacity="0.2"/>
<path id="Ellipse 1" d="M147.751 1087.09C164.769 1087.09 178.565 1100.89 178.565 1117.9C178.565 1134.92 164.769 1148.72 147.751 1148.72C130.733 1148.72 116.937 1134.92 116.937 1117.9C116.937 1100.89 130.733 1087.09 147.751 1087.09Z" fill="#C4C4C4" fill-opacity="0.2"/>
<path id="Ellipse 25" d="M78.8727 1087.09C95.8908 1087.09 109.687 1100.89 109.687 1117.9C109.687 1134.92 95.8908 1148.72 78.8727 1148.72C61.8547 1148.72 48.0588 1134.92 48.0588 1117.9C48.0588 1100.89 61.8547 1087.09 78.8727 1087.09Z" fill="#C4C4C4" fill-opacity="0.2"/>
<path id="Ellipse 26" d="M78.8725 1018.21C95.8905 1018.21 109.686 1032.01 109.686 1049.03C109.686 1066.04 95.8905 1079.84 78.8725 1079.84C61.8544 1079.84 48.0586 1066.04 48.0586 1049.03C48.0586 1032.01 61.8544 1018.21 78.8725 1018.21Z" fill="#C4C4C4" fill-opacity="0.2"/>
<path id="Ellipse 49" d="M147.751 1018.21C164.769 1018.21 178.565 1032.01 178.565 1049.03C178.565 1066.04 164.769 1079.84 147.751 1079.84C130.733 1079.84 116.937 1066.04 116.937 1049.03C116.937 1032.01 130.733 1018.21 147.751 1018.21Z" fill="#C4C4C4" fill-opacity="0.2"/>
<path id="Ellipse 73" d="M147.751 742.7C164.769 742.7 178.565 756.496 178.565 773.514C178.565 790.532 164.769 804.328 147.751 804.328C130.733 804.328 116.937 790.532 116.937 773.514C116.937 756.496 130.733 742.7 147.751 742.7Z" fill="#C4C4C4" fill-opacity="0.2"/>
<path id="Ellipse 97" d="M147.751 467.187C164.769 467.187 178.565 480.983 178.565 498.001C178.565 515.019 164.769 528.815 147.751 528.815C130.733 528.815 116.937 515.019 116.937 498.001C116.937 480.983 130.733 467.187 147.751 467.187Z" fill="#C4C4C4" fill-opacity="0.2"/>
<path id="Ellipse 121" d="M147.751 191.675C164.769 191.675 178.565 205.471 178.565 222.489C178.565 239.507 164.769 253.303 147.751 253.303C130.733 253.303 116.937 239.507 116.937 222.489C116.937 205.471 130.733 191.675 147.751 191.675Z" fill="#C4C4C4" fill-opacity="0.2"/>
<path id="Ellipse 133" d="M147.751 53.9196C164.769 53.9196 178.565 67.7155 178.565 84.7335C178.565 101.752 164.769 115.547 147.751 115.547C130.733 115.547 116.937 101.752 116.937 84.7335C116.937 67.7155 130.733 53.9196 147.751 53.9196Z" fill="#C4C4C4" fill-opacity="0.2"/>
<path id="Ellipse 50" d="M216.629 1018.21C233.647 1018.21 247.443 1032.01 247.443 1049.03C247.443 1066.04 233.647 1079.84 216.629 1079.84C199.611 1079.84 185.815 1066.04 185.815 1049.03C185.815 1032.01 199.611 1018.21 216.629 1018.21Z" fill="#C4C4C4" fill-opacity="0.2"/>
<path id="Ellipse 62" d="M216.629 880.456C233.647 880.456 247.443 894.252 247.443 911.27C247.443 928.288 233.647 942.084 216.629 942.084C199.611 942.084 185.815 928.288 185.815 911.27C185.815 894.252 199.611 880.456 216.629 880.456Z" fill="#C4C4C4" fill-opacity="0.2"/>
<path id="Ellipse 74" d="M216.629 742.7C233.647 742.7 247.443 756.496 247.443 773.514C247.443 790.532 233.647 804.328 216.629 804.328C199.611 804.328 185.815 790.532 185.815 773.514C185.815 756.496 199.611 742.7 216.629 742.7Z" fill="#C4C4C4" fill-opacity="0.2"/>
<path id="Ellipse 86" d="M216.629 604.944C233.647 604.944 247.443 618.739 247.443 635.757C247.443 652.775 233.647 666.571 216.629 666.571C199.611 666.571 185.815 652.775 185.815 635.757C185.815 618.739 199.611 604.944 216.629 604.944Z" fill="#C4C4C4" fill-opacity="0.2"/>
<path id="Ellipse 98" d="M216.629 467.187C233.647 467.187 247.443 480.983 247.443 498.001C247.443 515.019 233.647 528.815 216.629 528.815C199.611 528.815 185.815 515.019 185.815 498.001C185.815 480.983 199.611 467.187 216.629 467.187Z" fill="#C4C4C4" fill-opacity="0.2"/>
<path id="Ellipse 110" d="M216.629 329.431C233.647 329.431 247.443 343.227 247.443 360.245C247.443 377.263 233.647 391.059 216.629 391.059C199.611 391.059 185.815 377.263 185.815 360.245C185.815 343.227 199.611 329.431 216.629 329.431Z" fill="#C4C4C4" fill-opacity="0.2"/>
<path id="Ellipse 116" d="M216.629 260.553C233.647 260.553 247.443 274.349 247.443 291.367C247.443 308.385 233.647 322.181 216.629 322.181C199.611 322.181 185.815 308.385 185.815 291.367C185.815 274.349 199.611 260.553 216.629 260.553Z" fill="#C4C4C4" fill-opacity="0.2"/>
<path id="Ellipse 122" d="M216.629 191.675C233.647 191.675 247.443 205.471 247.443 222.489C247.443 239.507 233.647 253.303 216.629 253.303C199.611 253.303 185.815 239.507 185.815 222.489C185.815 205.471 199.611 191.675 216.629 191.675Z" fill="#C4C4C4" fill-opacity="0.2"/>
<path id="Ellipse 134" d="M216.629 53.9196C233.647 53.9196 247.443 67.7155 247.443 84.7335C247.443 101.752 233.647 115.547 216.629 115.547C199.611 115.547 185.815 101.752 185.815 84.7335C185.815 67.7155 199.611 53.9196 216.629 53.9196Z" fill="#C4C4C4" fill-opacity="0.2"/>
<path id="Ellipse 51" d="M285.507 1018.21C302.525 1018.21 316.321 1032.01 316.321 1049.03C316.321 1066.04 302.525 1079.84 285.507 1079.84C268.489 1079.84 254.693 1066.04 254.693 1049.03C254.693 1032.01 268.489 1018.21 285.507 1018.21Z" fill="#C4C4C4" fill-opacity="0.2"/>
<path id="Ellipse 63" d="M285.507 880.456C302.525 880.456 316.321 894.252 316.321 911.27C316.321 928.288 302.525 942.084 285.507 942.084C268.489 942.084 254.693 928.288 254.693 911.27C254.693 894.252 268.489 880.456 285.507 880.456Z" fill="#C4C4C4" fill-opacity="0.2"/>
<path id="Ellipse 75" d="M285.507 742.7C302.525 742.7 316.321 756.496 316.321 773.514C316.321 790.532 302.525 804.328 285.507 804.328C268.489 804.328 254.693 790.532 254.693 773.514C254.693 756.496 268.489 742.7 285.507 742.7Z" fill="#C4C4C4" fill-opacity="0.2"/>
<path id="Ellipse 99" d="M285.507 467.187C302.525 467.187 316.321 480.983 316.321 498.001C316.321 515.019 302.525 528.815 285.507 528.815C268.489 528.815 254.693 515.019 254.693 498.001C254.693 480.983 268.489 467.187 285.507 467.187Z" fill="#C4C4C4" fill-opacity="0.2"/>
<path id="Ellipse 123" d="M285.507 191.675C302.525 191.675 316.321 205.471 316.321 222.489C316.321 239.507 302.525 253.303 285.507 253.303C268.489 253.303 254.693 239.507 254.693 222.489C254.693 205.471 268.489 191.675 285.507 191.675Z" fill="#C4C4C4" fill-opacity="0.2"/>
<path id="Ellipse 52" d="M354.385 1018.21C371.403 1018.21 385.199 1032.01 385.199 1049.03C385.199 1066.04 371.403 1079.84 354.385 1079.84C337.367 1079.84 323.571 1066.04 323.571 1049.03C323.571 1032.01 337.367 1018.21 354.385 1018.21Z" fill="#C4C4C4" fill-opacity="0.2"/>
<path id="Ellipse 64" d="M354.385 880.456C371.403 880.456 385.199 894.252 385.199 911.27C385.199 928.288 371.403 942.084 354.385 942.084C337.367 942.084 323.571 928.288 323.571 911.27C323.571 894.252 337.367 880.456 354.385 880.456Z" fill="#C4C4C4" fill-opacity="0.2"/>
<path id="Ellipse 76" d="M354.385 742.7C371.403 742.7 385.199 756.496 385.199 773.514C385.199 790.532 371.403 804.328 354.385 804.328C337.367 804.328 323.571 790.532 323.571 773.514C323.571 756.496 337.367 742.7 354.385 742.7Z" fill="#C4C4C4" fill-opacity="0.2"/>
<path id="Ellipse 88" d="M354.385 604.944C371.403 604.944 385.199 618.74 385.199 635.758C385.199 652.776 371.403 666.572 354.385 666.572C337.367 666.572 323.571 652.776 323.571 635.758C323.571 618.74 337.367 604.944 354.385 604.944Z" fill="#C4C4C4" fill-opacity="0.2"/>
<path id="Ellipse 100" d="M354.385 467.187C371.403 467.187 385.199 480.983 385.199 498.001C385.199 515.019 371.403 528.815 354.385 528.815C337.367 528.815 323.571 515.019 323.571 498.001C323.571 480.983 337.367 467.187 354.385 467.187Z" fill="#C4C4C4" fill-opacity="0.2"/>
<path id="Ellipse 106" d="M354.385 398.309C371.403 398.309 385.199 412.105 385.199 429.123C385.199 446.141 371.403 459.937 354.385 459.937C337.367 459.937 323.571 446.141 323.571 429.123C323.571 412.105 337.367 398.309 354.385 398.309Z" fill="#C4C4C4" fill-opacity="0.2"/>
<path id="Ellipse 112" d="M354.385 329.431C371.403 329.431 385.199 343.227 385.199 360.245C385.199 377.263 371.403 391.059 354.385 391.059C337.367 391.059 323.571 377.263 323.571 360.245C323.571 343.227 337.367 329.431 354.385 329.431Z" fill="#C4C4C4" fill-opacity="0.2"/>
<path id="Ellipse 124" d="M354.385 191.675C371.403 191.675 385.199 205.471 385.199 222.489C385.199 239.507 371.403 253.303 354.385 253.303C337.367 253.303 323.571 239.507 323.571 222.489C323.571 205.471 337.367 191.675 354.385 191.675Z" fill="#C4C4C4" fill-opacity="0.2"/>
<path id="Ellipse 136" d="M354.385 53.9196C371.403 53.9196 385.199 67.7155 385.199 84.7335C385.199 101.752 371.403 115.547 354.385 115.547C337.367 115.547 323.571 101.752 323.571 84.7335C323.571 67.7155 337.367 53.9196 354.385 53.9196Z" fill="#C4C4C4" fill-opacity="0.2"/>
<path id="Ellipse 53" d="M423.263 1018.21C440.281 1018.21 454.077 1032.01 454.077 1049.03C454.077 1066.04 440.281 1079.84 423.263 1079.84C406.245 1079.84 392.449 1066.04 392.449 1049.03C392.449 1032.01 406.245 1018.21 423.263 1018.21Z" fill="#C4C4C4" fill-opacity="0.2"/>
<path id="Ellipse 77" d="M423.263 742.7C440.281 742.7 454.077 756.496 454.077 773.514C454.077 790.532 440.281 804.328 423.263 804.328C406.245 804.328 392.449 790.532 392.449 773.514C392.449 756.496 406.245 742.7 423.263 742.7Z" fill="#C4C4C4" fill-opacity="0.2"/>
<path id="Ellipse 89" d="M423.263 604.944C440.281 604.944 454.077 618.74 454.077 635.758C454.077 652.776 440.281 666.572 423.263 666.572C406.245 666.572 392.449 652.776 392.449 635.758C392.449 618.74 406.245 604.944 423.263 604.944Z" fill="#C4C4C4" fill-opacity="0.2"/>
<path id="Ellipse 101" d="M423.263 467.187C440.281 467.187 454.077 480.983 454.077 498.001C454.077 515.019 440.281 528.815 423.263 528.815C406.245 528.815 392.449 515.019 392.449 498.001C392.449 480.983 406.245 467.187 423.263 467.187Z" fill="#C4C4C4" fill-opacity="0.2"/>
<path id="Ellipse 125" d="M423.263 191.675C440.281 191.675 454.077 205.471 454.077 222.489C454.077 239.507 440.281 253.303 423.263 253.303C406.245 253.303 392.449 239.507 392.449 222.489C392.449 205.471 406.245 191.675 423.263 191.675Z" fill="#C4C4C4" fill-opacity="0.2"/>
<path id="Ellipse 137" d="M423.263 53.9196C440.281 53.9196 454.077 67.7155 454.077 84.7335C454.077 101.752 440.281 115.547 423.263 115.547C406.245 115.547 392.449 101.752 392.449 84.7335C392.449 67.7155 406.245 53.9196 423.263 53.9196Z" fill="#C4C4C4" fill-opacity="0.2"/>
<path id="Ellipse 54" d="M492.141 1018.21C509.159 1018.21 522.955 1032.01 522.955 1049.03C522.955 1066.04 509.159 1079.84 492.141 1079.84C475.123 1079.84 461.327 1066.04 461.327 1049.03C461.327 1032.01 475.123 1018.21 492.141 1018.21Z" fill="#C4C4C4" fill-opacity="0.2"/>
<path id="Ellipse 60" d="M492.141 949.334C509.159 949.334 522.955 963.13 522.955 980.148C522.955 997.166 509.159 1010.96 492.141 1010.96C475.123 1010.96 461.327 997.166 461.327 980.148C461.327 963.13 475.123 949.334 492.141 949.334Z" fill="#C4C4C4" fill-opacity="0.2"/>
<path id="Ellipse 66" d="M492.141 880.456C509.159 880.456 522.955 894.252 522.955 911.27C522.955 928.288 509.159 942.084 492.141 942.084C475.123 942.084 461.327 928.288 461.327 911.27C461.327 894.252 475.123 880.456 492.141 880.456Z" fill="#C4C4C4" fill-opacity="0.2"/>
<path id="Ellipse 72" d="M492.141 811.578C509.159 811.578 522.955 825.374 522.955 842.392C522.955 859.41 509.159 873.206 492.141 873.206C475.123 873.206 461.327 859.41 461.327 842.392C461.327 825.374 475.123 811.578 492.141 811.578Z" fill="#C4C4C4" fill-opacity="0.2"/>
<path id="Ellipse 78" d="M492.141 742.7C509.159 742.7 522.955 756.496 522.955 773.514C522.955 790.532 509.159 804.328 492.141 804.328C475.123 804.328 461.327 790.532 461.327 773.514C461.327 756.496 475.123 742.7 492.141 742.7Z" fill="#C4C4C4" fill-opacity="0.2"/>
<path id="Ellipse 84" d="M492.141 673.822C509.159 673.822 522.955 687.618 522.955 704.636C522.955 721.654 509.159 735.45 492.141 735.45C475.123 735.45 461.327 721.654 461.327 704.636C461.327 687.618 475.123 673.822 492.141 673.822Z" fill="#C4C4C4" fill-opacity="0.2"/>
<path id="Ellipse 90" d="M492.141 604.944C509.159 604.944 522.955 618.74 522.955 635.758C522.955 652.776 509.159 666.572 492.141 666.572C475.123 666.572 461.327 652.776 461.327 635.758C461.327 618.74 475.123 604.944 492.141 604.944Z" fill="#C4C4C4" fill-opacity="0.2"/>
<path id="Ellipse 96" d="M492.141 536.065C509.159 536.065 522.955 549.861 522.955 566.879C522.955 583.897 509.159 597.693 492.141 597.693C475.123 597.693 461.327 583.897 461.327 566.879C461.327 549.861 475.123 536.065 492.141 536.065Z" fill="#C4C4C4" fill-opacity="0.2"/>
<path id="Ellipse 102" d="M492.141 467.187C509.159 467.187 522.955 480.983 522.955 498.001C522.955 515.019 509.159 528.815 492.141 528.815C475.123 528.815 461.327 515.019 461.327 498.001C461.327 480.983 475.123 467.187 492.141 467.187Z" fill="#C4C4C4" fill-opacity="0.2"/>
<path id="Ellipse 108" d="M492.141 398.309C509.159 398.309 522.955 412.105 522.955 429.123C522.955 446.141 509.159 459.937 492.141 459.937C475.123 459.937 461.327 446.141 461.327 429.123C461.327 412.105 475.123 398.309 492.141 398.309Z" fill="#C4C4C4" fill-opacity="0.2"/>
<path id="Ellipse 114" d="M492.141 329.431C509.159 329.431 522.955 343.227 522.955 360.245C522.955 377.263 509.159 391.059 492.141 391.059C475.123 391.059 461.327 377.263 461.327 360.245C461.327 343.227 475.123 329.431 492.141 329.431Z" fill="#C4C4C4" fill-opacity="0.2"/>
<path id="Ellipse 120" d="M492.141 260.553C509.159 260.553 522.955 274.349 522.955 291.367C522.955 308.385 509.159 322.181 492.141 322.181C475.123 322.181 461.327 308.385 461.327 291.367C461.327 274.349 475.123 260.553 492.141 260.553Z" fill="#C4C4C4" fill-opacity="0.2"/>
<path id="Ellipse 126" d="M492.141 191.675C509.159 191.675 522.955 205.471 522.955 222.489C522.955 239.507 509.159 253.303 492.141 253.303C475.123 253.303 461.327 239.507 461.327 222.489C461.327 205.471 475.123 191.675 492.141 191.675Z" fill="#C4C4C4" fill-opacity="0.2"/>
<path id="Ellipse 132" d="M492.141 122.797C509.159 122.797 522.955 136.593 522.955 153.611C522.955 170.629 509.159 184.425 492.141 184.425C475.123 184.425 461.327 170.629 461.327 153.611C461.327 136.593 475.123 122.797 492.141 122.797Z" fill="#C4C4C4" fill-opacity="0.2"/>
<path id="Ellipse 138" d="M492.141 53.9196C509.159 53.9196 522.955 67.7155 522.955 84.7335C522.955 101.752 509.159 115.547 492.141 115.547C475.123 115.547 461.327 101.752 461.327 84.7335C461.327 67.7155 475.123 53.9196 492.141 53.9196Z" fill="#C4C4C4" fill-opacity="0.2"/>
<path id="Ellipse 27" d="M78.8725 949.334C95.8905 949.334 109.686 963.13 109.686 980.148C109.686 997.166 95.8905 1010.96 78.8725 1010.96C61.8544 1010.96 48.0586 997.166 48.0586 980.148C48.0586 963.13 61.8544 949.334 78.8725 949.334Z" fill="#C4C4C4" fill-opacity="0.2"/>
<path id="Ellipse 28" d="M78.8725 880.456C95.8905 880.456 109.686 894.252 109.686 911.27C109.686 928.288 95.8905 942.084 78.8725 942.084C61.8544 942.084 48.0586 928.288 48.0586 911.27C48.0586 894.252 61.8544 880.456 78.8725 880.456Z" fill="#C4C4C4" fill-opacity="0.2"/>
<path id="Ellipse 29" d="M78.8725 811.578C95.8905 811.578 109.686 825.374 109.686 842.392C109.686 859.41 95.8905 873.206 78.8725 873.206C61.8544 873.206 48.0586 859.41 48.0586 842.392C48.0586 825.374 61.8544 811.578 78.8725 811.578Z" fill="#C4C4C4" fill-opacity="0.2"/>
<path id="Ellipse 30" d="M78.8727 742.7C95.8908 742.7 109.687 756.496 109.687 773.514C109.687 790.532 95.8908 804.328 78.8727 804.328C61.8547 804.328 48.0588 790.532 48.0588 773.514C48.0588 756.496 61.8547 742.7 78.8727 742.7Z" fill="#C4C4C4" fill-opacity="0.2"/>
<path id="Ellipse 31" d="M78.8727 673.822C95.8908 673.822 109.687 687.618 109.687 704.636C109.687 721.654 95.8908 735.45 78.8727 735.45C61.8547 735.45 48.0588 721.654 48.0588 704.636C48.0588 687.618 61.8547 673.822 78.8727 673.822Z" fill="#C4C4C4" fill-opacity="0.2"/>
<path id="Ellipse 32" d="M78.8727 604.944C95.8908 604.944 109.687 618.739 109.687 635.757C109.687 652.775 95.8908 666.571 78.8727 666.571C61.8547 666.571 48.0588 652.775 48.0588 635.757C48.0588 618.739 61.8547 604.944 78.8727 604.944Z" fill="#C4C4C4" fill-opacity="0.2"/>
<path id="Ellipse 33" d="M78.8727 536.065C95.8908 536.065 109.687 549.861 109.687 566.879C109.687 583.897 95.8908 597.693 78.8727 597.693C61.8547 597.693 48.0588 583.897 48.0588 566.879C48.0588 549.861 61.8547 536.065 78.8727 536.065Z" fill="#C4C4C4" fill-opacity="0.2"/>
<path id="Ellipse 34" d="M78.8727 467.187C95.8908 467.187 109.687 480.983 109.687 498.001C109.687 515.019 95.8908 528.815 78.8727 528.815C61.8547 528.815 48.0588 515.019 48.0588 498.001C48.0588 480.983 61.8547 467.187 78.8727 467.187Z" fill="#C4C4C4" fill-opacity="0.2"/>
<path id="Ellipse 35" d="M78.8727 398.309C95.8908 398.309 109.687 412.105 109.687 429.123C109.687 446.141 95.8908 459.937 78.8727 459.937C61.8547 459.937 48.0588 446.141 48.0588 429.123C48.0588 412.105 61.8547 398.309 78.8727 398.309Z" fill="#C4C4C4" fill-opacity="0.2"/>
<path id="Ellipse 36" d="M78.8727 329.431C95.8908 329.431 109.687 343.227 109.687 360.245C109.687 377.263 95.8908 391.059 78.8727 391.059C61.8547 391.059 48.0588 377.263 48.0588 360.245C48.0588 343.227 61.8547 329.431 78.8727 329.431Z" fill="#C4C4C4" fill-opacity="0.2"/>
<path id="Ellipse 37" d="M78.8727 260.553C95.8908 260.553 109.687 274.349 109.687 291.367C109.687 308.385 95.8908 322.181 78.8727 322.181C61.8547 322.181 48.0588 308.385 48.0588 291.367C48.0588 274.349 61.8547 260.553 78.8727 260.553Z" fill="#C4C4C4" fill-opacity="0.2"/>
<path id="Ellipse 38" d="M78.8727 191.675C95.8908 191.675 109.687 205.471 109.687 222.489C109.687 239.507 95.8908 253.303 78.8727 253.303C61.8547 253.303 48.0588 239.507 48.0588 222.489C48.0588 205.471 61.8547 191.675 78.8727 191.675Z" fill="#C4C4C4" fill-opacity="0.2"/>
<path id="Ellipse 39" d="M78.8727 122.797C95.8908 122.797 109.687 136.593 109.687 153.611C109.687 170.629 95.8908 184.425 78.8727 184.425C61.8547 184.425 48.0588 170.629 48.0588 153.611C48.0588 136.593 61.8547 122.797 78.8727 122.797Z" fill="#C4C4C4" fill-opacity="0.2"/>
<path id="Ellipse 40" d="M78.8727 53.9196C95.8908 53.9196 109.687 67.7155 109.687 84.7335C109.687 101.752 95.8908 115.547 78.8727 115.547C61.8547 115.547 48.0588 101.752 48.0588 84.7335C48.0588 67.7155 61.8547 53.9196 78.8727 53.9196Z" fill="#C4C4C4" fill-opacity="0.2"/>
<path id="Ellipse 2" d="M216.629 1087.09C233.647 1087.09 247.443 1100.89 247.443 1117.9C247.443 1134.92 233.647 1148.72 216.629 1148.72C199.611 1148.72 185.815 1134.92 185.815 1117.9C185.815 1100.89 199.611 1087.09 216.629 1087.09Z" fill="#C4C4C4" fill-opacity="0.2"/>
<path id="Ellipse 3" d="M285.507 1087.09C302.525 1087.09 316.321 1100.89 316.321 1117.9C316.321 1134.92 302.525 1148.72 285.507 1148.72C268.489 1148.72 254.693 1134.92 254.693 1117.9C254.693 1100.89 268.489 1087.09 285.507 1087.09Z" fill="#C4C4C4" fill-opacity="0.2"/>
<path id="Ellipse 4" d="M354.385 1087.09C371.403 1087.09 385.199 1100.89 385.199 1117.9C385.199 1134.92 371.403 1148.72 354.385 1148.72C337.367 1148.72 323.571 1134.92 323.571 1117.9C323.571 1100.89 337.367 1087.09 354.385 1087.09Z" fill="#C4C4C4" fill-opacity="0.2"/>
<path id="Ellipse 5" d="M423.263 1087.09C440.281 1087.09 454.077 1100.89 454.077 1117.9C454.077 1134.92 440.281 1148.72 423.263 1148.72C406.245 1148.72 392.449 1134.92 392.449 1117.9C392.449 1100.89 406.245 1087.09 423.263 1087.09Z" fill="#C4C4C4" fill-opacity="0.2"/>
<path id="Ellipse 6" d="M492.141 1087.09C509.159 1087.09 522.955 1100.89 522.955 1117.9C522.955 1134.92 509.159 1148.72 492.141 1148.72C475.123 1148.72 461.327 1134.92 461.327 1117.9C461.327 1100.89 475.123 1087.09 492.141 1087.09Z" fill="#C4C4C4" fill-opacity="0.2"/>
<path id="Ellipse 7" d="M561.019 1087.09C578.037 1087.09 591.833 1100.89 591.833 1117.9C591.833 1134.92 578.037 1148.72 561.019 1148.72C544.001 1148.72 530.205 1134.92 530.205 1117.9C530.205 1100.89 544.001 1087.09 561.019 1087.09Z" fill="#C4C4C4" fill-opacity="0.2"/>
<path id="Ellipse 8" d="M561.019 1018.21C578.037 1018.21 591.833 1032.01 591.833 1049.03C591.833 1066.04 578.037 1079.84 561.019 1079.84C544.001 1079.84 530.205 1066.04 530.205 1049.03C530.205 1032.01 544.001 1018.21 561.019 1018.21Z" fill="#C4C4C4" fill-opacity="0.2"/>
<path id="Ellipse 9" d="M561.019 949.334C578.037 949.334 591.833 963.13 591.833 980.148C591.833 997.166 578.037 1010.96 561.019 1010.96C544.001 1010.96 530.205 997.166 530.205 980.148C530.205 963.13 544.001 949.334 561.019 949.334Z" fill="#C4C4C4" fill-opacity="0.2"/>
<path id="Ellipse 10" d="M561.019 880.456C578.037 880.456 591.833 894.252 591.833 911.27C591.833 928.288 578.037 942.084 561.019 942.084C544.001 942.084 530.205 928.288 530.205 911.27C530.205 894.252 544.001 880.456 561.019 880.456Z" fill="#C4C4C4" fill-opacity="0.2"/>
<path id="Ellipse 11" d="M561.019 811.578C578.037 811.578 591.833 825.374 591.833 842.392C591.833 859.41 578.037 873.206 561.019 873.206C544.001 873.206 530.205 859.41 530.205 842.392C530.205 825.374 544.001 811.578 561.019 811.578Z" fill="#C4C4C4" fill-opacity="0.2"/>
<path id="Ellipse 12" d="M561.019 742.7C578.037 742.7 591.833 756.496 591.833 773.514C591.833 790.532 578.037 804.328 561.019 804.328C544.001 804.328 530.205 790.532 530.205 773.514C530.205 756.496 544.001 742.7 561.019 742.7Z" fill="#C4C4C4" fill-opacity="0.2"/>
<path id="Ellipse 13" d="M561.019 673.822C578.037 673.822 591.833 687.618 591.833 704.636C591.833 721.654 578.037 735.45 561.019 735.45C544.001 735.45 530.205 721.654 530.205 704.636C530.205 687.618 544.001 673.822 561.019 673.822Z" fill="#C4C4C4" fill-opacity="0.2"/>
<path id="Ellipse 14" d="M561.019 604.944C578.037 604.944 591.833 618.74 591.833 635.758C591.833 652.776 578.037 666.572 561.019 666.572C544.001 666.572 530.205 652.776 530.205 635.758C530.205 618.74 544.001 604.944 561.019 604.944Z" fill="#C4C4C4" fill-opacity="0.2"/>
<path id="Ellipse 15" d="M561.019 536.065C578.037 536.065 591.833 549.861 591.833 566.879C591.833 583.897 578.037 597.693 561.019 597.693C544.001 597.693 530.205 583.897 530.205 566.879C530.205 549.861 544.001 536.065 561.019 536.065Z" fill="#C4C4C4" fill-opacity="0.2"/>
<path id="Ellipse 16" d="M561.019 467.187C578.037 467.187 591.833 480.983 591.833 498.001C591.833 515.019 578.037 528.815 561.019 528.815C544.001 528.815 530.205 515.019 530.205 498.001C530.205 480.983 544.001 467.187 561.019 467.187Z" fill="#C4C4C4" fill-opacity="0.2"/>
<path id="Ellipse 17" d="M561.019 398.309C578.037 398.309 591.833 412.105 591.833 429.123C591.833 446.141 578.037 459.937 561.019 459.937C544.001 459.937 530.205 446.141 530.205 429.123C530.205 412.105 544.001 398.309 561.019 398.309Z" fill="#C4C4C4" fill-opacity="0.2"/>
<path id="Ellipse 18" d="M561.019 329.431C578.037 329.431 591.833 343.227 591.833 360.245C591.833 377.263 578.037 391.059 561.019 391.059C544.001 391.059 530.205 377.263 530.205 360.245C530.205 343.227 544.001 329.431 561.019 329.431Z" fill="#C4C4C4" fill-opacity="0.2"/>
<path id="Ellipse 19" d="M561.019 260.553C578.037 260.553 591.833 274.349 591.833 291.367C591.833 308.385 578.037 322.181 561.019 322.181C544.001 322.181 530.205 308.385 530.205 291.367C530.205 274.349 544.001 260.553 561.019 260.553Z" fill="#C4C4C4" fill-opacity="0.2"/>
<path id="Ellipse 20" d="M561.019 191.675C578.037 191.675 591.833 205.471 591.833 222.489C591.833 239.507 578.037 253.303 561.019 253.303C544.001 253.303 530.205 239.507 530.205 222.489C530.205 205.471 544.001 191.675 561.019 191.675Z" fill="#C4C4C4" fill-opacity="0.2"/>
<path id="Ellipse 21" d="M561.019 122.797C578.037 122.797 591.833 136.593 591.833 153.611C591.833 170.629 578.037 184.425 561.019 184.425C544.001 184.425 530.205 170.629 530.205 153.611C530.205 136.593 544.001 122.797 561.019 122.797Z" fill="#C4C4C4" fill-opacity="0.2"/>
<path id="Ellipse 22" d="M561.019 53.9196C578.037 53.9196 591.833 67.7155 591.833 84.7335C591.833 101.752 578.037 115.547 561.019 115.547C544.001 115.547 530.205 101.752 530.205 84.7335C530.205 67.7155 544.001 53.9196 561.019 53.9196Z" fill="#C4C4C4" fill-opacity="0.2"/>
</g>
<path id="Subtract" fill-rule="evenodd" clip-rule="evenodd" d="M628 1201.47C634.627 1201.47 640 1196.09 640 1189.47L640 12.0001C640 5.37264 634.628 5.28375e-05 628 5.22751e-05L12.0001 0C5.37269 -5.62417e-07 0.00010664 5.37262 0.000106043 12L0 1189.47C-5.96869e-07 1196.09 5.37259 1201.47 12 1201.47H628ZM55.9349 47.0045C49.3075 47.0045 43.9349 52.377 43.9349 59.0044V1143.61C43.9349 1150.24 49.3075 1155.61 55.9349 1155.61H585.961C592.588 1155.61 597.961 1150.24 597.961 1143.61V59.0045C597.961 52.3771 592.588 47.0045 585.961 47.0045H55.9349Z" fill="#444444"/>
</g>
</svg>
