<svg width="640" height="1202" viewBox="0 0 640 1202" fill="none" xmlns="http://www.w3.org/2000/svg">
<g id="Group 34">
<g id="Group 33">
<path id="Ellipse 190" d="M144.587 955.432C161.928 955.432 175.986 969.49 175.986 986.831C175.986 1004.17 161.928 1018.23 144.587 1018.23C127.245 1018.23 113.187 1004.17 113.187 986.831C113.187 969.49 127.245 955.432 144.587 955.432Z" fill="#C4C4C4" fill-opacity="0.3"/>
<path id="Ellipse 191" d="M144.587 885.244C161.928 885.244 175.986 899.302 175.986 916.644C175.986 933.985 161.928 948.043 144.587 948.043C127.245 948.043 113.187 933.985 113.187 916.644C113.187 899.302 127.245 885.244 144.587 885.244Z" fill="#C4C4C4" fill-opacity="0.3"/>
<path id="Ellipse 192" d="M144.587 815.057C161.928 815.057 175.986 829.115 175.986 846.456C175.986 863.798 161.928 877.856 144.587 877.856C127.245 877.856 113.187 863.798 113.187 846.456C113.187 829.115 127.245 815.057 144.587 815.057Z" fill="#C4C4C4" fill-opacity="0.3"/>
<path id="Ellipse 193" d="M144.587 674.683C161.928 674.683 175.986 688.742 175.986 706.083C175.986 723.424 161.928 737.482 144.587 737.482C127.245 737.482 113.187 723.424 113.187 706.083C113.187 688.741 127.245 674.683 144.587 674.683Z" fill="#C4C4C4" fill-opacity="0.3"/>
<path id="Ellipse 194" d="M144.587 604.496C161.928 604.496 175.986 618.554 175.986 635.895C175.986 653.237 161.928 667.295 144.587 667.295C127.245 667.295 113.187 653.237 113.187 635.895C113.187 618.554 127.245 604.496 144.587 604.496Z" fill="#C4C4C4" fill-opacity="0.3"/>
<path id="Ellipse 195" d="M144.587 534.308C161.928 534.308 175.986 548.367 175.986 565.708C175.986 583.049 161.928 597.107 144.587 597.107C127.245 597.107 113.187 583.049 113.187 565.708C113.187 548.366 127.245 534.308 144.587 534.308Z" fill="#C4C4C4" fill-opacity="0.3"/>
<path id="Ellipse 196" d="M144.587 393.934C161.928 393.934 175.986 407.992 175.986 425.334C175.986 442.675 161.928 456.733 144.587 456.733C127.245 456.733 113.187 442.675 113.187 425.334C113.187 407.992 127.245 393.934 144.587 393.934Z" fill="#C4C4C4" fill-opacity="0.3"/>
<path id="Ellipse 197" d="M144.587 323.748C161.928 323.748 175.986 337.806 175.986 355.147C175.986 372.489 161.928 386.547 144.587 386.547C127.245 386.547 113.187 372.489 113.187 355.147C113.187 337.806 127.245 323.748 144.587 323.748Z" fill="#C4C4C4" fill-opacity="0.3"/>
<path id="Ellipse 198" d="M144.587 253.56C161.928 253.56 175.986 267.618 175.986 284.96C175.986 302.301 161.928 316.359 144.587 316.359C127.245 316.359 113.187 302.301 113.187 284.96C113.187 267.618 127.245 253.56 144.587 253.56Z" fill="#C4C4C4" fill-opacity="0.3"/>
<path id="Ellipse 153" d="M144.587 113.186C161.928 113.186 175.986 127.244 175.986 144.586C175.986 161.927 161.928 175.985 144.587 175.985C127.246 175.985 113.188 161.927 113.188 144.586C113.188 127.244 127.246 113.186 144.587 113.186Z" fill="#C4C4C4" fill-opacity="0.3"/>
<path id="Ellipse 155" d="M214.774 955.432C232.115 955.432 246.173 969.49 246.173 986.831C246.173 1004.17 232.115 1018.23 214.774 1018.23C197.432 1018.23 183.374 1004.17 183.374 986.831C183.374 969.49 197.432 955.432 214.774 955.432Z" fill="#C4C4C4" fill-opacity="0.3"/>
<path id="Ellipse 156" d="M214.774 815.057C232.115 815.057 246.173 829.115 246.173 846.456C246.173 863.798 232.115 877.856 214.774 877.856C197.432 877.856 183.374 863.798 183.374 846.456C183.374 829.115 197.432 815.057 214.774 815.057Z" fill="#C4C4C4" fill-opacity="0.3"/>
<path id="Ellipse 157" d="M214.774 674.683C232.115 674.683 246.173 688.742 246.173 706.083C246.173 723.424 232.115 737.482 214.774 737.482C197.432 737.482 183.374 723.424 183.374 706.083C183.374 688.741 197.432 674.683 214.774 674.683Z" fill="#C4C4C4" fill-opacity="0.3"/>
<path id="Ellipse 158" d="M214.774 534.308C232.115 534.308 246.173 548.367 246.173 565.708C246.173 583.049 232.115 597.107 214.774 597.107C197.432 597.107 183.374 583.049 183.374 565.708C183.374 548.366 197.432 534.308 214.774 534.308Z" fill="#C4C4C4" fill-opacity="0.3"/>
<path id="Ellipse 159" d="M214.774 393.934C232.115 393.934 246.173 407.992 246.173 425.334C246.173 442.675 232.115 456.733 214.774 456.733C197.433 456.733 183.375 442.675 183.375 425.334C183.375 407.992 197.433 393.934 214.774 393.934Z" fill="#C4C4C4" fill-opacity="0.3"/>
<path id="Ellipse 160" d="M214.774 113.186C232.115 113.186 246.173 127.244 246.173 144.586C246.173 161.927 232.115 175.985 214.774 175.985C197.433 175.985 183.375 161.927 183.375 144.586C183.375 127.244 197.433 113.186 214.774 113.186Z" fill="#C4C4C4" fill-opacity="0.3"/>
<path id="Ellipse 162" d="M284.961 955.432C302.302 955.432 316.36 969.49 316.36 986.831C316.36 1004.17 302.302 1018.23 284.961 1018.23C267.619 1018.23 253.561 1004.17 253.561 986.831C253.561 969.49 267.619 955.432 284.961 955.432Z" fill="#C4C4C4" fill-opacity="0.3"/>
<path id="Ellipse 163" d="M284.961 815.057C302.302 815.057 316.36 829.115 316.36 846.456C316.36 863.798 302.302 877.856 284.961 877.856C267.619 877.856 253.561 863.798 253.561 846.456C253.561 829.115 267.619 815.057 284.961 815.057Z" fill="#C4C4C4" fill-opacity="0.3"/>
<path id="Ellipse 164" d="M284.961 674.683C302.302 674.683 316.36 688.742 316.36 706.083C316.36 723.424 302.302 737.482 284.961 737.482C267.619 737.482 253.561 723.424 253.561 706.083C253.561 688.741 267.619 674.683 284.961 674.683Z" fill="#C4C4C4" fill-opacity="0.3"/>
<path id="Ellipse 165" d="M284.961 604.496C302.302 604.496 316.36 618.554 316.36 635.895C316.36 653.237 302.302 667.295 284.961 667.295C267.619 667.295 253.561 653.237 253.561 635.895C253.561 618.554 267.619 604.496 284.961 604.496Z" fill="#C4C4C4" fill-opacity="0.3"/>
<path id="Ellipse 166" d="M284.961 534.308C302.302 534.308 316.36 548.367 316.36 565.708C316.36 583.049 302.302 597.107 284.961 597.107C267.619 597.107 253.561 583.049 253.561 565.708C253.561 548.366 267.619 534.308 284.961 534.308Z" fill="#C4C4C4" fill-opacity="0.3"/>
<path id="Ellipse 167" d="M284.961 393.934C302.302 393.934 316.36 407.992 316.36 425.334C316.36 442.675 302.302 456.733 284.961 456.733C267.619 456.733 253.561 442.675 253.561 425.334C253.561 407.992 267.619 393.934 284.961 393.934Z" fill="#C4C4C4" fill-opacity="0.3"/>
<path id="Ellipse 168" d="M284.961 323.748C302.302 323.748 316.36 337.806 316.36 355.147C316.36 372.489 302.302 386.547 284.961 386.547C267.619 386.547 253.561 372.489 253.561 355.147C253.561 337.806 267.619 323.748 284.961 323.748Z" fill="#C4C4C4" fill-opacity="0.3"/>
<path id="Ellipse 169" d="M284.961 253.56C302.302 253.56 316.36 267.618 316.36 284.96C316.36 302.301 302.302 316.359 284.961 316.359C267.619 316.359 253.561 302.301 253.561 284.96C253.561 267.618 267.619 253.56 284.961 253.56Z" fill="#C4C4C4" fill-opacity="0.3"/>
<path id="Ellipse 170" d="M284.961 113.186C302.302 113.186 316.36 127.244 316.36 144.586C316.36 161.927 302.302 175.985 284.961 175.985C267.619 175.985 253.561 161.927 253.561 144.586C253.561 127.244 267.619 113.186 284.961 113.186Z" fill="#C4C4C4" fill-opacity="0.3"/>
<path id="Ellipse 171" d="M284.961 42.9999C302.302 42.9999 316.36 57.0579 316.36 74.3994C316.36 91.7408 302.302 105.799 284.961 105.799C267.619 105.799 253.561 91.7408 253.561 74.3994C253.561 57.0579 267.619 42.9999 284.961 42.9999Z" fill="#C4C4C4" fill-opacity="0.3"/>
<path id="Ellipse 173" d="M355.148 955.432C372.489 955.432 386.547 969.49 386.547 986.831C386.547 1004.17 372.489 1018.23 355.148 1018.23C337.806 1018.23 323.748 1004.17 323.748 986.831C323.748 969.49 337.806 955.432 355.148 955.432Z" fill="#C4C4C4" fill-opacity="0.3"/>
<path id="Ellipse 174" d="M355.148 815.057C372.489 815.057 386.547 829.115 386.547 846.456C386.547 863.798 372.489 877.856 355.148 877.856C337.806 877.856 323.748 863.798 323.748 846.456C323.748 829.115 337.806 815.057 355.148 815.057Z" fill="#C4C4C4" fill-opacity="0.3"/>
<path id="Ellipse 175" d="M355.148 674.683C372.489 674.683 386.547 688.742 386.547 706.083C386.547 723.424 372.489 737.482 355.148 737.482C337.806 737.482 323.748 723.424 323.748 706.083C323.748 688.741 337.806 674.683 355.148 674.683Z" fill="#C4C4C4" fill-opacity="0.3"/>
<path id="Ellipse 176" d="M355.148 534.308C372.489 534.308 386.547 548.367 386.547 565.708C386.547 583.049 372.489 597.107 355.148 597.107C337.806 597.107 323.748 583.049 323.748 565.708C323.748 548.366 337.806 534.308 355.148 534.308Z" fill="#C4C4C4" fill-opacity="0.3"/>
<path id="Ellipse 177" d="M355.148 253.56C372.489 253.56 386.547 267.618 386.547 284.96C386.547 302.301 372.489 316.359 355.148 316.359C337.806 316.359 323.748 302.301 323.748 284.96C323.748 267.618 337.806 253.56 355.148 253.56Z" fill="#C4C4C4" fill-opacity="0.3"/>
<path id="Ellipse 178" d="M355.148 113.186C372.489 113.186 386.547 127.244 386.547 144.586C386.547 161.927 372.489 175.985 355.148 175.985C337.806 175.985 323.748 161.927 323.748 144.586C323.748 127.244 337.806 113.186 355.148 113.186Z" fill="#C4C4C4" fill-opacity="0.3"/>
<path id="Ellipse 180" d="M425.335 955.432C442.676 955.432 456.734 969.49 456.734 986.831C456.734 1004.17 442.676 1018.23 425.335 1018.23C407.993 1018.23 393.935 1004.17 393.935 986.831C393.935 969.49 407.993 955.432 425.335 955.432Z" fill="#C4C4C4" fill-opacity="0.3"/>
<path id="Ellipse 181" d="M425.335 885.244C442.676 885.244 456.734 899.302 456.734 916.644C456.734 933.985 442.676 948.043 425.335 948.043C407.993 948.043 393.935 933.985 393.935 916.644C393.935 899.302 407.993 885.244 425.335 885.244Z" fill="#C4C4C4" fill-opacity="0.3"/>
<path id="Ellipse 182" d="M425.335 815.057C442.676 815.057 456.734 829.115 456.734 846.456C456.734 863.798 442.676 877.856 425.335 877.856C407.993 877.856 393.935 863.798 393.935 846.456C393.935 829.115 407.993 815.057 425.335 815.057Z" fill="#C4C4C4" fill-opacity="0.3"/>
<path id="Ellipse 183" d="M425.335 674.683C442.676 674.683 456.734 688.742 456.734 706.083C456.734 723.424 442.676 737.482 425.335 737.482C407.993 737.482 393.935 723.424 393.935 706.083C393.935 688.741 407.993 674.683 425.335 674.683Z" fill="#C4C4C4" fill-opacity="0.3"/>
<path id="Ellipse 184" d="M425.335 534.308C442.676 534.308 456.734 548.367 456.734 565.708C456.734 583.049 442.676 597.107 425.335 597.107C407.993 597.107 393.935 583.049 393.935 565.708C393.935 548.366 407.993 534.308 425.335 534.308Z" fill="#C4C4C4" fill-opacity="0.3"/>
<path id="Ellipse 185" d="M425.335 393.934C442.676 393.934 456.734 407.992 456.734 425.334C456.734 442.675 442.676 456.733 425.335 456.733C407.993 456.733 393.935 442.675 393.935 425.334C393.935 407.992 407.993 393.934 425.335 393.934Z" fill="#C4C4C4" fill-opacity="0.3"/>
<path id="Ellipse 186" d="M425.335 323.748C442.676 323.748 456.734 337.806 456.734 355.147C456.734 372.489 442.676 386.547 425.335 386.547C407.993 386.547 393.935 372.489 393.935 355.147C393.935 337.806 407.993 323.748 425.335 323.748Z" fill="#C4C4C4" fill-opacity="0.3"/>
<path id="Ellipse 187" d="M425.335 253.56C442.676 253.56 456.734 267.618 456.734 284.96C456.734 302.301 442.676 316.359 425.335 316.359C407.993 316.359 393.935 302.301 393.935 284.96C393.935 267.618 407.993 253.56 425.335 253.56Z" fill="#C4C4C4" fill-opacity="0.3"/>
<path id="Ellipse 188" d="M425.335 113.186C442.676 113.186 456.735 127.244 456.735 144.586C456.735 161.927 442.676 175.985 425.335 175.985C407.994 175.985 393.936 161.927 393.936 144.586C393.936 127.244 407.994 113.186 425.335 113.186Z" fill="#C4C4C4" fill-opacity="0.3"/>
<path id="Ellipse 1" d="M144.587 1095.81C161.928 1095.81 175.986 1109.86 175.986 1127.21C175.986 1144.55 161.928 1158.6 144.587 1158.6C127.245 1158.6 113.187 1144.55 113.187 1127.21C113.187 1109.86 127.245 1095.81 144.587 1095.81Z" fill="#C4C4C4" fill-opacity="0.3"/>
<path id="Ellipse 25" d="M74.3997 1095.81C91.7412 1095.81 105.799 1109.86 105.799 1127.21C105.799 1144.55 91.7412 1158.6 74.3997 1158.6C57.0583 1158.6 43.0002 1144.55 43.0002 1127.21C43.0003 1109.86 57.0583 1095.81 74.3997 1095.81Z" fill="#C4C4C4" fill-opacity="0.3"/>
<path id="Ellipse 26" d="M74.3995 1025.62C91.7409 1025.62 105.799 1039.68 105.799 1057.02C105.799 1074.36 91.7409 1088.42 74.3995 1088.42C57.058 1088.42 43 1074.36 43 1057.02C43 1039.68 57.058 1025.62 74.3995 1025.62Z" fill="#C4C4C4" fill-opacity="0.3"/>
<path id="Ellipse 49" d="M144.587 1025.62C161.928 1025.62 175.986 1039.68 175.986 1057.02C175.986 1074.36 161.928 1088.42 144.587 1088.42C127.245 1088.42 113.187 1074.36 113.187 1057.02C113.187 1039.68 127.245 1025.62 144.587 1025.62Z" fill="#C4C4C4" fill-opacity="0.3"/>
<path id="Ellipse 73" d="M144.587 744.87C161.928 744.87 175.986 758.929 175.986 776.27C175.986 793.611 161.928 807.669 144.587 807.669C127.245 807.669 113.187 793.611 113.187 776.27C113.187 758.929 127.245 744.87 144.587 744.87Z" fill="#C4C4C4" fill-opacity="0.3"/>
<path id="Ellipse 97" d="M144.587 464.121C161.928 464.121 175.986 478.179 175.986 495.52C175.986 512.862 161.928 526.92 144.587 526.92C127.245 526.92 113.187 512.862 113.187 495.52C113.187 478.179 127.245 464.121 144.587 464.121Z" fill="#C4C4C4" fill-opacity="0.3"/>
<path id="Ellipse 121" d="M144.587 183.374C161.928 183.374 175.986 197.432 175.986 214.773C175.986 232.115 161.928 246.173 144.587 246.173C127.245 246.173 113.187 232.115 113.187 214.773C113.187 197.432 127.245 183.374 144.587 183.374Z" fill="#C4C4C4" fill-opacity="0.3"/>
<path id="Ellipse 133" d="M144.587 42.9999C161.928 42.9999 175.986 57.0579 175.986 74.3994C175.986 91.7408 161.928 105.799 144.587 105.799C127.246 105.799 113.188 91.7408 113.188 74.3994C113.188 57.0579 127.246 42.9999 144.587 42.9999Z" fill="#C4C4C4" fill-opacity="0.3"/>
<path id="Ellipse 50" d="M214.774 1025.62C232.115 1025.62 246.173 1039.68 246.173 1057.02C246.173 1074.36 232.115 1088.42 214.774 1088.42C197.432 1088.42 183.374 1074.36 183.374 1057.02C183.374 1039.68 197.432 1025.62 214.774 1025.62Z" fill="#C4C4C4" fill-opacity="0.3"/>
<path id="Ellipse 62" d="M214.774 885.244C232.115 885.244 246.173 899.302 246.173 916.644C246.173 933.985 232.115 948.043 214.774 948.043C197.432 948.043 183.374 933.985 183.374 916.644C183.374 899.302 197.432 885.244 214.774 885.244Z" fill="#C4C4C4" fill-opacity="0.3"/>
<path id="Ellipse 74" d="M214.774 744.87C232.115 744.87 246.173 758.929 246.173 776.27C246.173 793.611 232.115 807.669 214.774 807.669C197.432 807.669 183.374 793.611 183.374 776.27C183.374 758.929 197.432 744.87 214.774 744.87Z" fill="#C4C4C4" fill-opacity="0.3"/>
<path id="Ellipse 86" d="M214.774 604.496C232.115 604.496 246.173 618.554 246.173 635.895C246.173 653.237 232.115 667.295 214.774 667.295C197.432 667.295 183.374 653.237 183.374 635.895C183.374 618.554 197.432 604.496 214.774 604.496Z" fill="#C4C4C4" fill-opacity="0.3"/>
<path id="Ellipse 98" d="M214.774 464.121C232.115 464.121 246.173 478.179 246.173 495.52C246.173 512.862 232.115 526.92 214.774 526.92C197.433 526.92 183.375 512.862 183.375 495.52C183.375 478.179 197.433 464.121 214.774 464.121Z" fill="#C4C4C4" fill-opacity="0.3"/>
<path id="Ellipse 110" d="M214.774 323.748C232.115 323.748 246.173 337.806 246.173 355.147C246.173 372.489 232.115 386.547 214.774 386.547C197.433 386.547 183.375 372.489 183.375 355.147C183.375 337.806 197.433 323.748 214.774 323.748Z" fill="#C4C4C4" fill-opacity="0.3"/>
<path id="Ellipse 116" d="M214.774 253.56C232.115 253.56 246.173 267.618 246.173 284.96C246.173 302.301 232.115 316.359 214.774 316.359C197.433 316.359 183.375 302.301 183.375 284.96C183.375 267.618 197.433 253.56 214.774 253.56Z" fill="#C4C4C4" fill-opacity="0.3"/>
<path id="Ellipse 122" d="M214.774 183.374C232.115 183.374 246.173 197.432 246.173 214.773C246.173 232.115 232.115 246.173 214.774 246.173C197.433 246.173 183.375 232.115 183.375 214.773C183.375 197.432 197.433 183.374 214.774 183.374Z" fill="#C4C4C4" fill-opacity="0.3"/>
<path id="Ellipse 134" d="M214.774 42.9999C232.115 42.9999 246.173 57.0579 246.173 74.3994C246.173 91.7408 232.115 105.799 214.774 105.799C197.433 105.799 183.375 91.7408 183.375 74.3994C183.375 57.0579 197.433 42.9999 214.774 42.9999Z" fill="#C4C4C4" fill-opacity="0.3"/>
<path id="Ellipse 51" d="M284.961 1025.62C302.302 1025.62 316.36 1039.68 316.36 1057.02C316.36 1074.36 302.302 1088.42 284.961 1088.42C267.619 1088.42 253.561 1074.36 253.561 1057.02C253.561 1039.68 267.619 1025.62 284.961 1025.62Z" fill="#C4C4C4" fill-opacity="0.3"/>
<path id="Ellipse 63" d="M284.961 885.244C302.302 885.244 316.36 899.302 316.36 916.644C316.36 933.985 302.302 948.043 284.961 948.043C267.619 948.043 253.561 933.985 253.561 916.644C253.561 899.302 267.619 885.244 284.961 885.244Z" fill="#C4C4C4" fill-opacity="0.3"/>
<path id="Ellipse 75" d="M284.961 744.87C302.302 744.87 316.36 758.929 316.36 776.27C316.36 793.611 302.302 807.669 284.961 807.669C267.619 807.669 253.561 793.611 253.561 776.27C253.561 758.929 267.619 744.87 284.961 744.87Z" fill="#C4C4C4" fill-opacity="0.3"/>
<path id="Ellipse 99" d="M284.961 464.121C302.302 464.121 316.36 478.179 316.36 495.52C316.36 512.862 302.302 526.92 284.961 526.92C267.619 526.92 253.561 512.862 253.561 495.52C253.561 478.179 267.619 464.121 284.961 464.121Z" fill="#C4C4C4" fill-opacity="0.3"/>
<path id="Ellipse 123" d="M284.961 183.374C302.302 183.374 316.36 197.432 316.36 214.773C316.36 232.115 302.302 246.173 284.961 246.173C267.619 246.173 253.561 232.115 253.561 214.773C253.561 197.432 267.619 183.374 284.961 183.374Z" fill="#C4C4C4" fill-opacity="0.3"/>
<path id="Ellipse 52" d="M355.148 1025.62C372.489 1025.62 386.547 1039.68 386.547 1057.02C386.547 1074.36 372.489 1088.42 355.148 1088.42C337.806 1088.42 323.748 1074.36 323.748 1057.02C323.748 1039.68 337.806 1025.62 355.148 1025.62Z" fill="#C4C4C4" fill-opacity="0.3"/>
<path id="Ellipse 64" d="M355.148 885.244C372.489 885.244 386.547 899.302 386.547 916.644C386.547 933.985 372.489 948.043 355.148 948.043C337.806 948.043 323.748 933.985 323.748 916.644C323.748 899.302 337.806 885.244 355.148 885.244Z" fill="#C4C4C4" fill-opacity="0.3"/>
<path id="Ellipse 76" d="M355.148 744.87C372.489 744.87 386.547 758.929 386.547 776.27C386.547 793.611 372.489 807.669 355.148 807.669C337.806 807.669 323.748 793.611 323.748 776.27C323.748 758.929 337.806 744.87 355.148 744.87Z" fill="#C4C4C4" fill-opacity="0.3"/>
<path id="Ellipse 88" d="M355.148 604.496C372.489 604.496 386.547 618.554 386.547 635.896C386.547 653.237 372.489 667.295 355.148 667.295C337.806 667.295 323.748 653.237 323.748 635.896C323.748 618.554 337.806 604.496 355.148 604.496Z" fill="#C4C4C4" fill-opacity="0.3"/>
<path id="Ellipse 100" d="M355.148 464.121C372.489 464.121 386.547 478.179 386.547 495.52C386.547 512.862 372.489 526.92 355.148 526.92C337.806 526.92 323.748 512.862 323.748 495.52C323.748 478.179 337.806 464.121 355.148 464.121Z" fill="#C4C4C4" fill-opacity="0.3"/>
<path id="Ellipse 106" d="M355.148 393.934C372.489 393.934 386.547 407.992 386.547 425.334C386.547 442.675 372.489 456.733 355.148 456.733C337.806 456.733 323.748 442.675 323.748 425.334C323.748 407.992 337.806 393.934 355.148 393.934Z" fill="#C4C4C4" fill-opacity="0.3"/>
<path id="Ellipse 112" d="M355.148 323.748C372.489 323.748 386.547 337.806 386.547 355.147C386.547 372.489 372.489 386.547 355.148 386.547C337.806 386.547 323.748 372.489 323.748 355.147C323.748 337.806 337.806 323.748 355.148 323.748Z" fill="#C4C4C4" fill-opacity="0.3"/>
<path id="Ellipse 124" d="M355.148 183.374C372.489 183.374 386.547 197.432 386.547 214.773C386.547 232.115 372.489 246.173 355.148 246.173C337.806 246.173 323.748 232.115 323.748 214.773C323.748 197.432 337.806 183.374 355.148 183.374Z" fill="#C4C4C4" fill-opacity="0.3"/>
<path id="Ellipse 136" d="M355.148 42.9999C372.489 42.9999 386.547 57.0579 386.547 74.3994C386.547 91.7408 372.489 105.799 355.148 105.799C337.806 105.799 323.748 91.7408 323.748 74.3994C323.748 57.0579 337.806 42.9999 355.148 42.9999Z" fill="#C4C4C4" fill-opacity="0.3"/>
<path id="Ellipse 53" d="M425.335 1025.62C442.676 1025.62 456.734 1039.68 456.734 1057.02C456.734 1074.36 442.676 1088.42 425.335 1088.42C407.993 1088.42 393.935 1074.36 393.935 1057.02C393.935 1039.68 407.993 1025.62 425.335 1025.62Z" fill="#C4C4C4" fill-opacity="0.3"/>
<path id="Ellipse 77" d="M425.335 744.87C442.676 744.87 456.734 758.929 456.734 776.27C456.734 793.611 442.676 807.669 425.335 807.669C407.993 807.669 393.935 793.611 393.935 776.27C393.935 758.929 407.993 744.87 425.335 744.87Z" fill="#C4C4C4" fill-opacity="0.3"/>
<path id="Ellipse 89" d="M425.335 604.496C442.676 604.496 456.734 618.554 456.734 635.896C456.734 653.237 442.676 667.295 425.335 667.295C407.993 667.295 393.935 653.237 393.935 635.896C393.935 618.554 407.993 604.496 425.335 604.496Z" fill="#C4C4C4" fill-opacity="0.3"/>
<path id="Ellipse 101" d="M425.335 464.121C442.676 464.121 456.734 478.179 456.734 495.52C456.734 512.862 442.676 526.92 425.335 526.92C407.993 526.92 393.935 512.862 393.935 495.52C393.935 478.179 407.993 464.121 425.335 464.121Z" fill="#C4C4C4" fill-opacity="0.3"/>
<path id="Ellipse 125" d="M425.335 183.374C442.676 183.374 456.734 197.432 456.734 214.773C456.734 232.115 442.676 246.173 425.335 246.173C407.993 246.173 393.935 232.115 393.935 214.773C393.935 197.432 407.993 183.374 425.335 183.374Z" fill="#C4C4C4" fill-opacity="0.3"/>
<path id="Ellipse 137" d="M425.335 42.9999C442.676 42.9999 456.735 57.0579 456.735 74.3994C456.735 91.7408 442.676 105.799 425.335 105.799C407.994 105.799 393.936 91.7408 393.936 74.3994C393.936 57.0579 407.994 42.9999 425.335 42.9999Z" fill="#C4C4C4" fill-opacity="0.3"/>
<path id="Ellipse 54" d="M495.522 1025.62C512.863 1025.62 526.921 1039.68 526.921 1057.02C526.921 1074.36 512.863 1088.42 495.522 1088.42C478.18 1088.42 464.122 1074.36 464.122 1057.02C464.122 1039.68 478.18 1025.62 495.522 1025.62Z" fill="#C4C4C4" fill-opacity="0.3"/>
<path id="Ellipse 60" d="M495.522 955.432C512.863 955.432 526.921 969.49 526.921 986.831C526.921 1004.17 512.863 1018.23 495.522 1018.23C478.18 1018.23 464.122 1004.17 464.122 986.831C464.122 969.49 478.18 955.432 495.522 955.432Z" fill="#C4C4C4" fill-opacity="0.3"/>
<path id="Ellipse 66" d="M495.522 885.244C512.863 885.244 526.921 899.302 526.921 916.644C526.921 933.985 512.863 948.043 495.522 948.043C478.18 948.043 464.122 933.985 464.122 916.644C464.122 899.302 478.18 885.244 495.522 885.244Z" fill="#C4C4C4" fill-opacity="0.3"/>
<path id="Ellipse 72" d="M495.522 815.057C512.863 815.057 526.921 829.115 526.921 846.456C526.921 863.798 512.863 877.856 495.522 877.856C478.18 877.856 464.122 863.798 464.122 846.456C464.122 829.115 478.18 815.057 495.522 815.057Z" fill="#C4C4C4" fill-opacity="0.3"/>
<path id="Ellipse 78" d="M495.522 744.87C512.863 744.87 526.921 758.929 526.921 776.27C526.921 793.611 512.863 807.669 495.522 807.669C478.18 807.669 464.122 793.611 464.122 776.27C464.122 758.929 478.18 744.87 495.522 744.87Z" fill="#C4C4C4" fill-opacity="0.3"/>
<path id="Ellipse 84" d="M495.522 674.683C512.863 674.683 526.921 688.742 526.921 706.083C526.921 723.424 512.863 737.482 495.522 737.482C478.18 737.482 464.122 723.424 464.122 706.083C464.122 688.741 478.18 674.683 495.522 674.683Z" fill="#C4C4C4" fill-opacity="0.3"/>
<path id="Ellipse 90" d="M495.522 604.496C512.863 604.496 526.921 618.554 526.921 635.896C526.921 653.237 512.863 667.295 495.522 667.295C478.18 667.295 464.122 653.237 464.122 635.896C464.122 618.554 478.18 604.496 495.522 604.496Z" fill="#C4C4C4" fill-opacity="0.3"/>
<path id="Ellipse 96" d="M495.522 534.308C512.863 534.308 526.921 548.367 526.921 565.708C526.921 583.049 512.863 597.107 495.522 597.107C478.18 597.107 464.122 583.049 464.122 565.708C464.122 548.366 478.18 534.308 495.522 534.308Z" fill="#C4C4C4" fill-opacity="0.3"/>
<path id="Ellipse 102" d="M495.522 464.121C512.863 464.121 526.921 478.179 526.921 495.52C526.921 512.862 512.863 526.92 495.522 526.92C478.18 526.92 464.122 512.862 464.122 495.52C464.122 478.179 478.18 464.121 495.522 464.121Z" fill="#C4C4C4" fill-opacity="0.3"/>
<path id="Ellipse 108" d="M495.522 393.934C512.863 393.934 526.921 407.992 526.921 425.334C526.921 442.675 512.863 456.733 495.522 456.733C478.18 456.733 464.122 442.675 464.122 425.334C464.122 407.992 478.18 393.934 495.522 393.934Z" fill="#C4C4C4" fill-opacity="0.3"/>
<path id="Ellipse 114" d="M495.522 323.748C512.863 323.748 526.921 337.806 526.921 355.147C526.921 372.489 512.863 386.547 495.522 386.547C478.18 386.547 464.122 372.489 464.122 355.147C464.122 337.806 478.18 323.748 495.522 323.748Z" fill="#C4C4C4" fill-opacity="0.3"/>
<path id="Ellipse 120" d="M495.522 253.56C512.863 253.56 526.921 267.618 526.921 284.96C526.921 302.301 512.863 316.359 495.522 316.359C478.18 316.359 464.122 302.301 464.122 284.96C464.122 267.618 478.18 253.56 495.522 253.56Z" fill="#C4C4C4" fill-opacity="0.3"/>
<path id="Ellipse 126" d="M495.522 183.374C512.863 183.374 526.921 197.432 526.921 214.773C526.921 232.115 512.863 246.173 495.522 246.173C478.18 246.173 464.122 232.115 464.122 214.773C464.122 197.432 478.18 183.374 495.522 183.374Z" fill="#C4C4C4" fill-opacity="0.3"/>
<path id="Ellipse 132" d="M495.522 113.186C512.863 113.186 526.921 127.244 526.921 144.586C526.921 161.927 512.863 175.985 495.522 175.985C478.18 175.985 464.122 161.927 464.122 144.586C464.122 127.244 478.18 113.186 495.522 113.186Z" fill="#C4C4C4" fill-opacity="0.3"/>
<path id="Ellipse 138" d="M495.522 42.9999C512.863 42.9999 526.921 57.0579 526.921 74.3994C526.921 91.7408 512.863 105.799 495.522 105.799C478.18 105.799 464.122 91.7408 464.122 74.3994C464.122 57.0579 478.18 42.9999 495.522 42.9999Z" fill="#C4C4C4" fill-opacity="0.3"/>
<path id="Ellipse 27" d="M74.3995 955.432C91.7409 955.432 105.799 969.49 105.799 986.831C105.799 1004.17 91.7409 1018.23 74.3995 1018.23C57.058 1018.23 43 1004.17 43 986.831C43 969.49 57.058 955.432 74.3995 955.432Z" fill="#C4C4C4" fill-opacity="0.3"/>
<path id="Ellipse 28" d="M74.3995 885.244C91.7409 885.244 105.799 899.302 105.799 916.644C105.799 933.985 91.7409 948.043 74.3995 948.043C57.058 948.043 43 933.985 43 916.644C43 899.302 57.058 885.244 74.3995 885.244Z" fill="#C4C4C4" fill-opacity="0.3"/>
<path id="Ellipse 29" d="M74.3995 815.057C91.7409 815.057 105.799 829.115 105.799 846.456C105.799 863.798 91.7409 877.856 74.3995 877.856C57.058 877.856 43 863.798 43 846.456C43 829.115 57.058 815.057 74.3995 815.057Z" fill="#C4C4C4" fill-opacity="0.3"/>
<path id="Ellipse 30" d="M74.3997 744.87C91.7412 744.87 105.799 758.929 105.799 776.27C105.799 793.611 91.7412 807.669 74.3997 807.669C57.0583 807.669 43.0002 793.611 43.0002 776.27C43.0003 758.929 57.0583 744.87 74.3997 744.87Z" fill="#C4C4C4" fill-opacity="0.3"/>
<path id="Ellipse 31" d="M74.3997 674.683C91.7412 674.683 105.799 688.742 105.799 706.083C105.799 723.424 91.7412 737.482 74.3997 737.482C57.0583 737.482 43.0002 723.424 43.0002 706.083C43.0003 688.741 57.0583 674.683 74.3997 674.683Z" fill="#C4C4C4" fill-opacity="0.3"/>
<path id="Ellipse 32" d="M74.3997 604.496C91.7412 604.496 105.799 618.554 105.799 635.895C105.799 653.237 91.7412 667.295 74.3997 667.295C57.0583 667.295 43.0002 653.237 43.0002 635.895C43.0003 618.554 57.0583 604.496 74.3997 604.496Z" fill="#C4C4C4" fill-opacity="0.3"/>
<path id="Ellipse 33" d="M74.3997 534.308C91.7412 534.308 105.799 548.367 105.799 565.708C105.799 583.049 91.7412 597.107 74.3997 597.107C57.0583 597.107 43.0002 583.049 43.0002 565.708C43.0003 548.366 57.0583 534.308 74.3997 534.308Z" fill="#C4C4C4" fill-opacity="0.3"/>
<path id="Ellipse 34" d="M74.3997 464.121C91.7412 464.121 105.799 478.179 105.799 495.52C105.799 512.862 91.7412 526.92 74.3997 526.92C57.0583 526.92 43.0002 512.862 43.0002 495.52C43.0003 478.179 57.0583 464.121 74.3997 464.121Z" fill="#C4C4C4" fill-opacity="0.3"/>
<path id="Ellipse 35" d="M74.3997 393.934C91.7412 393.934 105.799 407.992 105.799 425.334C105.799 442.675 91.7412 456.733 74.3997 456.733C57.0583 456.733 43.0002 442.675 43.0002 425.334C43.0003 407.992 57.0583 393.934 74.3997 393.934Z" fill="#C4C4C4" fill-opacity="0.3"/>
<path id="Ellipse 36" d="M74.3997 323.748C91.7412 323.748 105.799 337.806 105.799 355.147C105.799 372.489 91.7412 386.547 74.3997 386.547C57.0583 386.547 43.0002 372.489 43.0002 355.147C43.0003 337.806 57.0583 323.748 74.3997 323.748Z" fill="#C4C4C4" fill-opacity="0.3"/>
<path id="Ellipse 37" d="M74.3997 253.56C91.7412 253.56 105.799 267.618 105.799 284.96C105.799 302.301 91.7412 316.359 74.3997 316.359C57.0583 316.359 43.0002 302.301 43.0002 284.96C43.0003 267.618 57.0583 253.56 74.3997 253.56Z" fill="#C4C4C4" fill-opacity="0.3"/>
<path id="Ellipse 38" d="M74.3997 183.374C91.7412 183.374 105.799 197.432 105.799 214.773C105.799 232.115 91.7412 246.173 74.3997 246.173C57.0583 246.173 43.0002 232.115 43.0002 214.773C43.0003 197.432 57.0583 183.374 74.3997 183.374Z" fill="#C4C4C4" fill-opacity="0.3"/>
<path id="Ellipse 39" d="M74.3997 113.186C91.7412 113.186 105.799 127.244 105.799 144.586C105.799 161.927 91.7412 175.985 74.3997 175.985C57.0583 175.985 43.0002 161.927 43.0002 144.586C43.0003 127.244 57.0583 113.186 74.3997 113.186Z" fill="#C4C4C4" fill-opacity="0.3"/>
<path id="Ellipse 40" d="M74.3997 42.9999C91.7412 42.9999 105.799 57.0579 105.799 74.3994C105.799 91.7408 91.7412 105.799 74.3997 105.799C57.0583 105.799 43.0002 91.7408 43.0002 74.3994C43.0003 57.0579 57.0583 42.9999 74.3997 42.9999Z" fill="#C4C4C4" fill-opacity="0.3"/>
<path id="Ellipse 2" d="M214.774 1095.81C232.115 1095.81 246.173 1109.86 246.173 1127.21C246.173 1144.55 232.115 1158.6 214.774 1158.6C197.432 1158.6 183.374 1144.55 183.374 1127.21C183.374 1109.86 197.432 1095.81 214.774 1095.81Z" fill="#C4C4C4" fill-opacity="0.3"/>
<path id="Ellipse 3" d="M284.961 1095.81C302.302 1095.81 316.36 1109.86 316.36 1127.21C316.36 1144.55 302.302 1158.6 284.961 1158.6C267.619 1158.6 253.561 1144.55 253.561 1127.21C253.561 1109.86 267.619 1095.81 284.961 1095.81Z" fill="#C4C4C4" fill-opacity="0.3"/>
<path id="Ellipse 4" d="M355.148 1095.81C372.489 1095.81 386.547 1109.86 386.547 1127.21C386.547 1144.55 372.489 1158.6 355.148 1158.6C337.806 1158.6 323.748 1144.55 323.748 1127.21C323.748 1109.86 337.806 1095.81 355.148 1095.81Z" fill="#C4C4C4" fill-opacity="0.3"/>
<path id="Ellipse 5" d="M425.335 1095.81C442.676 1095.81 456.734 1109.86 456.734 1127.21C456.734 1144.55 442.676 1158.6 425.335 1158.6C407.993 1158.6 393.935 1144.55 393.935 1127.21C393.935 1109.86 407.993 1095.81 425.335 1095.81Z" fill="#C4C4C4" fill-opacity="0.3"/>
<path id="Ellipse 6" d="M495.522 1095.81C512.863 1095.81 526.921 1109.86 526.921 1127.21C526.921 1144.55 512.863 1158.6 495.522 1158.6C478.18 1158.6 464.122 1144.55 464.122 1127.21C464.122 1109.86 478.18 1095.81 495.522 1095.81Z" fill="#C4C4C4" fill-opacity="0.3"/>
<path id="Ellipse 7" d="M565.709 1095.81C583.05 1095.81 597.108 1109.86 597.108 1127.21C597.108 1144.55 583.05 1158.6 565.709 1158.6C548.367 1158.6 534.309 1144.55 534.309 1127.21C534.309 1109.86 548.367 1095.81 565.709 1095.81Z" fill="#C4C4C4" fill-opacity="0.3"/>
<path id="Ellipse 8" d="M565.709 1025.62C583.05 1025.62 597.108 1039.68 597.108 1057.02C597.108 1074.36 583.05 1088.42 565.709 1088.42C548.367 1088.42 534.309 1074.36 534.309 1057.02C534.309 1039.68 548.367 1025.62 565.709 1025.62Z" fill="#C4C4C4" fill-opacity="0.3"/>
<path id="Ellipse 9" d="M565.709 955.432C583.05 955.432 597.108 969.49 597.108 986.831C597.108 1004.17 583.05 1018.23 565.709 1018.23C548.367 1018.23 534.309 1004.17 534.309 986.831C534.309 969.49 548.367 955.432 565.709 955.432Z" fill="#C4C4C4" fill-opacity="0.3"/>
<path id="Ellipse 10" d="M565.709 885.244C583.05 885.244 597.108 899.302 597.108 916.644C597.108 933.985 583.05 948.043 565.709 948.043C548.367 948.043 534.309 933.985 534.309 916.644C534.309 899.302 548.367 885.244 565.709 885.244Z" fill="#C4C4C4" fill-opacity="0.3"/>
<path id="Ellipse 11" d="M565.709 815.057C583.05 815.057 597.108 829.115 597.108 846.456C597.108 863.798 583.05 877.856 565.709 877.856C548.367 877.856 534.309 863.798 534.309 846.456C534.309 829.115 548.367 815.057 565.709 815.057Z" fill="#C4C4C4" fill-opacity="0.3"/>
<path id="Ellipse 12" d="M565.709 744.87C583.05 744.87 597.108 758.929 597.108 776.27C597.108 793.611 583.05 807.669 565.709 807.669C548.367 807.669 534.309 793.611 534.309 776.27C534.309 758.929 548.367 744.87 565.709 744.87Z" fill="#C4C4C4" fill-opacity="0.3"/>
<path id="Ellipse 13" d="M565.709 674.683C583.05 674.683 597.108 688.742 597.108 706.083C597.108 723.424 583.05 737.482 565.709 737.482C548.367 737.482 534.309 723.424 534.309 706.083C534.309 688.741 548.367 674.683 565.709 674.683Z" fill="#C4C4C4" fill-opacity="0.3"/>
<path id="Ellipse 14" d="M565.709 604.496C583.05 604.496 597.108 618.554 597.108 635.896C597.108 653.237 583.05 667.295 565.709 667.295C548.367 667.295 534.309 653.237 534.309 635.896C534.309 618.554 548.367 604.496 565.709 604.496Z" fill="#C4C4C4" fill-opacity="0.3"/>
<path id="Ellipse 15" d="M565.709 534.308C583.05 534.308 597.108 548.367 597.108 565.708C597.108 583.049 583.05 597.107 565.709 597.107C548.367 597.107 534.309 583.049 534.309 565.708C534.309 548.366 548.367 534.308 565.709 534.308Z" fill="#C4C4C4" fill-opacity="0.3"/>
<path id="Ellipse 16" d="M565.709 464.121C583.05 464.121 597.108 478.179 597.108 495.52C597.108 512.862 583.05 526.92 565.709 526.92C548.367 526.92 534.309 512.862 534.309 495.52C534.309 478.179 548.367 464.121 565.709 464.121Z" fill="#C4C4C4" fill-opacity="0.3"/>
<path id="Ellipse 17" d="M565.709 393.934C583.05 393.934 597.108 407.992 597.108 425.334C597.108 442.675 583.05 456.733 565.709 456.733C548.367 456.733 534.309 442.675 534.309 425.334C534.309 407.992 548.367 393.934 565.709 393.934Z" fill="#C4C4C4" fill-opacity="0.3"/>
<path id="Ellipse 18" d="M565.709 323.748C583.05 323.748 597.108 337.806 597.108 355.147C597.108 372.489 583.05 386.547 565.709 386.547C548.367 386.547 534.309 372.489 534.309 355.147C534.309 337.806 548.367 323.748 565.709 323.748Z" fill="#C4C4C4" fill-opacity="0.3"/>
<path id="Ellipse 19" d="M565.709 253.56C583.05 253.56 597.108 267.618 597.108 284.96C597.108 302.301 583.05 316.359 565.709 316.359C548.367 316.359 534.309 302.301 534.309 284.96C534.309 267.618 548.367 253.56 565.709 253.56Z" fill="#C4C4C4" fill-opacity="0.3"/>
<path id="Ellipse 20" d="M565.709 183.374C583.05 183.374 597.108 197.432 597.108 214.773C597.108 232.115 583.05 246.173 565.709 246.173C548.367 246.173 534.309 232.115 534.309 214.773C534.309 197.432 548.367 183.374 565.709 183.374Z" fill="#C4C4C4" fill-opacity="0.3"/>
<path id="Ellipse 21" d="M565.709 113.186C583.05 113.186 597.108 127.244 597.108 144.586C597.108 161.927 583.05 175.985 565.709 175.985C548.367 175.985 534.309 161.927 534.309 144.586C534.309 127.244 548.367 113.186 565.709 113.186Z" fill="#C4C4C4" fill-opacity="0.3"/>
<path id="Ellipse 22" d="M565.709 42.9999C583.05 42.9999 597.108 57.0579 597.108 74.3994C597.108 91.7408 583.05 105.799 565.709 105.799C548.367 105.799 534.309 91.7408 534.309 74.3994C534.309 57.0579 548.367 42.9999 565.709 42.9999Z" fill="#C4C4C4" fill-opacity="0.3"/>
</g>
<path id="Subtract" fill-rule="evenodd" clip-rule="evenodd" d="M628 1202C634.627 1202 640 1196.63 640 1190L640 12.0001C640 5.37264 634.628 5.2861e-05 628 5.22984e-05L12.0001 0C5.37269 -5.62664e-07 0.000107721 5.37258 0.000107124 12L0 1190C0 1196.63 5.37259 1202 12 1202H628ZM44 31.9999C37.3726 31.9999 32 37.3725 32 44V1158C32 1164.63 37.3726 1170 44 1170H596C602.627 1170 608 1164.63 608 1158V43.9999C608 37.3725 602.627 31.9999 596 31.9999H44Z" fill="#444444"/>
</g>
</svg>
