<svg xmlns="http://www.w3.org/2000/svg" viewBox="0 0 53.75 12.31"><defs><style>.cls-1{fill:#ed2024;}</style></defs><title>Asset 11</title><g id="Layer_2" data-name="Layer 2"><g id="Layer_1-2" data-name="Layer 1"><path class="cls-1" d="M.09,0a33.38,33.38,0,0,0,11.1,7.19A46.73,46.73,0,0,0,24,10.39l3.31.23c1.1.06,2.21,0,3.31,0A28.1,28.1,0,0,0,34,10.48l3.31-.26c2.21-.18,4.39-.63,6.59-.89,2.18-.45,4.35-.93,6.55-1.33a.05.05,0,0,1,.06,0s0,.05,0,.06C48.32,8.78,46.18,9.42,44,10c-1.09.23-2.19.43-3.3.64L39.06,11l-.83.15-.83.09a50.54,50.54,0,0,1-6.73.39c-1.12,0-2.25,0-3.37-.08L24,11.19A47.61,47.61,0,0,1,11,7.67,33.58,33.58,0,0,1,0,.08,0,0,0,0,1,0,0,0,0,0,0,1,.09,0Z"/><path class="cls-1" d="M45.85,6.29a9.53,9.53,0,0,0,3.8,1.18,11,11,0,0,0,2,0,14.1,14.1,0,0,0,2-.29l.12.78a10.28,10.28,0,0,0-1.93.54A12.54,12.54,0,0,0,50,9.37a7,7,0,0,0-1.53,1.18,5.83,5.83,0,0,0-1,1.72,0,0,0,0,1-.06,0s0,0,0,0a4.07,4.07,0,0,1,.54-2.13,5.48,5.48,0,0,1,1.57-1.61,6.88,6.88,0,0,1,2-.91,11,11,0,0,1,2.15-.4l.12.78a12.26,12.26,0,0,1-2.09.16A11.1,11.1,0,0,1,49.58,8a9.73,9.73,0,0,1-3.79-1.59,0,0,0,0,1,0-.07,0,0,0,0,1,.06,0Z"/></g></g></svg>