<?xml version="1.0" encoding="utf-8"?>
<!-- Generator: Adobe Illustrator 23.0.5, SVG Export Plug-In . SVG Version: 6.00 Build 0)  -->
<svg version="1.1" id="Layer_1" xmlns="http://www.w3.org/2000/svg" xmlns:xlink="http://www.w3.org/1999/xlink" x="0px" y="0px"
	 viewBox="0 0 141.8 141.8" style="enable-background:new 0 0 141.8 141.8;" xml:space="preserve">
<polygon points="62.6,52.6 72,77.9 53.4,77.9 "/>
<path d="M136.1,0H5.7C2.5,0,0,2.5,0,5.7v130.5c0,3.1,2.5,5.7,5.7,5.7h130.5c3.1,0,5.7-2.5,5.7-5.7V5.7C141.8,2.5,139.3,0,136.1,0z
	 M82.4,104.9l-6-15.5H49.2l-5.6,15.5H28.9l26.6-68.2H70l27.4,68.2H82.4z M112.9,104.9H99.8V55.5h13.1V104.9z M112.9,48.7H99.8V36.6
	h13.1V48.7z"/>
<title>Asset 3</title>
</svg>
