<?xml version="1.0" encoding="utf-8"?>
<!-- Generator: Adobe Illustrator 23.0.5, SVG Export Plug-In . SVG Version: 6.00 Build 0)  -->
<svg version="1.1" id="Layer_1" xmlns="http://www.w3.org/2000/svg" xmlns:xlink="http://www.w3.org/1999/xlink" x="0px" y="0px"
	 viewBox="0 0 2500 2500" style="enable-background:new 0 0 2500 2500;" xml:space="preserve">
<path d="M2442.2,0H57.8C25.9,0,0,25.9,0,57.8v2384.5c0,31.9,25.9,57.8,57.8,57.8h2384.5c31.9,0,57.8-25.9,57.8-57.8V57.8
	C2500,25.9,2474.1,0,2442.2,0z M1317.7,2141.2c-36.8,74.9-107.2,124.1-188.7,147.8c-125.2,28.8-245,12.4-334.1-41.1
	c-59.6-36.6-106.2-92.9-137.8-157.8c63.5-38.7,126.7-77.7,190.1-116.5c1.7,0.7,6.6,9.8,13.3,21.4c24.2,40.6,45.1,69.4,86.3,89.6
	c40.4,13.8,129,22.6,163.3-48.5c20.9-36.1,14.3-154,14.3-282.6c0-202,0.9-402.6,0.9-604.6h233.8c0,215.1,1.2,429.4,0,643.8
	C1359.6,1924.2,1371,2043,1317.7,2141.2z M2287.8,2075.1c-81.3,278-534.5,287.1-715.5,103.4c-38.3-43.3-62.3-65.8-85.1-115.7
	c96.2-55.4,96.2-55.4,189.9-109.6c50.9,78.2,97.9,121.2,182.5,138.8c114.8,14,230.3-25.4,204.4-147.3
	c-26.6-99.6-235-123.8-376.9-230.3c-144-96.7-177.8-331.8-59.4-466c39.5-49.7,106.7-86.7,177.3-104.6c24.5-3.1,49.2-6.4,73.7-9.5
	c141.4-2.9,229.8,34.5,294.7,106.9c18.1,18.3,32.8,38,60.4,80.8c-75.3,48-75.1,47.5-183,117.4c-23.1-49.7-61.3-80.8-101.7-94.3
	c-62.7-19-141.9,1.7-158.3,68c-5.7,20.4-4.5,39.4,4.5,73.2c25.4,58,110.7,83.2,187.3,118.3c220.3,89.4,294.7,185.1,313,299.2
	C2313,2001.9,2291.1,2065.6,2287.8,2075.1z"/>
</svg>
