<svg id="Layer_1" data-name="Layer 1" xmlns="http://www.w3.org/2000/svg" xmlns:xlink="http://www.w3.org/1999/xlink" viewBox="0 0 485.42 658.73">
  <defs>
      <style>.cls-1 {fill: #cf9183;}.cls-2 {fill: #cc827a;}.cls-3 {fill: #d18366;}.cls-4 {fill: #dfa89b;}.cls-5 {fill: #e9baa9;}.cls-6 {fill: #de9691;}.cls-7 {fill: #af6b64;}.cls-8 {fill: #af6c64;}.cls-9 {fill: #b8644e;}.cls-10 {fill: #f3d0bf;}.cls-11 {fill: #bfbfbf;}.cls-12 {fill: #2f1f21;}.cls-13 {fill: #624043;}.cls-14 {fill: #c24444;stroke: #c24444;}.cls-14, .cls-15, .cls-22, .cls-23 {stroke-miterlimit: 10;}.cls-14, .cls-15 {stroke-width: 0.64px;}.cls-15, .cls-22, .cls-23, .cls-30 {fill: none;}.cls-15, .cls-22, .cls-23 {stroke: #231f20;}.cls-16 {fill: #e6ba92;}.cls-17 {fill: #a6635d;}.cls-18 {fill: #8b6262;}.cls-19 {fill: #5f4239;}.cls-20 {fill: #f3dec9;}.cls-21 {fill: url(#linear-gradient);}.cls-22 {stroke-width: 0.69px;}.cls-23 {stroke-width: 0.61px;}.cls-24 {fill: url(#linear-gradient-2);}.cls-25 {fill: #4c3132;}.cls-26 {fill: #4b3231;}.cls-27 {fill: #d75b5b;}.cls-28 {fill: #e7696a;}.cls-29 {fill: #f48788;}.cls-31 {fill: url(#linear-gradient-3);}.cls-32 {fill: url(#linear-gradient-4);}.cls-33 {fill: #231f20;animation: trans 6s linear infinite;}
        @keyframes trans {0% {fill: #ee7752;} 25% {fill: #e73c7e;} 50% {fill: #23a6d5;} 75% {fill: #23d5ab;} 100% {fill: #ee7752;}}
      </style>
      <linearGradient id="linear-gradient" x1="315.63" y1="444.02" x2="315.84" y2="417.46" gradientTransform="translate(-43.16 28.76) rotate(-6.6)" gradientUnits="userSpaceOnUse">
      <stop offset="0" stop-color="#97cae8"/>
      <stop offset="1" stop-color="#97cae8" stop-opacity="0"/>
    </linearGradient>
    <linearGradient id="linear-gradient-2" x1="170.01" y1="415.04" x2="170.01" y2="393.82" xlink:href="#linear-gradient"/>
    <linearGradient id="linear-gradient-3" x1="174.37" y1="390.18" x2="174.37" y2="395.21" gradientTransform="translate(-43.16 28.76) rotate(-6.6)" gradientUnits="userSpaceOnUse">
      <stop offset="0" stop-color="#f8e5cf"/>
      <stop offset="1" stop-color="#f8e5cf" stop-opacity="0"/>
    </linearGradient>
    <linearGradient id="linear-gradient-4" x1="320.27" y1="415.31" x2="320.27" y2="420.34" xlink:href="#linear-gradient-3"/>
  </defs>
  <title>mehul_mobile</title>
  <path class="cls-1" d="M355.61,658.14c8.77-39.51,25.08-89.1,25.08-89.1l20.68-16.54L415.65,522l12-21.69L442,482l8-15.39.13-13.05-1.31-11.31-10.45-7-4.79-41.31-9.87-85.29-5.39-46.52L327,255l-89.5-37.77L78,269.09l4.28,111.26L93,435.88l6.55,56.62,28,87,11.87,51.84L244,642.1l71.69-7.64,13.28,19.9Z" transform="translate(-18.1 -64.45)"/>
  <path class="cls-1" d="M122.2,222.18S115.67,300,230.77,283.66,386.85,371.05,393,365.94s-31.56-109.26-31.56-109.26l-107-36.5Z" transform="translate(-18.1 -64.45)"/>
  <path class="cls-2" d="M156,240.18s30.05,54.81,90.46,41.43,130.73,47.9,130.73,47.9-4.52-92.86-47.13-102.57-101.1-30-123.69-18S156,240.18,156,240.18Z" transform="translate(-18.1 -64.45)"/>
  <path class="cls-3" d="M351.11,433.71s2.7-2.08-12.47,7.62-47.07-8.63-47.07-8.63,20.65,14.72,34.67,14.07S351.11,433.71,351.11,433.71Z" transform="translate(-18.1 -64.45)"/>
  <path class="cls-3" d="M196.33,422.62s-4.88,8.24-25.34,9.56S143.88,426,143.88,426s9.54,10.82,30.81,7.37S196.33,422.62,196.33,422.62Z" transform="translate(-18.1 -64.45)"/>
  <path class="cls-1" d="M280.9,480.68c.63,11-7.69,13.12-7.69,13.12s-.68-7.79-14.79-7.69S242.15,497,236.76,498s-12.32-7-12.32-7a19.8,19.8,0,0,0-16.88-6.29c-10.78,1.2-.12,11.23-.12,11.23-10.59-.05-14.07-15.47-14.07-15.47s-3,16.79,12.7,21.06,22.17-4.11,22.17-4.11,5.28,3.69,8.29,3.49,4.65-2.77,7.45-4.22,9.23,2.29,9.23,2.29,11.82,9.82,21.09,2.28,9.41-13.66,6.66-21.95Z" transform="translate(-18.1 -64.45)"/>
  <path class="cls-1" d="M215.84,518.57s-8,8.1-10.73,14.75-9,14.79-8.43,15.82,10.77-10.42,16.41-11.51,17.1-.68,21.87,1,20.87-.73,24.56-2.84,13.57,4.11,19.73,6.46,19.12,1.06,19.12,1.06-9.51-6.65-11.56-7.45-17.08-17.39-17.08-17.39l-22.79-.86-8.84,4.74Z" transform="translate(-18.1 -64.45)"/>
  <path class="cls-4" d="M285.62,429.38c-3.46-1.57-4.95-6-10.58-7.57s-7.44,9.66-7.44,9.66a42.6,42.6,0,0,1-3.93-15.59c-.46-8.79,4.83-9.63,4.83-9.63S231,366,318.54,356c0,0,39.25,9.58,43,16.58,0,0,2.91,2.51,3.21,5.09,0,0-48.92-1.21-65.95,12.88,0,0,15.6-6.66,29.08-3.31s28.3,6.86,32.37,13.73,17.6,13.49,22.26,11.32c0,0-7.14,9-15.52,7.36s-18.91-12.19-24.84-16.58c0,0,15.85,19.26,19.45,20.81s11.29,4.25,13.55,4c0,0-15-2.51-21.74-1.08,0,0-22.54,6.86-28.06,6.85s-19.71,1.84-26.51-3.15c0,0,19,15.22,32.7,10.94S353.48,433,354,431.94c0,0-13.84,18.42-34.17,15.64S277.42,429.24,279.12,427Z" transform="translate(-18.1 -64.45)"/>
  <path class="cls-4" d="M207.8,416.82a4.33,4.33,0,0,1,4.52-4.55c4.16.09,10.53-.08,11.83-2,2-2.84,3.32-27.88-10.27-37.77S177.35,351.12,163,354.31s-50.61,18.19-52.72,33.82c0,0,28-16,52.4-11.15,0,0,11.51,1.3,12.86,3.59,0,0-22.78-1.61-29.52,2.44s-12.39,6.1-14.49,13.34c0,0-5.13,15.12-13.78,16.78,0,0,8.63,3.15,20.22-10.91,0,0-8.48,16.1-15,16.85,0,0,11.37-3.61,17.85-1.41s33.28,4.65,42.82,2.24,16.33-3.16,18.59-.66c0,0-20,11.92-34.64,11.69a51.16,51.16,0,0,1-25.85-8.12s7,12,19.1,12.22,21.16.12,26.36-.81,14.91-4.67,18.67-6.09,9.89.54,9.89.54-5-9.25-7.07-10.17A1.89,1.89,0,0,1,207.8,416.82Z" transform="translate(-18.1 -64.45)"/>
  <path class="cls-5" d="M277.31,470.8c-6.23-8.64-14.35-24.07-15.48-28.09S255,425,252.1,419s-5.79-14.18-17-13.31c0,0-8.68.52-12,11.18s-11.82,33.71-14.61,38-18.36,16.9-14.48,27.83,11.95,15.24,14.41,14.31c0,0-8.82-7.92-3.2-10.11s18.63,6.25,18.63,6.25,8.19,6.8,11.21,6.45,14.13-8.18,15.19-8.3,9.29-4.59,14.63,0,7.65,6.32,10.21,4.49,6.49-7.94,6.05-9.32S283.54,479.41,277.31,470.8Zm-1.58,18.44a15.09,15.09,0,0,1-1.2,1.34,4.85,4.85,0,0,0-.22-1.18c-1-3.5-13.7-12-26.7-1.83s-15.27,5.72-19,2.2-6.79-6-19.39-7.35-6.62,8.84-6.62,8.84-4-2.81-5-11.24,9.86-20.53,12.85-24.8,9.3-21.39,12.68-33.78,10.76-14.56,10.76-14.56,10.42-.33,13.85,8.43S258.14,441,258.49,444s7.5,20.52,11.19,24.48S279.72,482.06,275.73,489.24Z" transform="translate(-18.1 -64.45)"/>
  <path class="cls-6" d="M175.74,552s14.45,9.71,18.71,9.4S207.83,571,207.83,571l48.92,9,13.15-4.42,19-17.2s3.85-8-1.35-11.68.83-11.16.83-11.16S299,546.24,303,547.61s13.43,12.11,11.91,14-12.42,3-17.81,7.87-26.79,14.09-31.37,16-47.21-.54-52.55-1.45-14.25-13.71-18.74-14.79-18.05-9.81-19-11.3S175.74,552,175.74,552Z" transform="translate(-18.1 -64.45)"/>
  <path class="cls-2" d="M402.28,406.58s-2.93,68.2-15,83c0,0-8.53,11.21-15.44,10.89,0,0,8.4,2.28,13-2.4,0,0-11.42,25.52-25.13,30.17s-3.47,6.25-3.47,6.25l33.85-2,17.58-39.7Z" transform="translate(-18.1 -64.45)"/>
  <path class="cls-7" d="M292.84,404.1s-.87,1-4.57,6.53-10.32,10.47-3.24,8,20.19,3.25,37.84,7.3,26.32-3.1,29.08-3.37,13.26,2.83,13.26,2.83c-9.66-2.81-20.92-18-33.6-25.79s-31.89,2.53-31.89,2.53c13-11.28,40-5.66,48.81,3.62a50.88,50.88,0,0,0,18.3,12.51c-4-2.39-7.29-9-7.29-9s-4.63-7.74-8.5-10.08-19.23-7.76-36.91-8-21.25,7.66-22.3,8.51-2.78-1.42-2.78-1.42c5.74-19.31,68.08-25.19,68.08-25.19-46.18-28.67-80.68-1.9-86.56.07-4.59,1.54-6.67,14.43-7.35,20a2.08,2.08,0,0,0,2.25,2.34c3.26-.31,8.94-1,12.52-2.61a.55.55,0,0,1,.72.76c-1.87,3.49-5.87,11.8-4.78,16.85C275.34,417,292.84,404.1,292.84,404.1Z" transform="translate(-18.1 -64.45)"/>
  <path class="cls-8" d="M213.13,391.48s6-27.42-34.08-31.5-62.54,11.38-64.59,18.17c0,0-3.17,8.44-2.86,9.28s15.5-13.65,15.5-13.65,58.8-6.37,70.47,19.05c0,0-.88,2.43-1.89,1.54s-10.27-16.8-36.88-10.66-22,12.15-26.17,19.4-9.25,8.71-9.25,8.71,9.59-.1,16.81-13.12,41.16-11.16,46.9-.69c0,0-24.9-12.58-36-4.05s-15.24,19.91-21.17,21.47c0,0,6.23-2.75,12.2-.13S169,419,179.4,417.79s11.68-4.84,14.19-4.27,9.93,1.3,10.93-.21a76.2,76.2,0,0,1-10.23-6.7s10.45,2.93,14.81.93S213.13,391.48,213.13,391.48Z" transform="translate(-18.1 -64.45)"/>
  <path class="cls-5" d="M230.84,516.83S208,519.18,212.49,529.6s11.68,6.75,11.68,6.75,11.23-.15,15.55.63,15.34-.25,17.64-2,18.3-1.38,16.5-4.93-16.25-12.16-20.53-7.62-7.32,9.35-13.67,5.66S230.84,516.83,230.84,516.83Z" transform="translate(-18.1 -64.45)"/>
  <path class="cls-9" d="M448,448.19c0-2.21-2.19-4-6.2-6.44s-12.35,6.44-12.35,6.44-2,5.47,3.46.69,7.8-6.64,11.15-2.7S448,448.19,448,448.19Z" transform="translate(-18.1 -64.45)"/>
  <path class="cls-5" d="M359.27,353c-10-7.24-87.91-1.5-100.31,3.43s-16.65,27-16.65,27c-5.17-1.77-11-.39-11-.39l1.93-21.51-5,17.74s-19.73-16.86-30.28-23.13S157.07,344.62,141.64,343a65.18,65.18,0,0,0-27.69,3.2c2.34-41.19,19.82-70.83,19.82-70.83s52.37,18.71,71.37,17,91.52,3.37,100.27,5S359.27,353,359.27,353Z" transform="translate(-18.1 -64.45)"/>
  <path class="cls-5" d="M340.49,590.22c8-12.42,9.5-60.81,9.5-60.81,5.43-17,33.81-40.79,33.81-40.79s6.53-18.22,8.94-24.86,5-46.16,3.3-54.37-7.53-28.7-7.53-28.7-4.45,28-6.38,35.81-13.38,19-13.38,19C352.3,456.26,291,436.93,291,436.93c5.91,12.39,41.51,21,41.51,21-18.84,7.91-70.64-15.24-66.83-16.33s19.78,31.33,23.09,42-14.84,21.24-14.84,21.24,12,9.53,23.16,17.18c0,0,28.7,33.45,23.61,43.16s-16,10.75-22.69,14.41S264,592,264,592s1.21,12.24,8.14,12.42S331.81,603.75,340.49,590.22Z" transform="translate(-18.1 -64.45)"/>
  <path class="cls-5" d="M259.65,481.17c-6.59,1.33-14.18,8-25.32,9.31-3.13.37-9.55-5.93-18.09-10s-16.37,1.89-16.37,1.89c.23-1.77.69-5.75.69-5.75,3.68-19.63,14.76-13.5,20-36.83s12.95-30,12.95-30,6.9-4.62,10.63,4.59,15,45.22,18.88,48.92,12.65,12.09,11,22.58C274,485.9,267.28,479.63,259.65,481.17Z" transform="translate(-18.1 -64.45)"/>
  <path class="cls-10" d="M223.46,473.29c4.12,2.53,11.91,9.95,15.24,8.58s9.55-8.15,13-8.19,8.68,2.45,10,2.3c1.09-.13.29-3.31-3.92-7.4a22.83,22.83,0,0,1-5.52-8.17c-2.88-7.51-7.78-20.93-8.9-27.84-.95-5.91-3.08-8.91-4.65-10.36a2.31,2.31,0,0,0-3.29.14,33.09,33.09,0,0,0-6.66,11.91c-3,9.17-2.28,16.8-10.1,25.43,0,0-7.62,8.8-7.12,13.13S218.37,470.17,223.46,473.29Z" transform="translate(-18.1 -64.45)"/>
  <path class="cls-10" d="M388.73,415.73s-15.22,42.11-60.62,35.08c0,0,28.74,7.75,22.06,53.8,0,0,12.64-18.91,22.2-25.64S388.73,415.73,388.73,415.73Z" transform="translate(-18.1 -64.45)"/>
  <path class="cls-2" d="M126.72,544.3c7.07-3.76,18.73-16.79,11.81-17.86S119.29,509,119.29,509c-10.83-18.14-16.2-90.42-16.2-90.42s-17.68,28.38-9,56.21S121.61,547,126.72,544.3Z" transform="translate(-18.1 -64.45)"/>
  <path class="cls-5" d="M112.05,424s45.68,19.63,62.42,17.69,27.61-7.12,31.66-3.66c0,0,5.49,9.22-6.57,27.08s-17.28,25.38,1.08,40c0,0,.25,13.92-6.53,16s-39.27,26.1-38,35.68,23.17,12,30.73,12.28,18.8,20,23,19.76,5.42,19.09-1.95,20.69-48.46-3.24-56.12-22.21-1.24-56.64-11.8-69-22.65-18-26-41.41S112.05,424,112.05,424Z" transform="translate(-18.1 -64.45)"/>
  <path class="cls-10" d="M177.39,523c-4.15,12.63-23.34,23.88-23.34,23.88,3-6.21-6.72-30-11.38-38.66S123,494.81,116.43,477.51,118.06,429,118.06,429s48.45,25.25,73.22,16.55c0,0-26.61,10.95-24.79,26.18S183.61,504.14,177.39,523Z" transform="translate(-18.1 -64.45)"/>
  <path class="cls-10" d="M153.19,569.41s4.31,33.1,39.8,36.32,7.67-17.11,7.67-17.11-27.6-1.39-30.66-8.46S153.19,569.41,153.19,569.41Z" transform="translate(-18.1 -64.45)"/>
  <path class="cls-10" d="M340.42,557.11s-22.49,31-41.25,32.84-29,6.45-22.72,8.61,46.37-3.9,53-6.14S340.42,557.11,340.42,557.11Z" transform="translate(-18.1 -64.45)"/>
  <path class="cls-10" d="M222,362.81C137.5,323,119.12,339.09,119.12,339.09c-1.6-25.82,16.68-57.65,16.68-57.65s41.08,18.82,89.41,16.44c34.61-1.71,47.81,2.85,47.81,2.85L292.21,339s-46.67,1-51.13,30.37c0,0-5-14.1-12.61-15.14a4.59,4.59,0,0,0-4.84,3.32Z" transform="translate(-18.1 -64.45)"/>
  <path class="cls-1" d="M82.38,424.6s-11.2,5.77-10.8,9.29,3,18.36,7.28,23.25,10,18.22,10,18.22l5.78-10.23-1.55-13.35Z" transform="translate(-18.1 -64.45)"/>
  <polygon class="cls-11" points="165.18 334 161.88 349.88 172.03 347.06 179.56 347.04 178.57 344.12 173.02 339.53 165.18 334"/>
  <path class="cls-11" d="M162.09,392.68l-12.53,4.94-5.75,7.8-3.1,5.27,7.79,4.12,5.36.16s4.43-.42,6.22,0,6.08,2.51,12.43.72S162.09,392.68,162.09,392.68Z" transform="translate(-18.1 -64.45)"/>
  <polygon class="cls-11" points="289.52 337.94 279.24 344.58 273.48 348.52 276.22 352.39 283.39 354.91 287.83 356.58 295.8 359.23 295.64 352.37 292.68 339 289.52 337.94"/>
  <path class="cls-5" d="M428.36,439.21l-9.11,25.34-8.22,30-5,24.8,7.46,7.82,8.65-15.74,15.45-22.08,10.07-16.23s3-27.85.87-30.71S428.36,439.21,428.36,439.21Z" transform="translate(-18.1 -64.45)"/>
  <path class="cls-12" d="M346.53,359.79s1.57-3.45-2.38-7.36c0,0,11.41,2.39,17.87,16.7a15.94,15.94,0,0,0-1-8.4s24.72,34.46,12.88,35.83c0,0-5.64,2.18-8-4.79s-24-13.33-24-13.33c1-.55,6.37.36,6.37.36-13.53-5.64-39.83-1.94-39.83-1.94,2.54.14,8.32,1.33,8.32,1.33-19.59.41-22.81,8.42-22.81,8.42s-18.46,4.54-29.18,6.27-22.1-6.11-22.1-6.11c2,2.27,9.39,1.86,9.39,1.86s-9.85-5.85-8.75-11.43c0,0,3.63,8.74,8.37,8.19,0,0-7.77-8.7-6.41-13.88,0,0,4.63,11.69,7.95,10.21,0,0,1-6.44-2.87-9.7a28,28,0,0,1,6.82,4.23s2.85-5.57-1.12-9.7c0,0,5.11,2.69,5.46,5.7,0,0,3.09-5.38,2.13-9.85,0,0,4.84,9.7,3.36,12.05,0,0,7.35-12,4.48-16,0,0,5.48,11.81,2.23,15.67,0,0,12.21-15.38,29.23-15.39,0,0-7.59-1.52-10.15-1,0,0,18.73-2.17,28.07,3.08,0,0,.08-4.6-5.36-6.58S339.73,353.81,346.53,359.79Z" transform="translate(-18.1 -64.45)"/>
  <path class="cls-12" d="M201.94,366.49s.76-6.63-1.27-11c0,0,4.29,6.92,5.83,12.64,0,0,2.28-4.85,2.28-8.56,0,0,3.21,10.76,1.62,14,0,0,7.77-2.65,8.29-5.76,0,0-2.11,6.35-4.43,7.06,0,0,8.83-1,12.15-4.46,0,0,.56,3-9,6.72,0,0,7.43,0,13.21-2.84,0,0-4.32,4.21-12.53,4.94,0,0,12.15,1.22,17-2,0,0-1.64,2.81-12.28,5.14-3.06.66,12.65-1.91,12.65-1.91-.92,1.42-9.48,4.81-9.48,4.81,3.09.3,9.75-2.51,9.75-2.51-2.35,2.38-10.12,5-10.12,5,2.95,1,8.16-1.17,8.16-1.17-5.51,5.22-27.14,3.15-27.14,3.15-2.37-5.41-20.14-11.86-20.14-11.86,1.21-.8,4.88.74,4.88.74-14.59-12.93-39.17-10.3-39.17-10.3,1.15.52,4.67,4.48,4.67,4.48-4.67-4.48-13.79-4.08-13.79-4.08,2.15-.25,7.2,3.75,7.2,3.75-7.2-3.75-14.7-.7-14.7-.7,5.31-1.27,9.47,2.61,9.47,2.61-6.32-3.63-14.58.38-14.58.38,5.55-1.08,7,2.24,7,2.24-8.91-5.29-14.07,6.65-14.07,6.65l-8.38-.77s2.57-13.61,8.42-21.49c0,0-1.68,4.34-1.24,6.25,0,0,9.84-20.56,19.63-22.79,0,0-5.21,4.1-5.39,6.3,0,0,9.5-6.56,15.16-4.81,0,0-7.17,2.14-7,3.65,0,0,13-3.26,17-.88,0,0-8.91.6-8.88,2.78,0,0,18.9-8.3,44,10.19,0,0-.06-2.4-3.18-4.87C193.45,357.22,197.93,358.23,201.94,366.49Z" transform="translate(-18.1 -64.45)"/>
  <path class="cls-12" d="M450,441c-4.64-19.32-24.87-7.38-24.87-7.38s-3.62,8.28-2.82,15.17,13.36-10.93,17.39-8.12,10.09,6,7.85,20.7-12.82,25.93-12.82,25.93-23.59,32.3-28.7,32.07c-2.82-.12-2.36,5.53-.4,10-3.5,8.44-8.56,22.32-4.27,23.07,6.18,1.09,15.66-1.81,18.75-14.77,1-4.33.05-7.39-1.69-9.57,1-9,14.17-30.13,14.17-30.13,11.41-12.67,16-21.64,16-21.64C451.57,475.25,454.65,460.34,450,441Z" transform="translate(-18.1 -64.45)"/>
  <path class="cls-12" d="M75.3,422.63s-9.79,3.09-2.59,25.67,17.73,33,17.73,33l9.44,30.66L96,523.85s-5.81,2.15-2.63,9.8,8.18,1.34,8.18,1.34L105,502,94.6,472l-4.8-.43s-8.58-10.46-11.18-18.84-5.76-21.43,0-22.27S75.3,422.63,75.3,422.63Z" transform="translate(-18.1 -64.45)"/>
  <path class="cls-13" d="M427.54,456.16c6.92-2.43,9.83-8.34,11.82-5.29s3.2,12.87-4.68,27.13c0,0-22.8,39-21.27,22s7.47-43,7.47-43Z" transform="translate(-18.1 -64.45)"/>
  <path class="cls-14" d="M300.91,559.37a.4.4,0,0,0,.16-.77,73.56,73.56,0,0,1-12-6c-6.72-4.3-17.85-14.14-22.5-17.53s-9.88-2-14.11,1.14-11.89,3.34-15,3.54-9.24-2-13.33-3.37-12.3,2.57-12.3,2.57-9.56,8-14.67,13.32a81.56,81.56,0,0,1-10.33,8.85.6.6,0,0,0,.35,1.09,44.58,44.58,0,0,0,10.54-.84c4.94-1.22,14.11-5.4,24.38-5.77s20.24-.54,20.24-.54,12.85-.67,14.87-.25,10.14,0,14.75,1.57,16.32,3.84,19.53,3.3A69.92,69.92,0,0,1,300.91,559.37Z" transform="translate(-18.1 -64.45)"/>
  <path class="cls-14" d="M186.3,562.67s7.82-1.72,10.66-1.23,9.45-3.23,12.35-3.56,17.62-3.35,23.26-2.7a121.85,121.85,0,0,0,20.29-.07c4.21-.47,21.8,1.59,25.27,3.31s20.57.9,20.57.9-.39.86-2.62,1.44-5.62-.49-9.5,4.21a58.84,58.84,0,0,1-18,15.51c-9.67,5.54-19.3.11-25.1.94s-18.19,4.08-25.45-.65-8.74-7.66-15.08-11.51-9.71-6.08-12.76-5.57S186.3,562.67,186.3,562.67Z" transform="translate(-18.1 -64.45)"/>
  <path class="cls-15" d="M275.93,608.66" transform="translate(-18.1 -64.45)"/>
  <path class="cls-15" d="M161.32,602.83" transform="translate(-18.1 -64.45)"/>
  <polygon class="cls-16" points="404.9 410.46 397.58 416.55 397.33 422.36 400.15 423.67 406.15 417.52 408.57 411.57 404.9 410.46"/>
  <path class="cls-17" d="M437.18,461.31c1.85,13.87-14.1,25.92-14.1,25.92,5.58-4.37,10.43-24.43,9.2-23.71s-4.7-1.75-4.7-1.75,3.5-2.94,4.78-2.52S437.18,461.31,437.18,461.31Z" transform="translate(-18.1 -64.45)"/>
  <path class="cls-10" d="M424.93,485.5c9.38-6.66,12.62-22,13.17-25.76S437,453,435.43,454.6s-7.72,4-7.72,4,2.05,3.6,6.23,1c0,0,3.28,9.33-9.68,26.55" transform="translate(-18.1 -64.45)"/>
  <path class="cls-18" d="M427.1,444.32s-10.18,7.93-8.21,10.76S437,443,438.12,443s7.31,1,8.52,5.74-.73-13.2-8.15-11.68A19.64,19.64,0,0,0,427.1,444.32Z" transform="translate(-18.1 -64.45)"/>
  <path class="cls-5" d="M86.42,433.4s-9.9,1.45-4.75,14.82,13.06,18.89,13.06,18.89S100.91,439.5,86.42,433.4Z" transform="translate(-18.1 -64.45)"/>
  <path class="cls-12" d="M385.47,632.48s-13.11,24.38-26.84,30.23l10.07-3c-5.75,7.76-23.06,11-23.06,11-7.28,8.7-24.89,22.52-24.89,22.52,3.88-.45,12.24-3.6,12.24-3.6-6.44,4.68-25.54,10.82-25.54,10.82-5.84,7.66-27.22,12.32-27.22,12.32,2.11-.68,7.5-14.4,7.5-14.4-9,16.75-36.72,24.76-36.72,24.76-3.26.82-20.1-10.33-20.1-10.33-17.37-1-39.5-21.18-39.5-21.18-3.52,3,16.07,18.17,16.07,18.17s-26.91-9.49-37-21-27.42-25.64-27.42-25.64c-1.57,1.5,7.58,12.66,7.58,12.66-8.78-4.22-28.62-35.1-28.62-35.1-6.68-4.9-10.11-17.55-10.11-17.55-4.35-17.83-4.79-41.36-4.79-41.36-1.94,3-2.4,13.22-2.4,13.22-4.89-16.79-10-88.88-10-88.88.12,2.44-1.88,9.38-1.88,9.38,1.2-3.57-2.69-30.46-2.69-30.46-1.1.9-1,10.1-1,10.1-1.75-6.68-1.14-21-1.14-21C91.23,464.49,89.4,442,89.4,442a11.74,11.74,0,0,1-2,6.12c3.47-8.26-9.72-23.39-10.76-20.85A49.37,49.37,0,0,1,73,433.7c1.51-3.94,1.61-32.24,1.61-32.24l17.58-9.83L104.32,398l-1.42,24s-6.52,20.07-1.67,47.83c0,0-1.11-11,.72-12.2,0,0-.85,22.36,10.32,60.85,0,0,5,10.72,10.78,9.72,0,0-5.27,1.1-6.91-.35,0,0,3.52,5,12.31,6s9.48-.13,9.48-.13-5.42,4.07-1.71,14.93c0,0,2.47-1.29,2.27-3,0,0,1.55,9.08,1,15.37a8,8,0,0,0,2.11-5.81s4.24,15.38,2.38,20.51c0,0,1.5,1.63,3.3-1.2,0,0,.74,9.24-.72,10.72s4.49,9.14,6.35,6.8c0,0,0,4.58-1.47,5.73,0,0,4.95,6,7.76-.89,0,0,.54,11.72,5,16.22,0,0,10.61-6.35,11.92-12,0,0,.55,6.65-1,8.36a10.31,10.31,0,0,0,5.3-3.23s2.18,5.64,0,7.42c0,0,6.9,1.16,9.06-2.8,0,0,2.35,5.19-1.62,6.74,0,0,9-2.14,9.53-6.29,0,0,0,5.41,3.56,5.32s11.53-5.1,13.94-11.11c0,0-1.4,4.9,1.33,4.43s9.9-3.6,6.08-6.92c0,0,3.75-.11,3.54-1.89,0,0,.05-2.46-4.24-4.09,0,0,4.77,1.88,4.24-.22-1.16-4.54-1.94-4.47-1.94-4.47,2.44,1.25,2.12,2.27,2.12,2.27.62-4-2.84-4.69-7-6.88a29.19,29.19,0,0,1-5.77-3.65s4.8,1.85,7.33,1.12,9.41,4,10.9,3.66c0,0-5.2-3.47-6-4.66a52.77,52.77,0,0,0,10,1.63,28.76,28.76,0,0,1,5.89-2.84s-2.82,1.27-2.41,1.83,4.28-1.7,7.7-1.88c0,0-2.67,1-2.25,1.85,0,0,4.86-2.34,9.16-1.05,0,0-4.22.31-3.58,1.11,0,0,4.25-.93,7.31,0s7.13-1.58,7.13-1.58a10.6,10.6,0,0,1-6.88,2.76s-5.18,2.45-4.92,5.59c0,0,1.8-2.39,4-2.43,0,0-4.29,2.46-4,6.14,0,0-1,2.41,2.22,5s6.16,2.34,7.61,1.63a8.49,8.49,0,0,1-3.77,2.4s10.95,8.77,13.77,1c0,0,2.17,9.36-.19,11.59,0,0,5.35-2.8,6.22-6.61a5.62,5.62,0,0,1,.76,4.71s6.08-5.94,5.09-8.88c0,0,4.44,8.22,2.27,10.22,0,0,3.61-2.71,5.43-9.64a11.3,11.3,0,0,1,2,8.12s11.53-7.89,10.82-12.17c0,0,2.55,8.87.39,12.83,0,0,11.84-9,8.92-15.33,0,0,4.66,6.29,7.51.72s-1.05-9.05-1.05-9.05a9.93,9.93,0,0,1,4.92,8.6s5.41-.41,8.15-8.8c0,0,.67,10.49,4,8.7,7-3.78,11.15-29.72,11.15-29.72-1.22,3.42-7,10.31-7,10.31,5-7.78,13.08-34.25,13.08-34.25-1.88,3.49-6.05,7.07-6.05,7.07,3.72-7.48,3.4-21.5,3.4-21.5,5.15,2,14.22-1.65,14.22-1.65a33.5,33.5,0,0,1-8-4,30.59,30.59,0,0,0,19.95-.18c-3.54.57-8.81-5.37-8.81-5.37,4.33,3.43,12.53,2.48,12.53,2.48,7.07-5.08,13.64-30.94,13.64-30.94C389,508,384.52,506,384.52,506c8.65-1.66,22-58.86,22-58.86-.41,5-7.18,12.94-7.18,12.94,6.43-10.89,2.92-49.73,2.92-49.73A84.58,84.58,0,0,0,400,419c.37-19.42-8.58-40.2-13.67-48.82s-9.27-27.69-9.27-27.69l-.07-.65c.07.65.18,13.08.18,13.08-3.07-6.52-2-28.91-2-28.91-12,.19-29.32-17.67-29.32-17.67-2.67,3.37,6.1,12.18,6.1,12.18-16.85-1.33-22.13-24.29-22.13-24.29-5.6-14.41-40.12-24.16-40.12-24.16-6.07,7.9,19.12,24,19.12,24-31.29-6.2-46.22-28-46.22-28-7.18,5.85-24.43,3.92-24.43,3.92,4-.9,5.69-7.42,5.69-7.42-27.2,10.13-60.37-4.86-60.37-4.86,8.38,10.16,26.75,16.33,26.75,16.33-36.63,8.17-75-14.18-75-14.18-41.81,46.09-25.6,95.62-25.6,95.62l5.21-4c-7.29,8.7-11.87,33.24-11.87,33.24L74.22,428.39A13.71,13.71,0,0,0,69,415.55c-6.73-5.39-12-9.06-8.62-27.39s-31.09-27.22-41.33-72.3c0,0-4.36-20.67,5.39-40.13A45.63,45.63,0,0,1,23,240.11s10.21-19.52,21.64-24.34c0,0-14.44,1.68-18.3,6,0,0-.68-13.45,10.47-26.53,0,0-6.62-23.24,5.58-34.7,0,0,11.72-12.27,36.21-4.19,0,0,12.46-39.86,58.34-20.29,0,0,15.28-46.73,38.09-52.42,0,0-10.72,13.9-1.62,24.63,0,0,10.92-41.43,32-43.87,0,0-10.78,20,3.74,32.31,0,0,34-7.87,37.71-24.89,0,0,4.13,13.06-3.78,20.09,0,0,28.43-33.42,52.38-22.66s27.28,16.93,27.28,16.93,26.84,5.62,34,18.32c0,0,51.32,17.2,65,52.28,0,0-.58,10.11,10,15s21.35,29.84,21.35,29.84c4.71,2.94,45.7,2.56,47.78,28.08,0,0-4-15.69-27.56-15.58s9.59,3.69,13.76,24.6,23.71,31.3,13.59,49.5c0,0,2.5-8.59-7.61-20.51,0,0-6.39-2.4,2.1,37,0,0-.08,25.67-8.71,34,0,0,6-19.95,2.65-26.11,0,0-3.66,25-13,27.31,0,0-1.27,7.87,1,19.66s-11.31,11.61-18.31,41.67c0,0-2.6,30.33-16.68,33.1s-11,3.28-11,3.28-.72,26.27-5,33.32c0,0,1.16-.1-1.3-11.18,0,0-2.06,26.84-8.42,37.62,0,0-2.15,10.29-5,10.95,0,0-2.94,42.9-9.3,61.32,0,0-4,27.63-6,32.45,0,0-.09-9.26-1.14-9.9,0,0-1.41,8.06-3.23,17a2.08,2.08,0,0,0,1.9-.92,14.35,14.35,0,0,1-4.11,9.07s2,1.69,4.49-1.83c0,0-2.91,8.73-9.94,12,0,0,1.69,4.06,6.15.8A7.7,7.7,0,0,1,385.47,632.48Z" transform="translate(-18.1 -64.45)"/>
  <path class="cls-19" d="M332.16,426.87c-.64,0-1,0-1,0A3.59,3.59,0,0,0,332.16,426.87Z" transform="translate(-18.1 -64.45)"/>
  <path class="cls-12" d="M314.69,557.1a10.54,10.54,0,0,1-7-3.24c.53,8.34-1.82,8.83-1.82,8.83,1.48-1.37.12-7.44.12-7.44-1.2-6.62-12.24-7.73-12.24-7.73a4.05,4.05,0,0,0,4,3.23c-3.4,1.82-7.88-3.89-10.74-6a89.26,89.26,0,0,0-8.67-5.16c.62,2.55,4.65,4.37,4.65,4.37-3.15.15-10.89-6.38-13.71-10s-9.86-5.08-9.86-5.08a49.07,49.07,0,0,0,5.68,3.82c-3.37-1.79-10.46-3.59-14.12-1.26s-10.45,3-10.45,3-7.76-.08-12.94-2.43-13.46,2.54-14.35,4.28a13.1,13.1,0,0,1,2.83-3.82s-3.81,2-4.79,3.83-5.79,6.56-10.36,9.49c0,0,4.2-4.19,4.45-5.86a22.5,22.5,0,0,0-9,6.39c-2.85,3.6-5.07,2.17-7.21,5.13-4.48,6.18-1.41-1.9-1.41-1.9-3.78,2.73-6.93,12.26-6.93,12.26a5.31,5.31,0,0,1,.39-3.64s-5.6,3.92-2.56,13.23c0,0-5.34-6.59-5.24-11.35l-1.62,1.57c-1.59,3.21,0,4.35,0,4.35a13.94,13.94,0,0,1-2.43-4.07c-1.44,1.72-.16,7.15-.16,7.15-3.58-2.69-4.47-13.23-4.47-13.23-3.17,2.33-2.67,9.47-2.67,9.47-3-13.07,9.13-23.41,9.13-23.41a6,6,0,0,0-4.42.51,23.62,23.62,0,0,1,9.26-4.85s-1.55-2.11-3.19-1.16c0,0,2.36-2.24,9.91-4.42s-3.09-1.72-3.65-.89c0,0,1.84-2.07,7.82-3.19a51.87,51.87,0,0,0,9.31-3.92,22.75,22.75,0,0,0,6.24-6c1-1.87-3.44.4-3.44.4-.17-1.4,8.78-5.17,8.78-5.17-1.83-.77-4,.46-4,.46,1.1-2.74,6-3.09,6-3.09,7.84-.14,9.31-4.46,9.31-4.46-1.59-.47-4.22,2.24-4.22,2.24.82-4.25,10.63-6.18,10.63-6.18a9.08,9.08,0,0,1,6,2.51s-2-.64-2.48.28c0,0,5.27,3.11,6.84,2.49,0,0,6,.17,7.25-1.5,0,0-2.07.35-3-.2,0,0,3.13-.47,4.68-2.17s4.58-1,4.58-1l-.43,0s13.16,1,17.24,5l0,0,0,0c-.37-.11-3.81-1.27-5.36-.45a12.35,12.35,0,0,0,5.61,2.4c2.81.29,10,1.81,10.95,2,.06,0,.08,0,.08,0h-.08c-.88-.08-8.41-.64-10,1.19,0,0,10.57-.15,14.54,3.31,0,0,.05,0,.05,0l-.05,0c-.79-.19-8.72-2-8.95-.47,0,0,11.48,1.28,14.81,4.59l0,0,0,0c-.45-.15-4.82-1.77-7.36-.43,0,0,8.48,1.64,12.44,5.54s13.78,4.07,16.87,8.1c0,0-4.66-3-7.47-2.42l9.31,5.26v0A13.43,13.43,0,0,1,315,551.15c.26-4.39-5-7.49-5-7.49s-1.68,9.18,3.46,12.56Z" transform="translate(-18.1 -64.45)"/>
  <path class="cls-20" d="M304.8,417.87c.27,1.29-6.71-2.38-7.9-3.23s2.52-2.68,4.51-3.43a10.07,10.07,0,0,0,3.53-2.51S303.56,411.9,304.8,417.87Z" transform="translate(-18.1 -64.45)"/>
  <path class="cls-20" d="M159.68,413a17.87,17.87,0,0,1-2.59-.94c-1-.5-4.53.11-4.53.11s-6.26.57-6.15-3.51S156.66,398,156.66,398,153,407,159.68,413Z" transform="translate(-18.1 -64.45)"/>
  <path class="cls-20" d="M192.83,408.47c1.39.51-5.92-4-5.92-4s0,3.68-1.63,5.47a.18.18,0,0,0,.18.31C187.49,409.65,192.3,408.28,192.83,408.47Z" transform="translate(-18.1 -64.45)"/>
  <path class="cls-12" d="M312.85,427.1s14,4,23.44,1.65C336.29,428.75,324,436.61,312.85,427.1Z" transform="translate(-18.1 -64.45)"/>
  <path class="cls-11" d="M331.06,403l9.64,6.41,7.77,6.74,3.86,3.23L348.6,421l-7.38,3.07s-6.29,5.42-19.85,1.18C309,421.39,331.06,403,331.06,403Z" transform="translate(-18.1 -64.45)"/>
  <path class="cls-12" d="M302.52,420.76c-5.71-2.56-10.7-3.78-15.64-3.06s-4.41-1.38-4.41-1.38a128.62,128.62,0,0,0,15.64-12c7.09-6.47,22.51-11.2,39.86.39a22.3,22.3,0,0,1,3.87,3.39,93.05,93.05,0,0,0,22.23,17.39c-6.67-2.5-10.92-4.61-10.92-4.61a13.18,13.18,0,0,0-6.73,2,29.35,29.35,0,0,1-14.26,4c2-.1,7.35-1.18,18.28-7.72a115.5,115.5,0,0,1-11.39-8.95c-15.59-12.16-28.45-8.27-32.63-4.73a47.07,47.07,0,0,1-10.12,6.85c-4.11,2.22.71,4.21.71,4.21a102.54,102.54,0,0,1,13.1,5.76,39.69,39.69,0,0,0,12,3S313.63,425.75,302.52,420.76Z" transform="translate(-18.1 -64.45)"/>
  <path class="cls-12" d="M312.61,423.26a0,0,0,0,0,0,0,12.82,12.82,0,0,1-3-19.65c10.81-7.38,19.87.85,19.87.85A12.86,12.86,0,0,1,320.63,425c-.3,0-.66,0-1,.06h-.05" transform="translate(-18.1 -64.45)"/>
  <path class="cls-21" d="M325,402.9s4.61,4.6,5,8a11,11,0,1,1-15.52-8.67A21.78,21.78,0,0,1,325,402.9Z" transform="translate(-18.1 -64.45)"/>
  <circle class="cls-12" cx="300.68" cy="348.28" r="4.09"/>
  <path class="cls-20" d="M333.77,409s1.73,10.92-6.31,14.45a20.49,20.49,0,0,0,17.7-4.43,38.27,38.27,0,0,1-5-4.48C339,413,333.77,409,333.77,409Z" transform="translate(-18.1 -64.45)"/>
  <path class="cls-19" d="M312.59,423.24s4,1.84,7.08,1.8" transform="translate(-18.1 -64.45)"/>
  <g>
    <path class="cls-12" d="M359.17,414.31c4.54,3.22-7.92-11.85-10.3-14s-21.28-8.5-37.3-8.28-25,13.2-25,13.2,9.15-7.28,13.23-8.73,16.73-4,25.55-1.35,18.95,5.37,20.59,6.73S355.07,411.41,359.17,414.31Z" transform="translate(-18.1 -64.45)"/>
    <path class="cls-12" d="M202.11,400.91c-3.5-1.81-5.83-5.06-17.06-10.14s-29.56-2.31-37.19-.28-13.74,14.2-13.74,14.2.25-3.53,4.17-9.22,6.92-7.13,11.41-8,20.85-3.61,30.55-1.46,10.61,4.47,13.25,6.5S203.43,401.59,202.11,400.91Z" transform="translate(-18.1 -64.45)"/>
  </g>
  <path class="cls-22" d="M175,416.57h0" transform="translate(-18.1 -64.45)"/>
  <path class="cls-22" d="M167.17,416.33a.14.14,0,0,0-.11,0" transform="translate(-18.1 -64.45)"/>
  <path class="cls-12" d="M150.32,417.93s15.39,2.83,24.89.12C175.21,418.05,161.14,426.57,150.32,417.93Z" transform="translate(-18.1 -64.45)"/>
  <path class="cls-12" d="M166,415.9a13.77,13.77,0,0,1-5-21.66s13.95-6.1,24.14,7.41a13.71,13.71,0,0,1-4.43,11.8s-7.58,4.36-14.72,2.45" transform="translate(-18.1 -64.45)"/>
  <path class="cls-23" d="M169.74,391.8h-.05" transform="translate(-18.1 -64.45)"/>
  <path class="cls-24" d="M182.57,399.83v0a11.26,11.26,0,0,1,.49,2.28A11.78,11.78,0,0,1,174,415a.09.09,0,0,1-.07,0c-.4.07-.8.14-1.23.19a11.78,11.78,0,0,1-8.24-21.25S175.76,389.12,182.57,399.83Z" transform="translate(-18.1 -64.45)"/>
  <circle class="cls-12" cx="153.36" cy="339.71" r="4.08"/>
  <path class="cls-15" d="M161,394.24" transform="translate(-18.1 -64.45)"/>
  <path class="cls-15" d="M166,415.9" transform="translate(-18.1 -64.45)"/>
  <path class="cls-12" d="M190.25,413c6.32-1.29,20.88.77,14.21-1.64s-16.83-11.08-16.83-11.08c-22.4-16.72-38.93-6.79-44.58,2.38s-11.31,11.13-11.31,11.13-.05,1,2.23,0a9.81,9.81,0,0,1,7.62-.12c2.52,1,7.93,2.47,12,1.78s3.18-.81,3.18-.81c-11.16.75-14.71-3.53-13.51-6.4s7.56-9.17,7.56-9.17c12.7-10.08,25.67-3.52,37.39,4.4s7.33,7.23,7.33,7.23A14,14,0,0,0,185.39,412a74.88,74.88,0,0,1-20.77,4,51.79,51.79,0,0,0,15.95,0,34.77,34.77,0,0,0,7.29-2.26A13.5,13.5,0,0,1,190.25,413Z" transform="translate(-18.1 -64.45)"/>
  <path class="cls-18" d="M333.11,602s-2.13,7.07,5.77,21.54,1.46,47,1.46,47-.4-19.93-5.93-27.15c0,0,5,27.58-1.39,34.21,0,0,1.55-10.21-1.84-15.93,0,0-2.08,18.79-16.34,27.64,0,0,12.44-13.22,11.51-23.16,0,0-3.24,8.89-11.52,9.41,0,0,15-22.9,6.15-36.94s-9.6-18.75-5.87-31.84c0,0-2.24,12.7,5.4,18.36,0,0-4.44-6.25-2.54-10.62,0,0,1,10.8,9.32,12.67,0,0-9.26-10.27-8-21.77,0,0,4.52,14.53,10.39,16.26a12.34,12.34,0,0,1-2-9.38s.61,6.82,5.66,11.13c2.91,2.49,5.34,12.26,4.33,14.78,0,0,2.94-7.55-4.89-21.48C332.85,616.75,329.54,609,333.11,602Z" transform="translate(-18.1 -64.45)"/>
  <path class="cls-25" d="M329.68,604.46a20.57,20.57,0,0,0,2.68-7c-1.56,3.35-7.59,8-7.59,8a2.92,2.92,0,0,0-1.4-3.66s1.28.73.29,2.48a6.82,6.82,0,0,0,.86,7.43,3.24,3.24,0,0,1,.16-3.29C325.82,607,328.38,606.46,329.68,604.46Z" transform="translate(-18.1 -64.45)"/>
  <path class="cls-18" d="M345.87,628.34c-.29-3.6-6-13-8.07-16.86s-1-8.72-1-8.72,1.2,6.52,4.7,8.51a14,14,0,0,1-.5-9c1.38-5.07,6-10.3,6.51-14.5A18,18,0,0,1,344.87,599c-2.73,4.12,1.28,13,3.06,16.54a12.31,12.31,0,0,1,1.21,3.83c.54,4,.9,12.3-3.91,19.53A37.22,37.22,0,0,0,345.87,628.34Z" transform="translate(-18.1 -64.45)"/>
  <path class="cls-18" d="M419.27,436.6a84.7,84.7,0,0,1-12.49-34.35c-.62,1.26-5.2,5.08-5.2,5.08,1.41-1,4.21-7,4.18-8.23s-3.92,4.82-3.92,4.82a33.84,33.84,0,0,0,1.7-7.84c-.34,1.9-2.74,2.83-2.74,2.83,4.76-7.65.53-10.76.53-10.76,1.66,3.08-.31,7.6-.31,7.6.22-4.9-4.72-17.06-4.72-17.06a20.79,20.79,0,0,1,8.93,10.21s.43-16.09-4.83-22.9-6.34-17.06-6.34-17.06,2.65,10.61,7.58,14.62,8.81,14.81,9.27,19.66-1.24,14.77-.23,23.49,3.12,19.4,5.69,23.68Z" transform="translate(-18.1 -64.45)"/>
  <path class="cls-26" d="M405.49,458.06c1.1-3.1,4.67-11.56,4.67-11.56a2.61,2.61,0,0,1-2,1.87c3-4.53,2-10.17,2-10.17.4,2.14-1.83,4.25-1.83,4.25,1.25-1.46-.56-12.38-.56-12.38,1.11,4.89-3.1,16.62-3.1,16.62s1.67-10.45.59-13.93-.09-20.39-.09-20.39.37,11.63,2.6,14.87a57.88,57.88,0,0,0,.2-8,48.9,48.9,0,0,1,2.37,10.89,4.66,4.66,0,0,0,1.28-3.53s1,5.78-.62,9.24c0,0,4.29-2,3.52-4,0,0,1.25,6.28-1.8,10.9,0,0,4.6-2.71,4.33-4.1a44.88,44.88,0,0,1-4.82,17.47c-4.58,8.83-8.91,16.68-8.1,23.66C404.18,479.73,403.52,463.64,405.49,458.06Z" transform="translate(-18.1 -64.45)"/>
  <path class="cls-18" d="M403.9,527.26c-5.25,6.06-14.35,5.22-20.32,14.86s2.66,22.07,2.66,22.07C374.73,559.08,375.06,543,375.06,543c-1.32.91-1.38,8-1.38,8-2.76-6-.17-13.77-.17-13.77-5.05,3.53-5.86,14.47-5.86,14.47-.68-3,.51-11.67,3.32-16.63s9.08-6.35,15.91-11.51A23.15,23.15,0,0,0,395.22,511a31,31,0,0,1-4.09,5.46A68.67,68.67,0,0,0,398.57,493s4.7,12.3,2.91,25.11c0,0,2.14-2.7,2.36-5,0,0,.17,5.71-1.5,9.67a12.64,12.64,0,0,1-6.09,5.38S405.39,525.53,403.9,527.26Z" transform="translate(-18.1 -64.45)"/>
  <path class="cls-18" d="M355.13,558.45c-2.51,4.26-6.13,9.28-6.13,9.28,2.18-2.4,5.18-12.71,5.18-12.71,2-3.83,2-12.78,2-12.78a29.48,29.48,0,0,1-4.68,6.76s.52-.28,2.57-6.08,1.23-7.35,1.23-7.35c3.11.79,12.26-3.38,12.26-3.38l2.77-1.52s-2.87-.33-3.26-.83c0,0,5.46,0,8.08-.93a15.76,15.76,0,0,0-8.9,11.07c-2,8.53.44,11.06-2.85,17.51,0,0,1.21-3.68-.1-6.48,0,0-6.15,12.83-11.43,17.15,0,0,6.48-9,5.65-13.42A25.92,25.92,0,0,0,355.13,558.45Z" transform="translate(-18.1 -64.45)"/>
  <path class="cls-18" d="M405.41,541.72c.37-1.26-1.93-4.85-1.93-4.85,5-4.13,4.55-6.47,4.55-6.47-.22,1.88-3.34,2.73-3.34,2.73,4.74-4.81,4.77-14.41,4.77-14.41a7,7,0,0,1-2.27,3,33.36,33.36,0,0,0,2.25-14,7,7,0,0,1-1.24,3.36c-.08-5.33-2.85-10.91-2.85-10.91.53,1.74-.61,4.33-.61,4.33a17.36,17.36,0,0,0-1.44-4.09s1.05,9-.21,11.37a15.08,15.08,0,0,0,1.89-4.47s2.41,12.17-1.75,17.88c0,0,2.77-1.52,3-2.63,0,0,2.13,5.21-5.86,9.73s-11,12.81-6.7,19.43c0,0-1.68-8.85,2.52-11.2,0,0-2.28,8,3.49,8.66,0,0-5-5-1.46-7.14,0,0,2,6.2,7.61,1.57,0,0-7.32.9-5.39-4.12,0,0,3.78-.33,4.66,1.64a1,1,0,0,1,0,.79S405.36,541.89,405.41,541.72Z" transform="translate(-18.1 -64.45)"/>
  <path class="cls-18" d="M390.11,613.27c-2.44,3.35-4.54,3.59-4.54,3.59-2.15,6.42-10.2,13.68-10.2,13.68,10.43-10.32,9.11-22.17,9.11-22.17a23.39,23.39,0,0,1-9.24,12.09c8.65-11,4.85-15.62,4.85-15.62-2.32,4-13.73,8.19-13.73,8.19,14.52-7.46,14.85-18.25,14.85-18.25a19.82,19.82,0,0,1-5.6,8.18c7.67-8.69.17-13.61.17-13.61a6.36,6.36,0,0,1,.78,4.82c.13-1.27-1.62-3.14-1.62-3.14-1.67,2.49,1.44,6.33,1.44,6.33-3.32-1.42-3.76-6.55-3.76-6.55-1.75.91-.77,5.11-.77,5.11-1.82-1.16-1.2-4.28-1.2-4.28-1,.44-1.39,2.18-1.39,2.18a2.18,2.18,0,0,1,.62-3.19c-4.36,1-5.39-3.63-5.39-3.63a5,5,0,0,0,5,1.6c-2.45-2.82-2.81-4.53-2.81-4.53.17,1.51,3.67,3.45,3.67,3.45-9.4-17.57-3.69-31.88-3.69-31.88s-.35,16.8,6.18,22.26c0,0-.7-10.29,3.61-14,0,0-3.92,17,7.9,22,0,0,6.48.39,9.66-10.78,0,0-1.68,10.42-8.36,15.87a14.62,14.62,0,0,0,7.93-6.43s-2.76,7.25-7,10.47c0,0,10.31-6.6,11.57-11.76,0,0,0,5.89-1,9.06,0,0,.61-6.6-.38-3.77-.87,2.45-.75,3-.75,3s-1.65-2.48-3.1,1.5-3.53,8.16-8.38,9.59c0,0,5.52-1.78,8-5.46,0,0-1.24,5.11-5.27,7.38,0,0,4.21-1.84,4.39-2.72,0,0-1.32,3.06-2.72,4,0,0,2.85-.45,2.86-1.39,0,0-2.74,4.24-4.42,5.26,0,0,2.43-.24,3.07-1,0,0-3,2.43-3.71,4.35S390.11,613.27,390.11,613.27Z" transform="translate(-18.1 -64.45)"/>
  <path class="cls-25" d="M381,627.87c9.44-5.72,9-8.78,9-8.78-1.27.27-2.84-1.22-2.84-1.22s-2.18,5.16-4.79,7c0,0,3.75-2.93,4.73-4.4,0,0-.36,3.65-7.5,8.07Z" transform="translate(-18.1 -64.45)"/>
  <path class="cls-18" d="M365.27,585.71a5.07,5.07,0,0,0-2.49-3.61A28.75,28.75,0,0,0,359.22,595,17.84,17.84,0,0,1,354,607c5.22-10.66.66-25.45.66-25.45a27.67,27.67,0,0,1-3.91,12.89c2.51-5.86.07-15,.07-15-1.06.77-1.78,5.19-1.78,5.19a16.67,16.67,0,0,1,.79-9.91c-.78,2,2.55,3.39,2.55,3.39,3.41-5.23,1-7.65,1-7.65a31.39,31.39,0,0,0,7.87-11.14s-2.91,8-2.81,11c0,0,2.55-1.36,3.34-6.53,0,0-1.45,9.42-.36,11.75,0,0,.67-6.22,1.39-7,0,0,.15,8.33,1.25,10.74,0,0,1.17.2.93-1.82a5,5,0,0,1-.46,4.47S365.46,587.38,365.27,585.71Z" transform="translate(-18.1 -64.45)"/>
  <path class="cls-18" d="M329.63,679.44c-9,16.72-19.52,17.1-19.52,17.1.63.69,6.57-.76,6.57-.76-2.68,1.4-11.07,3.84-11.07,3.84-4.35,6.24-18.21,8.17-18.21,8.17,5.79-6.56,2.88-21.78,2.88-21.78-4.35,17.53-19.55,24.85-19.55,24.85,11.35-8,12.84-29.15,9.07-47.54s2-23.48,9.8-34.16,9.73-15.82,9.73-15.82-4.34,15.73-10.55,25.74,2.09,18,2.09,18-1.17-8.7,2.24-13.19c0,0-.69,11,2.07,13.67,0,0,9.46,9.55,5.12,23,0,0,12.8-11,8.67-28.35s-2.87-28.53-.2-35.66c0,0,.1,9.4,4.49,14.75s10.53,14.61,7.39,24.31c0,0-4.87,17.26-11.1,22.89,0,0,6.27.37,10.75-1.9,0,0-5.71,11.47-10,15.24L306,695.65s16.82-2.43,24.53-22.64C330.5,673,330.27,678.24,329.63,679.44Z" transform="translate(-18.1 -64.45)"/>
  <path class="cls-25" d="M305,634.82c-1.33,1.44.85,15.34,1.82,18.56s.93,5.62.66,10.34-4.78,11-4.78,11c.81-3.8.81-11.33-1-13.41a96.46,96.46,0,0,1-5.51-7.93c-1.91-3.16-.75-13.12-.75-13.12-3.87.45-6.67,4.59-6.67,4.59,6.62-12.55,11.21-22.9,11.15-26.72s3.2-8.66,3.2-8.66-2,7.87-1.24,11c0,0,3.1-1.45,4.07-3.42,0,0-3,9.73-2.37,15.33a17.52,17.52,0,0,1-1.9-6.11s.49,6.6,2.25,10.49Z" transform="translate(-18.1 -64.45)"/>
  <path class="cls-13" d="M175.93,620.92c4.25.76-5.52-2.47-5.52-2.47,7.7-2.58,9.38-7.31,9.38-7.31-.55,2.28-10.08,4.77-10.08,4.77,4.61-1.84,8.36-6.21,8.36-6.21-2.65,2.4-10.32,5.46-10.32,5.46,1.39-2.21,4.18-6.41,4.18-6.41s-4.53,4.24-7.52,6.66-1.15,9.84-1.15,9.84.7-5.24,2.35-5.84c0,0-1.31,8.5,2.08,12.29,0,0-1.91-8,.56-9.24,0,0,2.69-.8,3.63,2.37C171.88,624.83,170.67,620,175.93,620.92Z" transform="translate(-18.1 -64.45)"/>
  <path class="cls-25" d="M241.23,671c1.61-17-8.43-37.5-8.43-37.5,4.29,7.4,2.6,22.49,2.6,22.49-1.8-15.59-10.3-23.93-17.2-28.37s-3.84-14.78-3.84-14.78-4.58,14.13,2.26,20.94,8.9,16.07,7.35,22.47c0,0-18.22-3.29-19.49-17.06,0,0,.84,14.31,12,20.54s15.21,16.9,15.93,27.3-4.2,16.53-4.2,16.53S239.48,689.33,241.23,671Z" transform="translate(-18.1 -64.45)"/>
  <path class="cls-18" d="M270,704.89a15,15,0,0,1-6.75-.37c-13.07-2.63-12.92-16.83-12.92-16.83-3.16,3.8-.83,11.22-.83,11.22-5.15-3.49-7.1-25.69-7.1-25.69s.37,15.18-14.88,36.59c0,0,10.24-2,16.11-6.45,0,0-2.17,12.36,5.81,17.66,0,0-3.76-6.55.31-11.06a7.93,7.93,0,0,0,2.57,7.13s-2-9.6,4.9-9.52A33,33,0,0,0,270,704.89Z" transform="translate(-18.1 -64.45)"/>
  <path class="cls-18" d="M219.38,639.16a14.91,14.91,0,0,1,1.67,14.43c-9.88-3.76-12.94-8.54-15.06-16.48s5.09-23.94,5.09-23.94-2.31,6.49-1.59,9.89c0,.22.09.45.13.69a23.94,23.94,0,0,0,8.91,14.56A4.26,4.26,0,0,1,219.38,639.16Z" transform="translate(-18.1 -64.45)"/>
  <path class="cls-25" d="M244.91,719.67c3.87,3.56-13.73-9-13.73-9s6.55-1,9.43-3.39C240.61,707.31,238.59,713.85,244.91,719.67Z" transform="translate(-18.1 -64.45)"/>
  <path class="cls-18" d="M272.51,705.67s-5.46,3.08-10.27,3.23-8.38,1.14-8.07,4.54-1,6.75-2,7.85a12.15,12.15,0,0,0,4.72-5.95,6.51,6.51,0,0,1,5.63-4.34S270,708.9,272.51,705.67Z" transform="translate(-18.1 -64.45)"/>
  <path class="cls-25" d="M270.52,709s-2.52,2.25-4.34,2.12a8.37,8.37,0,0,0-7.28,4.3,11.19,11.19,0,0,1-3.26,4.3,9.3,9.3,0,0,0,4.18-2c1.39-1.47,2.08-3.92,4.12-4S268.6,711.52,270.52,709Z" transform="translate(-18.1 -64.45)"/>
  <path class="cls-18" d="M220.26,586.65s7,2.06,7.45,5.68c0,0,.58,3.43-1,5.28a8.26,8.26,0,0,0,2.63-5.54s2.43,9.62-2,13.08c0,0-4.38,4.6-2,12.75,0,0-.26-6.44,3.14-9s6.38-5.65,6.13-10,5.65-7.69,5.65-7.69a48.81,48.81,0,0,1,5.52-1.87c2.78-.73,2.43-4.45,2.43-4.45-1.08-.12-1.94.22-3.6,1.46s-7,2.71-7,2.71c3.32-1.78,4.16-3.68,4.16-3.68-3.73,2.37-9.95,1.73-9.95,1.73s.9,1.37,4.52.87a6,6,0,0,1-7.88,1.24c-4.66-2.82-7.79-2.5-7.79-2.5" transform="translate(-18.1 -64.45)"/>
  <path class="cls-25" d="M255.22,585.38s-5.19-.3-5.76,1.16-.76,2.63-1.94,3.75-7.32,1.09-8.14,3.89a16.39,16.39,0,0,0,0,8.67s.39-5,4.24-6.88,5.61,0,6.56-2.33S251,586.12,255.22,585.38Z" transform="translate(-18.1 -64.45)"/>
  <path class="cls-18" d="M226,630.1c-1.57-6-4.76-7.22-7.15-11.78s1.77-8.55,1.77-8.55c-3.47,1.14-3.89,3.15-3.89,3.15s-2.29,6.4,1.14,9.85,6.33,5.16,7.9,8.09Z" transform="translate(-18.1 -64.45)"/>
  <path class="cls-18" d="M275.79,698c-2.79,2.78-6.21-1.41-6.21-1.41,7,.83,9.17-12.68,9.17-12.68a13.19,13.19,0,0,1-6.39,8.43c2.88-2,3.16-10.84,3.16-10.84,2.3-15.49-4.64-28.77,1.69-39.16s7.18-22.76,7.18-22.76c-1.1,6-13.77,11.09-19.45,20.72s-5.08,28.93-5.08,28.93c-1.72-14.86-5.36-16.56-12.16-27.24s-5.14-27.45-5.14-27.45-7.2,19.88-.29,40.61c0,0,2.31,10.78,1.61,14s1.65,16.34,2.6,18.2c0,0,2-3.67,4.9-4.39a25.31,25.31,0,0,0,.53,8.18c1,4.19,3.21,9.34,8.35,11.31s10.37,1.91,12.58-.26A12.89,12.89,0,0,0,275.79,698Z" transform="translate(-18.1 -64.45)"/>
  <path class="cls-18" d="M274.84,626.58c-4.53,2.1-9.67,8.92-13.16,14.56s-2.95,15.07-2.95,15.07c-1.31-5-4.4-9.74-8.3-14.2S245,627.25,245,627.25c-3.65-13.66,5-30.93,5-30.93s-4.83,16.71,1.17,28c0,0,1.92-7,5.88-8.64a19.67,19.67,0,0,0-.29,21.09s-2.22-11.74,4.27-13.59c0,0,.12,9,2.24,7.6S281.57,623.45,274.84,626.58Z" transform="translate(-18.1 -64.45)"/>
  <path class="cls-15" d="M221,618.4" transform="translate(-18.1 -64.45)"/>
  <path class="cls-25" d="M222,618.89c-2.49-3.81-1.27-5.34-1.34-6.15s3-5.26,3-5.26,1.84-2.42,1.63-3.54c0,0,.95,1.93-2.1,6.63S222,618.89,222,618.89Z" transform="translate(-18.1 -64.45)"/>
  <path class="cls-18" d="M228.67,629.57a15.29,15.29,0,0,1,2.77,7.68s.93-4.69.4-7.09c0,0,2.6,1.91,4.7,8.79,0,0-2.06-22,4.53-27.37s5.56-14.86,5.56-14.86c-4.9.1-7.49,10.25-7.49,10.25-.18-3.74-2.53-8.46-2.53-8.46a45.61,45.61,0,0,1-.31,5.11c-.33,2.82-5.45,6-7.71,9.8s2.8,13.52,2.8,13.52a18.81,18.81,0,0,1-8.61-11.44s.64,8.35,6.26,14.5" transform="translate(-18.1 -64.45)"/>
  <path class="cls-18" d="M263.66,627.87c-1.09-.94-1-8.24-1-8.24-4.06,1-7.11,6.5-7.11,6.5,0-3.24,4.25-13.59,4.25-13.59-4.59.56-8.61,4.9-8.61,4.9-1.51-4.57-.18-17.82-.18-17.82s1.11,9.55,1.77,11.72c0,0,5.61-5.21,10.89-2.06,0,0-2,6.29-1.73,7.65,0,0,6.81-3.3,8.08-6.5a10.21,10.21,0,0,1-3.46,9.65C261.79,624.4,263.66,627.87,263.66,627.87Z" transform="translate(-18.1 -64.45)"/>
  <path class="cls-25" d="M253.63,607.67c-.53,1.16-.8-6.92-.8-6.92a18.53,18.53,0,0,0,4.46,2.48s-1.77.95-2.59.22A17.19,17.19,0,0,1,253.63,607.67Z" transform="translate(-18.1 -64.45)"/>
  <path class="cls-18" d="M285.55,532.66a9.56,9.56,0,0,1-9.14-4.69,2.24,2.24,0,0,1-.14-.27c3.4,2.11,8.8,1.6,8.8,1.6a16,16,0,0,1-9.39-5.68c3.19-1.68,8.58-1.32,8.58-1.32a53.7,53.7,0,0,0-11.71-3.12c1.78-1.62,5.39-1.5,5.39-1.5-2.41-1-11.07-.46-11.07-.46.22-.9,5.09-3.1,5.09-3.1-.7-.46-1.72.2-4.16.81s-5.34-2.77-5.34-2.77a5.57,5.57,0,0,0,3.71-1,17.06,17.06,0,0,1-7.84-3.57c-3.51-3-10.2-3.29-10.2-3.29s6.75,2.71,8.34,7,2.56,5.16,6.55,8.52c0,0-9.47-3.6-10.35-7.43a18.83,18.83,0,0,0,10.49,10.47s.27,4.22,2.6,5.48,7.74,8.92,10.81,10.43c0,0-3.67-4.38-4.3-7.91,0,0,6.29,4.4,13.29,2.61C289.52,532.48,287.79,532.48,285.55,532.66Z" transform="translate(-18.1 -64.45)"/>
  <path class="cls-18" d="M300,530.74s-5.26-1.14-8.58-4.36-12.27-2.29-12.27-2.29,1.46,3.11,10.46,5a10,10,0,0,1-7,1.4s6.17,1.43,9.11.43c0,0-2.1,6.21-15.64,3.45C276.06,534.38,288.13,541.6,300,530.74Z" transform="translate(-18.1 -64.45)"/>
  <path class="cls-18" d="M305.83,552.11s-2.08-6.64-2.12-10.78-3.58-9.19-3.58-9.19,3.84,1.08,4.18,6.83A89.17,89.17,0,0,0,305.83,552.11Z" transform="translate(-18.1 -64.45)"/>
  <path class="cls-18" d="M310,553.26a17.33,17.33,0,0,1-2.82-10.86c.29-2.46.41-5,.41-5,5.61,2,7,8.19,7,8.19-.77-8.09-9.84-11.46-9.84-11.46a11.08,11.08,0,0,1,1.32,5.74c-.21,3.13,0,11.13,4,14.35l.52.36Z" transform="translate(-18.1 -64.45)"/>
  <path class="cls-26" d="M303.88,549.82s-1.49-2.39-6.15-3.11-10-2.6-12.79-5.39-8.34-5-8.34-5,7.86,3.29,15.91.67a44.38,44.38,0,0,0,6.44-3.26s-5.82,5.32-10.27,5.5c0,0,9.38,1.43,12.63-1.62A19.79,19.79,0,0,1,288.66,541s.93,1.91,5.47,3.35S300.23,546,303.88,549.82Z" transform="translate(-18.1 -64.45)"/>
  <path class="cls-18" d="M217.53,528.44c-3.56.81-6.63,2.82-7.24,5.34s-3.78,5.53-3.78,5.53c1.36-2.36-.65-6.3-.65-6.3S191.55,545.12,181,549.12s-10.93,11.82-10.93,11.82-2.14-10,9.86-15.65S199.46,526,199.46,526a35.63,35.63,0,0,1-11.09,3.24c6.63-1.23,12.39-6.12,12.39-6.12s4.75-7.1,10.52-9.08a16.07,16.07,0,0,0,8.31-6.42s-1,4.48-6.56,9.55c0,0,8.13-4.71,9.46-7.4s3.85-6.09,5.41-6.27c0,0-2.67,4.48-1.89,8.4s.76,11.53-3.81,15.17a9.93,9.93,0,0,0,1.35-6.7S222.71,527.27,217.53,528.44Z" transform="translate(-18.1 -64.45)"/>
  <path class="cls-18" d="M192.91,533.58c-5.91,5.52-11.82,6-11.82,6a21.23,21.23,0,0,0,11.22-8.42c-3.17,3-5.77,2.47-5.77,2.47a13.61,13.61,0,0,0,2.36-3s-3.32,2.43-10.66,4.84c0,0,5.09.15,6.46-.75a36.32,36.32,0,0,1-12,5.48,16.29,16.29,0,0,0,5.58-.65s-9.32,3.7-10.33,7.67c0,0,5.38-4.47,7.91-3.78s6.59-.38,11.79-4.5a16.91,16.91,0,0,0,1.9-1.79Z" transform="translate(-18.1 -64.45)"/>
  <path class="cls-18" d="M169.29,554c-.74,1.12-2.55,7.33-2.55,7.33-.55-8.06,3.29-10.85,3.29-10.85-1.84-.69-5.42,2.34-5.42,2.34,1.86-3.73,10.45-8,10.45-8s-4.18,3.43-4.12,4a57.77,57.77,0,0,0,5.38-3s-3.4,2.84-4.32,3.88A38.66,38.66,0,0,0,169.29,554Z" transform="translate(-18.1 -64.45)"/>
  <path class="cls-26" d="M203.81,536.31a74.5,74.5,0,0,1-6.28,4.6c-1.95,1.1-6.93,4.53-8.12,8.14,0,0,2.91-3.61,5.76-4.92S201.45,538.89,203.81,536.31Z" transform="translate(-18.1 -64.45)"/>
  <path class="cls-26" d="M186.72,547.45s-2.83,1.53-6.62,3.17-7.39,6.42-7.75,8c0,0,2.88-3.39,3.94-2.75a9,9,0,0,0-.63,7.33s1.09-5.69,4.16-7.71S186.72,547.45,186.72,547.45Z" transform="translate(-18.1 -64.45)"/>
  <path class="cls-18" d="M237.42,508.62s-4.32,3.78-3.67,9.35-2.55,14-2.55,14A18.89,18.89,0,0,0,235,521.1C235,514.71,235.22,512.32,237.42,508.62Z" transform="translate(-18.1 -64.45)"/>
  <path class="cls-18" d="M245.55,506.05s6.29.58,8.4,4,2.94,4.89,3.66,5.47a20.88,20.88,0,0,1-4.61-4.46C250.33,507.78,245.55,506.05,245.55,506.05Z" transform="translate(-18.1 -64.45)"/>
  <path class="cls-18" d="M261.29,524s-7.36-2-9.17-8.52a10.84,10.84,0,0,0-8.24-7.55s3.5,1.31,5.4,6.41S255.25,523.42,261.29,524Z" transform="translate(-18.1 -64.45)"/>
  <path class="cls-18" d="M225.21,529.76c3.06-1.17,4-5.94,4-5.94-1.11,3.89-10,7.21-10,7.21s9.57-4.3,8.78-13.95.67-10.5.67-10.5-.43,6.95,2.17,10.25c0,0-1.45-6.55,1-8,0,0-.17,3.26.37,11.7C232.82,529.46,225.21,529.76,225.21,529.76Z" transform="translate(-18.1 -64.45)"/>
  <path class="cls-18" d="M258.52,529.71s-1.79-1.3-8.51-.69-8.26-2.81-8.26-2.81c-.36,4.71,5.3,5.53,5.3,5.53-7.73,1.79-7.87-7.85-7.87-7.85-.89,3.62-4.74,7.1-4.74,7.1,2.88-2.37,3.45-11.94,3.06-16a8.37,8.37,0,0,1,2.89-6.72,10.34,10.34,0,0,1,7.28,6.93c1.64,5.71,7.51,11.82,13.19,10.67,0,0-7.77,2.39-15.37-6.85,0,0-.23,5.06,9.83,7.82C255.32,526.85,258.33,528.06,258.52,529.71Z" transform="translate(-18.1 -64.45)"/>
  <path class="cls-26" d="M222.16,519.44c0,3.35-3,4.61-4.39,6.41s-4,1-6.18,2.22-3.72,5.58-3.72,5.58c1.09-2-.79-7.76-.79-7.76a16.5,16.5,0,0,1-.78,5.49c.16-.51-1.1-2-1.1-2C204,533.67,190,540.63,190,540.63c6.51-5,12.75-9.55,13.92-15.47s5.26-7.38,5.26-7.38-3.1,3.42-2.5,4.77c0,0,6.59-2.23,7.35-4.34,0,0-.52,2.39-5.41,5.08,0,0,5.6.35,11.25-8.38,0,0,2.34-3.33,3.26-3.87C223.15,511,222.24,511.45,222.16,519.44Z" transform="translate(-18.1 -64.45)"/>
  <path class="cls-18" d="M219,518.34s-1.67,3.49-3.77,4.19-6.51,2.67-6.28,4.23c0,0,2.07-2,3.74-1.64S219.3,524.91,219,518.34Z" transform="translate(-18.1 -64.45)"/>
  <path class="cls-18" d="M342.88,671.35s-2.92-7.09,3.33-20.24a198.82,198.82,0,0,0,9.27-22.69c-3.24,7.8-10.08,15.69-10.08,15.69,6.13-11.19,6.66-20.75,5.72-25.11s-6.09-16.76-4.49-18c0,0,.64,4.61,2.89,4.24S354.1,591,354.1,591s.54,10.32-2.26,19a15.8,15.8,0,0,0,9-9.23c2.57-7.06-.46-9.63,1.75-13.19,0,0,.19,5.44,3.63,6.89s7.59,9,4.75,12.77c0,0,1.29-4.84-3-5.87,0,0,3.69,7.76-3,12,0,0,3.1-2.44,1-4.92,0,0-4.49,4.56-.68,8.27S378.54,609,378.54,609s-2.66,7.18-7.27,11.64c0,0,2.38-.19,2.81-1.21,0,0-3.2,5.41-6.22,6.63,0,0,9.66-2.77,13.11-8.39,0,0-8.93,11.51-15.79,13.5,0,0,10.05-1.82,11.82-4.42,0,0-4.56,6.85-8.1,8.25,0,0,9.15-1.46,13.47-5.22,0,0-5.1,5.89-11.63,7.95,0,0,7.33.75,13-6.74,0,0-4.71,10.26-8.18,12.3s-11.19,3.26-17.57,8.47S345.69,657.93,342.88,671.35Z" transform="translate(-18.1 -64.45)"/>
  <path class="cls-25" d="M374.27,645.1s-23.78,8.81-27.88,22.87a19.46,19.46,0,0,1,9.87-10.22C363.79,654.25,374.27,645.1,374.27,645.1Z" transform="translate(-18.1 -64.45)"/>
  <path class="cls-18" d="M360.45,664.3c-1.46,1.48-10.46,5.37-10.92,4s5.8-7.87,9.56-9.37S367,652,367,652s-.62,4.58-3.78,6.25-8.77,5.26-8.79,6.83S360.45,664.3,360.45,664.3Z" transform="translate(-18.1 -64.45)"/>
  <path class="cls-25" d="M346.12,659.25c1.78-6.9,12.73-17.27,16.76-22.08s-.3-18.13-.3-18.13.68,10.15-4,15.11-12,17.67-12.71,23.16Z" transform="translate(-18.1 -64.45)"/>
  <path class="cls-25" d="M362.66,600s.49,6-4.3,9.66-5.91,20.9-5.91,20.9,2.28-11.39,4.25-13.5S364.19,611.07,362.66,600Z" transform="translate(-18.1 -64.45)"/>
  <path class="cls-25" d="M355.32,634.85c2.32-3.21,1-9.93,1-13s4.23-6.92,4.23-6.92-3.06,4.57-2.06,8.3-.59,9.56-4,13.32Z" transform="translate(-18.1 -64.45)"/>
  <path class="cls-25" d="M376.28,637.67c-1.24,1.49-12.58,8-16.67,9.46s-8.89,7.37-8.89,7.37,6.51-9.55,10-11.84a18.92,18.92,0,0,0,5.58-6.21,4.2,4.2,0,0,1-1.2,4.47s3,1,9.85-2.61Z" transform="translate(-18.1 -64.45)"/>
  <path class="cls-26" d="M374.44,554a9.3,9.3,0,0,0,3.68,4.87c-4.61,1.88-7.19,12.82-7.19,12.82-4.35-11.36-.81-23.89-.81-23.89s-1,12.15,1.3,15.4c0,0-.62-7.4.61-8.14,0,0,.73,4.88,2,3.42S374.44,554,374.44,554Z" transform="translate(-18.1 -64.45)"/>
  <path class="cls-18" d="M390.79,576.1c-13.59,17.12-11.68-13.16-11.68-13.16s1.94,21.49,9,13.69a45.26,45.26,0,0,0,9.41-15.82S395.47,570.21,390.79,576.1Z" transform="translate(-18.1 -64.45)"/>
  <path class="cls-18" d="M389,571.29c-1.53,1.37-3.14-1.35-3.14-1.35-1.36,1.38-1.14,6.1-1.14,6.1-2.21-1.7-1.88-11.46-1.88-11.46s2.76,3.07,4.66,2.52,1.8-4.35,1.8-4.35a106.78,106.78,0,0,1-4.66-10c-2.86-6.77,4.84-13.86,4.84-13.86s-5,10.19-1.22,14.88S395.09,565.78,389,571.29Z" transform="translate(-18.1 -64.45)"/>
  <path class="cls-25" d="M398.73,567c7.66-6.88,5.24-19.37,5.24-19.37-.45,3-5,5.75-5,5.75-1.84.15-2.66-3.12-2.66-3.12-1,.45-.5,5.11-.5,5.11-3,.7-4.8-4.49-4.8-4.49s4.83,10.54,3.44,12.87a10.63,10.63,0,0,0,1.12-6.25s1.38,3.08,2.33,2.6c0,0-1.18-2.42-.3-3.82,0,0,4.84,4.46.69,11.05Z" transform="translate(-18.1 -64.45)"/>
  <path class="cls-18" d="M400.62,567.7s-4,1.5-4.57,5.34-.29,7.83-1.43,9.11c0,0,1.74-.8,2.44-6S397.68,570.71,400.62,567.7Z" transform="translate(-18.1 -64.45)"/>
  <path class="cls-18" d="M160.7,673.84s-.87-20.2-7.69-26.78-9.88-17.47-9.88-17.47c4.47,25.88-4.15,30.56-4.15,30.56,4.49-7.89-3.69-27.57-9.14-37.88s-3.69-29.06,3.5-36.28,4.57-21.32,4.57-21.32,5.31,6.26,1.79,15.51,4,36.87,10.92,37.7c0,0-3.05-9.35.16-12.73,0,0-.95,8.73,7.19,18.26S170.72,650.09,160.7,673.84Z" transform="translate(-18.1 -64.45)"/>
  <path class="cls-18" d="M142,597.71s-3.13-10.32-.46-13.59a17.25,17.25,0,0,0,3.34-5.84s.43,2.78-1.31,8.44,4.07,24.85,4.07,24.85Z" transform="translate(-18.1 -64.45)"/>
  <path class="cls-25" d="M159.89,622.59c-9.13-9.1-5.57-17-7.3-18.75s-4.5,2.54-4.5,2.54c-3.5-7.56-2.89-18.32-2.89-18.32s3,5.21,4.45,5.48c0,0-2.58.3-3.18-1.16,0,0,2.05,3.6,3.44,3.38a4.09,4.09,0,0,1-3.06,0s6.06,9,10.54,5.22c0,0-2.1,5.48-1.24,10.07A76.25,76.25,0,0,0,159.89,622.59Z" transform="translate(-18.1 -64.45)"/>
  <path class="cls-18" d="M148.5,604c-.18,1.72-1.56-6.12-1.56-6.12s3.1,4.12,4.65,4.13a4.59,4.59,0,0,1-3-.61S148.6,603.05,148.5,604Z" transform="translate(-18.1 -64.45)"/>
  <path class="cls-18" d="M216.62,664.36c-10.48-5.41-8.18-7-14.36-24.63S207,616.64,207,616.64a15.91,15.91,0,0,0-9.63,14.81c1.82,19.93-12.18,26.29-12.18,26.29,2.63-2.75,4.69-10.36,4.69-10.36-.72,3.68-6.2,5.79-6.2,5.79,5.4-8.48,5.66-14.73,5.66-14.73a34,34,0,0,1-5.42,8.32c4-6.68-1.16-19.92-1.16-19.92s2,9.67-3.84,14.93-8.26,15.8-.67,28.89,25.11,24.81,30.82,27c0,0-24.71-25.84-16.46-33.78,0,0,.6,8,6,9.19,0,0-7-3.78-2.94-14.07,0,0-.12,6.07,2.91,6.78,0,0-2.82-4.55.46-11.62,0,0-1.23,11.09,3.68,14.83,0,0-3.25-7.32-.21-9.31,0,0,8.82,16.3,5.35,24.48,0,0,3.95-5.48,1.31-18.81,0,0,8.71,14.92,4.94,21.91,0,0,3.78-6.91.43-17,0,0,17.18,9.81,10.56,37.42C225.08,707.69,234.62,673.66,216.62,664.36Z" transform="translate(-18.1 -64.45)"/>
  <path class="cls-18" d="M126.37,637.54c2.82,4.06-15.82-20.92-15.59-38.52s-.06-30.22-2.91-28-3.93,8.48-3.93,8.48-3.06-20.82,5.22-32.25,1.15-23.93,1.15-23.93,9.54,12.65,2.91,34.53c0,0,9.68-6.93,9-12.38,0,0,2.29,18.44-7.71,29.58,0,0,3.47.25,6.52-4.52,0,0-1.46,3.61-6.82,7.5,0,0,5.87,3.33,9.85-5.39s5.23-13.87,12.35-17.23c0,0-8.19,7.17-6.88,14.3,0,0,1,4,3.48,3.85s3.79-4,3-5.8c0,0,2,8.33-1.86,13s-10.78,10-9.43,26.3c0,0-2.55-8.21,1.57-19.25,0,0-7,3.11-6.36,10.81,0,0-2.15-6.55,8.27-18.39a23,23,0,0,0-11,11.09C113.53,599.42,116,622.54,126.37,637.54Z" transform="translate(-18.1 -64.45)"/>
  <path class="cls-25" d="M138.91,656.06c-6.36.17-14.92-19.3-14.92-19.3-6.58-2.43-11.26-18.83-11.26-18.83s1.45,14,9.9,20.52c0,0,10.36,17.89,14.91,17.77Z" transform="translate(-18.1 -64.45)"/>
  <path class="cls-25" d="M158.18,675.07a29.88,29.88,0,0,1-5.87-16.14,6.24,6.24,0,0,0,3.09-6c.34,3.22-5,3.63-5,3.63a7.56,7.56,0,0,0,3-4.16c-.49,2.34-4.94,2.59-4.94,2.59,3.44-1.53,1.35-8.84,1.35-8.84a8,8,0,0,1-2.22,5.61c.27-1.89-1.14-9.87-1.14-9.87s.09,13.21-2.89,18.85a24.51,24.51,0,0,0,4.1-4.19,26.71,26.71,0,0,0,8.84,16Z" transform="translate(-18.1 -64.45)"/>
  <path class="cls-25" d="M195.82,702.92s-14.37-5.41-20.62-13.13S163,676.13,163,676.13s7.29,3.63,10.13,8.33S177.21,693,195.82,702.92Z" transform="translate(-18.1 -64.45)"/>
  <path class="cls-25" d="M208.61,692.68c-8.85-6.61-13.76-18.92-13.76-18.92s6,2.91,8,1.26c0,0-.87,3.27-3.75,2.5,0,0,5.25,13.26,11.08,16.51" transform="translate(-18.1 -64.45)"/>
  <path class="cls-25" d="M206.09,681.52c2.63-4.35-1.63-13.35-1.63-13.35.57,1.14-.61,3.24-.61,3.24-1.73,2.93-7.14-4.19-7.14-4.19a8.56,8.56,0,0,0,6.17,6.16,7.75,7.75,0,0,0,2.25.55c.76,0,3.61,8.26-1.93,10.1" transform="translate(-18.1 -64.45)"/>
  <path class="cls-18" d="M207.74,689a8.21,8.21,0,0,0,4-10.73s1,5.92-3.55,9.58Z" transform="translate(-18.1 -64.45)"/>
  <path class="cls-18" d="M190.31,696.33s-9.51-4.36-12.22-9.39-7.69-11.28-11.39-12.16-2.08-3.85-2.08-3.85c3.14-6.75,3.16-19.35,3.16-19.35s1.84,3.55.72,12,.12,9.37,4.92,12.63,7.62,7.85,7.88,10.11S190.31,696.33,190.31,696.33Z" transform="translate(-18.1 -64.45)"/>
  <path class="cls-18" d="M181.12,615.57c3.11,5.64,6.1,8.85,11.31,12.87s2.41,12.28,2.41,12.28.69-10.8-6.82-13.49S181.12,615.57,181.12,615.57Z" transform="translate(-18.1 -64.45)"/>
  <path class="cls-25" d="M170.69,651.24s-5.19-12,.21-17.21,5.58-10.47,5.58-10.47,6.4,8.59,1.49,12.84S169,641,170.69,651.24Z" transform="translate(-18.1 -64.45)"/>
  <path class="cls-25" d="M162.5,657.29c.2-12.84.35-15.78-13.51-31s-12.9-30.2-12.9-30.2-3.78,17.41,8.52,29.79S162.42,662.61,162.5,657.29Z" transform="translate(-18.1 -64.45)"/>
  <path class="cls-18" d="M195.19,685c-17.87-14.08-16.41-31.71-16.41-31.71s3.24,13.92,5.75,11.56,8-11,8-11-8,12.74-6.84,15.44S195.19,685,195.19,685Z" transform="translate(-18.1 -64.45)"/>
  <path class="cls-18" d="M222.23,706.17c4.41-12.79-3.9-27-3.9-27s.12,14.88-4.07,18a40.12,40.12,0,0,1-7.78,4.59s11.38-.75,13.25-4.4c0,0,4.59,8.58,1.25,10.88" transform="translate(-18.1 -64.45)"/>
  <path class="cls-18" d="M101.69,560.14c-2.26-19.39,4.1-26.89,5.32-40.35s-7-40.37-7-40.37,1.25,15.07-.8,21.64-.34,32.77.73,43.78Z" transform="translate(-18.1 -64.45)"/>
  <path class="cls-25" d="M197.84,140.84s30.53-36.27,66.08-30.78,52.35-7.83,52.35-7.83-22.15,19.83-46.33,20.23c0,0,27,5.16,35.23-5,0,0-6.36,9.25-21.15,9.66,0,0,43.31,4.58,51.41-10.32,0,0-30.06,40.15-81,20.51,0,0-37.28-16.64-58.13,5" transform="translate(-18.1 -64.45)"/>
  <path class="cls-18" d="M372.78,154.68a31.46,31.46,0,0,1,7.79,22.87,23.26,23.26,0,0,1-.56,3.86c4.73-10-18.63-47.46-46.66-32.57s-69.49-3.54-69.49-3.54,29.1,8.21,56.35-2.47,46.88-13.61,61.28.43c0,0-15.61-5.93-18.86-.27Z" transform="translate(-18.1 -64.45)"/>
  <path class="cls-18" d="M142.45,171.27c2.67,2.31,8.23-6.19,8.23-6.19-3,13.44-18.39,25.92-18.39,25.92,7.47-1.92,13.08-9.59,13.08-9.59-5.22,15.22-25.06,17.3-25.06,17.3s15.11-15.3,19.78-47.82a113.83,113.83,0,0,1,10.64-34.77c3.28-6.54,7.32-12.91,12-17,0,0-7.74,19.88-3.7,24.65,0,0,.6-11.78,7.88-14.94,0,0-5.55,10.53-1.49,13.55,0,0,7.43-9.37,18.47-13.93,0,0-15.33,9-30.43,36.92S142.45,171.27,142.45,171.27Z" transform="translate(-18.1 -64.45)"/>
  <path class="cls-18" d="M116.22,199.19s-21.27,4.86-31.81-7-48.89-11.31-54.17,22.24c0,0,17.68-7.53,23.16,2.09,0,0-20.07,3.85-23.92,27.21,0,0,10.75-27.87,31.69-18.51C61.17,225.2,93.13,242.69,116.22,199.19Z" transform="translate(-18.1 -64.45)"/>
  <path class="cls-18" d="M115.72,194.88c-6.51,6-18,1.42-31.81-7s-22.57-4.59-22.57-4.59c-2-4.14,3.67-7.85,3.67-7.85-12.24-5.79-14.23,9.07-14.23,9.07-8.13-4.3.39-17.41.39-17.41-13.14-.35-12.48,22.3-12.48,22.3-6.36-39.86,37.6-39.06,51.33-16.64s27.44,20.18,27.44,20.18Z" transform="translate(-18.1 -64.45)"/>
  <path class="cls-25" d="M252.56,85.4c-11.56,22.73-46.87,25.07-46.87,25.07l-29.33,14.31a55.86,55.86,0,0,1,6.38-33.48C192.07,73.85,200.45,69,200.45,69S188,86.1,194.8,99.29c0,0,.37-11.83,2.95-14.09,0,0,2.27,10.21,6.17,13.69s24.19-4.11,29.63-8a56.32,56.32,0,0,0,9.82-9.43S229.92,99.15,219,100.85c0,0,20.38.7,32.61-14.25Z" transform="translate(-18.1 -64.45)"/>
  <path class="cls-18" d="M276.13,185.93s2.8.88,5.52,2c-10.27,3.42-12.12,6.22-12.12,6.22-12.41,11.6-5.58,44.2-23.42,59.8S179,250.56,179,250.56c23.63,6.29,44.94-11.87,46.32-13.08-27.42,21.28-57.33,5.48-58.59,4.78,24.22,5,47.63-13.44,61.83-49S295.37,168,295.37,168s-27.86-.78-31.18,17.48c.8-1,18.65-22.31,40.42-10.58C303.38,174.51,284.63,168.53,276.13,185.93Z" transform="translate(-18.1 -64.45)"/>
  <path class="cls-26" d="M199,152.8c-29.35,4.8-35.93,19.57-35.93,19.57,2.7-4.9,15.61-4.65,15.61-4.65-7.59.45-15.26,7.66-17,13.64S150.85,191,150.85,191a29.34,29.34,0,0,0,15.62-10.22c-11.39,23.14-43.23,22.47-43.23,22.47s30.77-2.9,32.67-43.07,49.4-56.79,74.72-58.74c0,0-47.9,19-42.24,31.08,0,0,14.12-13.75,29.64-12.6,0,0-18.88,0-28.69,20.79,0,0,11.34-11.36,25.21-4.67,0,0-8.44-6.91-40.72,19.65,0,0,10.83-4.43,26.71-3.09Z" transform="translate(-18.1 -64.45)"/>
  <path class="cls-25" d="M277.49,230.06c-6.07-23.18,4.67-39.83,4.67-39.83s-16.78,2.16-18.39,27.89-8.6,43-15.86,47.67c0,0,15.9,1.65,26.78-17.51C274.69,248.28,279.27,236.88,277.49,230.06Z" transform="translate(-18.1 -64.45)"/>
  <path class="cls-26" d="M236.75,217.75c-2.21,20.44-43.61,25.57-43.61,25.57s27.72-2.4,38.66-31.76,24-34.21,24-34.21S238.68,199.85,236.75,217.75Z" transform="translate(-18.1 -64.45)"/>
  <path class="cls-26" d="M209.87,252.08c16-1.63,29.52-16.52,35.42-39s23.37-26.25,23.37-26.25-19.9,3.66-21,44.54S209.87,252.08,209.87,252.08Z" transform="translate(-18.1 -64.45)"/>
  <path class="cls-18" d="M102.85,332.57c-14.72-55.48,15.23-83.4,15.23-83.4-27.78,8.89-29.61,49.7-29.61,49.7-7.74-17.87,5.1-46.42,5.1-46.42-38.1,35.83-4.77,91.35-4.77,91.35-21-18.8-21-45.15-21-45.15-25.87,26.56,8.35,40.94,8.35,40.94C52.35,341.47,49,316.1,49,316.1c-12.59,11.94,6.41,51.64,6.41,51.64-66-72.67,3.67-119.16,3.67-119.16-16.74-5-29.73,22.22-29.73,22.22-1.2-10.34,12.32-36.79,25-36.51s14.05,4.48,38.11-2.6,26.85-22.61,26.85-22.61,8.41,21.72-11.41,31.55c0,0,25.27-6.9,21.62-32.73,0,0,14.15,43.79-10.69,64.88,0,0-20.27,26.67-16.45,55.91Z" transform="translate(-18.1 -64.45)"/>
  <path class="cls-18" d="M267.37,161.37c-40.8-.12-48,23.46-48,23.46-6.64,53.6-51.1,48.83-51.1,48.83,26-12.74,21.13-39.89,21.13-39.89-25.05,28.67-50.05,13-50.05,13s22.8-3.59,37.12-29,37.15-20,37.15-20-3.58-11.41-12.47-13.4c0,0,22.14-13.18,42.27-3.92a33,33,0,0,1,9,6.29c3.66,3.48,10.15,9.7,15,14.6h0Z" transform="translate(-18.1 -64.45)"/>
  <path class="cls-18" d="M190.62,270.57c-11.27-1.21-16.48-13.16-16.48-13.16,5.58,1,11.79-1.91,11.79-1.91C164.75,248.9,162,239.18,162,239.18a52.23,52.23,0,0,0,29.8-7.51c-14.44,7.22-33.49,3.88-33.49,3.88C179.58,225.21,180,208.82,180,208.82c-18.91,16.27-43.61,3.09-43.61,3.09s8.34,29.15,4.86,42c0,0,14.63,13.69,39.7,15.37Z" transform="translate(-18.1 -64.45)"/>
  <path class="cls-26" d="M397,228.26c-53.13,4.3-14.94-71-63.85-64.6-50.34,6.52-64.68-11.9-64.68-11.9s23.94,16.87,66.38,2.93c12.13-4,25.79-.78,33.79,9.17,3.9,4.87,6.67,11.49,6.43,20.4a57.82,57.82,0,0,0,.86,12.81c2.39,11.9,8.93,32.11,25.47,27.37a16.34,16.34,0,0,0,8.29-5.25A15.27,15.27,0,0,1,397,228.26Z" transform="translate(-18.1 -64.45)"/>
  <path class="cls-18" d="M298,102.62c-21.92-23.22-52.93,14.2-52.93,14.2s24.09-22,31.13-15.82c0,0-19.63,7.7-18,16.25,0,0,22-17.43,31.33-10.32,0,0-6.31,10.71-15.12,10.42,0,0,19.15,7,23.63-14.19Z" transform="translate(-18.1 -64.45)"/>
  <path class="cls-26" d="M71.38,411.4s-7.7-6.42-6.79-22.89a94.36,94.36,0,0,0-10.53-47.57s24.57,11.89,21.64,26-11.09,20.6-4,43" transform="translate(-18.1 -64.45)"/>
  <path class="cls-18" d="M379.37,232.45c-29,5.55-43.3-23.36-48.44-42.23s-23.85-21.43-23.85-21.43,16.1,3.06,24.77,1.34S351.62,170,355,184.31s20.9,26,38.12,12.57c0,0-29.4,25.07-49.4-8.15,0,0,35,53.83,58.79,10.05,0,0-16.71,37.13-41.35,18.24,0,0,7.26,19.37,23.15,15Z" transform="translate(-18.1 -64.45)"/>
  <path class="cls-18" d="M421.2,428.41c-6.13-7.14-5.84-25.59-5.84-25.59,1.05-24.89.45-25.29-7.68-45.55S423,319.07,423,319.07s-12,17.49-5.34,37,8.55,36.65,4.64,45.91S421.2,428.41,421.2,428.41Z" transform="translate(-18.1 -64.45)"/>
  <path class="cls-26" d="M439.22,233c16.12,36.91,50,31.75,50,31.75s-39.46,9.81-58.25-28S406,206.13,406,206.13c5.62-4.24,13.72,5.44,13.72,5.44-1.12-24.8-16.07-22-16.07-22,12.36-8.64,27,14.42,27,14.42-1-27.62-31-30.53-31-30.53s34.52-3.49,46,28c0,0,7.75,29.16,32.25,29.69,0,0-13,10-30.67-12.33,0,0,7.39,16,28.36,23.2a17.16,17.16,0,0,1,6.51,4.12,74.39,74.39,0,0,1,10.86,13.26,30.84,30.84,0,0,0-20.25-11.34,38.36,38.36,0,0,1-17.89-6.22c-6.39-4.42-14.8-11.85-23.87-24.15l4.06,7A80.94,80.94,0,0,1,439.22,233Z" transform="translate(-18.1 -64.45)"/>
  <path class="cls-18" d="M494,263.27c-7.2-10.3-16.78-12-16.78-12C452.62,248.64,448,239,448,239s7,11.63,19.69,13.54c0,0-6.87,2-12-1.88,0,0,7.47,7,16.17,3.91S494,263.27,494,263.27Z" transform="translate(-18.1 -64.45)"/>
  <path class="cls-25" d="M467.71,252.56a.56.56,0,0,1,0,.1v0c-8.53,64.15-74.46,37.83-76.64,36.93l-.06,0,.06,0c41,31.51,75.05-9.67,76.48-11.45l0-.05,0,.05c-17,29.24-56.3,28.29-56.3,28.29,15.88,7.32,50.31-12.69,50.31-12.69-53.95,43-93.43,30.77-113.21-4s-52.68-25.48-52.9-25.42h-.25a11.25,11.25,0,0,0-10.78,12.3,16,16,0,0,0,3.16,8.33l0,0s0,0,0,0c-26.44-9.58-16.11-45.73-16.11-45.73s6.4-31.1,21.52-30.75c0,0,28.42,37.92,36,37.05s25.28-4.47,30.65-5.09c4.88-.57,46.36,25.2,53.42-6.62-2.54,26.79-32.74,17.79-32.74,17.79-2.89,6.06,8.13,8.45,8.13,8.45C378.31,261.93,370,249.79,370,249.79,373.77,267,394.83,270,394.83,270c-7.59,1.11-12.59-.65-15.6-2.48,0,0-.05,0-.05-.05a12.15,12.15,0,0,1-3.48-3l-.06-.07s.06.05.06.07c1.17,1,2.34,2.06,3.48,3,0,0,0,0,.05.05,69.87,60,87.67-11.43,88.47-14.78" transform="translate(-18.1 -64.45)"/>
  <path class="cls-26" d="M472.83,341.24c1.5-17.32,1.23,24.74-6.25,30.84s-13.13,25.1-14.77,42.06-19.71,19.23-19.71,19.23,13.64-9.43,5.4-52.29,9.26-58.65,9.26-58.65-9.43,20.5-5.1,40.85,9.91,31.81,8.84,33.9c0,0-5.28-6,13.18-30.38C463.68,366.8,471.44,357.44,472.83,341.24Z" transform="translate(-18.1 -64.45)"/>
  <path class="cls-26" d="M425.5,429.55c.36-4.08-1.77-11.91,1.15-22.5s1.86-25,1.86-25,5.92,16.69,2.68,23.11a14.84,14.84,0,0,0,6.34-9.72s1,16.48-3.4,19.65S425.5,429.55,425.5,429.55Z" transform="translate(-18.1 -64.45)"/>
  <path class="cls-26" d="M474.42,280.49s-6.95,18.1-28.75,26.9-31.5,27.43-20.52,66c0,0-4.21-44.91,10.3-49.65S474.05,301.81,474.42,280.49Z" transform="translate(-18.1 -64.45)"/>
  <path class="cls-25" d="M476.79,300.85l0,0c.51-.42,8.82-7.51,8.48-16,0,0,1.51,16.85-7.5,24.77,0,0,6.75-2.4,9.28-9.18v-.08s0,0,0,.08c-.11,1.32-1.92,22-9.55,29.85v0a48,48,0,0,0,1.71-6l.18-.69s-.05.21-.14.55c0,0,0,.08,0,.14-1.5,4.56-8,6.93-11.34,7.87a10.9,10.9,0,0,0-4.38,2.35c-8.8,7.89-6.17,17.14-6.17,17.14-3.36-3.54,1.82-16.22,1.82-16.22-10.66,5.85-6.05,27.91-6.05,27.91-5.58-14,.78-27.3.78-27.3-10.55,10.74-5.74,41-5.74,41a73.36,73.36,0,0,1-.43-50,20.16,20.16,0,0,1,8.71-10.7c28.87-16.89,24-48.14,24-48.14s3.27,15-3.59,32.8" transform="translate(-18.1 -64.45)"/>
  <path class="cls-13" d="M407.62,303.94s-22.39,4.55-34.14-20.6-30.84-20-30.84-20,18.3.82,24.43,26.31c0,0-2.74-7.1-9.3-8.09,0,0,6.68,2.07,10,15.87a47,47,0,0,1-19.67-21s11.13,33,33.5,32.9S407.62,303.94,407.62,303.94Z" transform="translate(-18.1 -64.45)"/>
  <path class="cls-26" d="M130.56,151.47s4,21.89-6.92,36.44-24.21-9.58-21.87-6,21.74-21.49,21.74-21.49-10.79,12.36-17.92,13-12.74-8.25-12.74-8.25l3.09-1.52a7.46,7.46,0,0,0-2-7.65c-3.55-3.61-11.27,2.61-11.27,2.61-.8-3.18,6.74-7.76,6.74-7.76l13.88-6.41s3-6.63,9.76-8.1,14.69,3.38,16.47,6.08c0,0-18.78-1.53-16.92,8.87,0,0,22.92,1.93,26.56-10C139.19,141.23,139.71,153.25,130.56,151.47Z" transform="translate(-18.1 -64.45)"/>
  <path class="cls-18" d="M109.71,165.56c-4.28,8.36-15.35,6-15.35,6,13.66,20.17,22.6,17,22.6,17s11.59-1.67,13.91-21.25S138.18,140,138.18,140s-18.73-3.39-25.9,8.24c0,0-2.49-10.19,15.4-11.28,0,0-24-9.65-29.31,7,0,0-13.72.28-15.82,13.29,0,0,13.29-12.52,19.74-4.83,0,0-5.47,13.61-16.44,10.65,0,0,11.71,7.83,22.24,2.68a7.78,7.78,0,0,0,2.19-1.56C110.93,163.38,109.71,165.56,109.71,165.56Z" transform="translate(-18.1 -64.45)"/>
  <path class="cls-18" d="M426.63,209.44C397.9,199,379.68,187,378.43,150.82s-32.69-33.5-32.69-33.5c28.42-6.2,47.71,35.38,47.71,35.38,7.61-22.47-18.19-34.91-18.19-34.91s24.65,9.26,29.54,26.05,16.51,38,28.45,33.7c0,0-22.21,8.82-36.7,2,0,0,22.59,26,31.69,31.09" transform="translate(-18.1 -64.45)"/>
  <path class="cls-18" d="M395.15,272.65s.08.05.11.07a.53.53,0,0,0,.13.06,2,2,0,0,0,.44.21l.59.26.38.19s0,0,0,0c5,2.09,20.45,7.18,35.05-2.95l0,0,0,0c-.62.63-13.14,13-27,9.56l0,0,0,0c1.15.82,27.46,19.16,43.46-2.54-8,3.89-18.41,1.31-18.41,1.31,22.63-5.21,27.43-19.59,27.43-19.59-8.07,10.06-18.68,4.14-18.68,4.14-10.31-13.27-2.92-25.21-2.92-25.21-8.4.31-6.57,20.13-6.57,20.13-14.2-24.49,2.75-29.84,2.75-29.84s-12.7-2.25-13.56,15.75-29.67,18.39-29.67,18.39,16.11,7.62,27.89,1c0,0-9.83,13.42-19.76,9.82,0,0,0,0,0,0l-.38-.19a2.58,2.58,0,0,1-.59-.26Z" transform="translate(-18.1 -64.45)"/>
  <path class="cls-25" d="M104.29,203.62s-16.1,1.51-25.77-8.36-33.17-4.92-42.7,10.82c0,0,14.61-10.93,18.81-5.84,0,0-8.48-1.13-9.71,2.45a7.76,7.76,0,0,1,8.33,2.64s-15-1.87-17.06,3.94c0,0,8.63-6,18.44,2.31s14.48,14.83,30,7.31c0,0-13.41,7.12-19.11-5.32,0,0,7.15,12.27,27.62-.41,0,0-12.59,7.18-18-1,0,0,11.09,5.22,24.11-3.88,0,0-10.27,4.57-16.43-1.92C82.83,206.33,95.85,210.48,104.29,203.62Z" transform="translate(-18.1 -64.45)"/>
  <path class="cls-18" d="M79.2,201.06s-4.49.8-7.12-1.67-9.59-7.57-14.59-5.52c0,0,6.19-.22,8.39,4.6s-1.21,6.52,1.58,10.78c0,0-.72-8.51,3.15-7.2A9.39,9.39,0,0,0,79.2,201.06Z" transform="translate(-18.1 -64.45)"/>
  <path class="cls-25" d="M87,250.1c4,.79,16.16-1.87,16.16-1.87C97.62,251.41,96.54,263,96.54,263c5.76-14.42,27.05-17.16,27.05-17.16.84,14.42-5.67,20.79-5.67,20.79,13.32-13.11,10.85-34.43,10.85-34.43-11.39,16.6-34.63,13.83-34.63,13.83,7.65-3.72,13.19-16.19,13.19-16.19S90.47,241.7,70.21,241.52c0,0-12.35,1.35-18.21-1.37,0,0,18,8.87,36.19,3.51,0,0-67.47,19.78-55.78,68.69,0,0-2.24-34.6,19.35-34.73,0,0-26.65,24.44-10.84,64.85,0,0-15.65-35.53,14.44-58.1,0,0-12,17.1-4.16,31.91,0,0-3.59-26,19.33-37.91,0,0-6.38,9.79-2.27,19.13,0,0-3.67-7.21,8.74-25.24,0,0-11,3.93-13.51,6.93,0,0,9.63-14.2,16.79-17.13,0,0-18,7.1-20.51,13.29,0,0,2.27-12.48,23.74-19.34,0,0-17,1.92-27.81,16.1a45.84,45.84,0,0,1,29.2-21.77Z" transform="translate(-18.1 -64.45)"/>
  <path class="cls-25" d="M267.22,700.3c-13.33,1.77-11.51-10.83-11.51-10.83s6.77,21.53,6.68-13.93,14.9-42.75,14.9-42.75-7,5.55-5.27,24.15c0,0-1,1.15-2.25-6.26,0,0-6.34,5.67-1.63,28.58S267.22,700.3,267.22,700.3Z" transform="translate(-18.1 -64.45)"/>
  <path class="cls-27" d="M286.45,562.08a.17.17,0,0,0-.08-.31,99.53,99.53,0,0,1-17.68-3.29c-9.05-2.66-21.12-.61-21.12-.61-23.92-2.62-44.65,4.24-48.06,5.44a.26.26,0,0,0,0,.47c1.22.82,5,3.43,11.2,8.18,6.91,5.29,14.55,9.61,27.23,6.26a20.15,20.15,0,0,1,9.88,0c5.22,1.26,12.65,2.74,15.11,1.64,0,0,10.46-3.72,17.15-11.21A60.18,60.18,0,0,1,286.45,562.08Z" transform="translate(-18.1 -64.45)"/>
  <path class="cls-25" d="M187.54,649.29C197,637,191,630.88,189.13,630.5a9.41,9.41,0,0,1-3.73-2s2.73,6.3,1.61,11.08c0,0,1.62-5.32.84-7.85,0,0,6.84,5.3-.13,16.82S187.54,649.29,187.54,649.29Z" transform="translate(-18.1 -64.45)"/>
  <path class="cls-13" d="M293.89,188l0,0c-3.05-5.73-12.44-4-12.44-4s10.9-13.27,29.94-5.42S329,215.81,341.29,226c11.82,9.74,37,17.76,48.07,8.93a12.22,12.22,0,0,0,1.28-1.12l-.4-.19a8.83,8.83,0,0,1-.88,1.31c-2.95,3.73-9.83,7-16.28,8.42-3.81.83-7.48,1-10.11.23-9.48-2.86-17.55,3-17.55,3,2.14,3.37,13.52,1.79,13.52,1.79-9.57,5.91-24.09,1.05-24.09,1.05a11.86,11.86,0,0,0,5.41,3.76c5.95,2.18,13.34.89,15.32.48l.22,0,.25-.06-.25.06c-49.93,13.09-49.2-29.31-49.2-29.31-10.17,2.69,1.48,27.17,1.93,28.14l0,0s0,0,0,0c-21.82-9.71-21.66-40.24-21.66-40.24-6.69,2.51-4,16.38-4,16.38-7.24-7.83-.73-30.89.61-35.28l1.51-4.1a2.36,2.36,0,0,1,1.08-1.32c2.34-1.19,7.27,0,7.77.12Z" transform="translate(-18.1 -64.45)"/>
  <path class="cls-28" d="M282.76,563.16a.53.53,0,0,0-.42-.84,95.61,95.61,0,0,1-17-3.08c-6.11-1.83-19.33,0-19.33,0-20-2-38.08,2.87-42.43,4.15a.46.46,0,0,0-.11.83,87.28,87.28,0,0,1,11,7.83c4.47,4,7.82,7.53,26.77,3.94,0,0,8.36.2,13.7,2.27s11.58.78,19.23-6C279.62,567.44,281.89,564.49,282.76,563.16Z" transform="translate(-18.1 -64.45)"/>
  <path class="cls-29" d="M255.31,563.52a25.48,25.48,0,0,1,6.47-2.8c-6.59-1.56-15.94-.73-19.93-.25a14.4,14.4,0,0,1-3.47-.09c-5.53-.71-17.94,1.36-21.93,2.07a.17.17,0,0,0,0,.33c2.51.24,8.16,1.09,11.39,3.92,4.25,3.71,10.53.31,12.41.12s5.74,1,8.45.9S255.31,563.52,255.31,563.52Z" transform="translate(-18.1 -64.45)"/>
  <path class="cls-28" d="M255.05,537.21c1.88-.23,8.27-3.42,14.38,2.56,4.94,4.87,15.35,14.31,21.1,17.23l.2,0-.2,0c-7.55,1.67-22.93-6.86-31.54-5.45s-25.35,1.4-25.35,1.4c-17.46-2.32-39.84,6.56-36.31,3.2s7.37-7.06,15.9-13.95,18.93,0,18.93,0,4.33,3.71,5.62,3.15c0,0,2.06.51,8.43-3.92S255.05,537.21,255.05,537.21Z" transform="translate(-18.1 -64.45)"/>
  <path class="cls-29" d="M273,549.93c-2.33-.26-4.76-2.42-8.25-7.14s-11.93-2.13-11.93-2.13-15.26,6.7-21.11,3.34A17.58,17.58,0,0,0,220,542,16.14,16.14,0,0,0,214,546.2c-3,3.24-6.49,6.21-7.9,6.24,0,0,14.53-3.68,28.64-2.42s22.42-3.83,29.48-.62S273,549.93,273,549.93Z" transform="translate(-18.1 -64.45)"/>
  <path class="cls-26" d="M241.67,151.59s-9.57,18.46-30.47,12.54-25.09,8.14-25.09,8.14c-.36,6.83-5.38,12.87-5.38,12.87,3.64.38,7.83-8.71,7.83-8.71C184.78,193.25,161,201.11,161,201.11s24.14-1.7,31.89-14.88c0,0,3.6,21.67-2.15,30,0,0,7.73-6.79,7.46-27.54,0,0,3,29.19-14.08,35.35,0,0,13.66-1.71,22-17.19,0,0,.76,6.32-3.86,10.23,0,0,10.25-2,12.53-31.75,0,0-3.3,13.93-5.85,17.33,0,0,4.06-14.43-.44-20.76,0,0,2.85-6.69,13.81-8.78S241.67,151.59,241.67,151.59Z" transform="translate(-18.1 -64.45)"/>
  <path class="cls-26" d="M153.46,249.4c-1.6,4.59,6.51,10.86,6.51,10.86-8.2-2.82-13.33-11.9-11.92-22.37a33.18,33.18,0,0,0-3.72-19.21s6.3,2.09,7.93,13.34,8.63,17.82,13.34,19.07c0,0-2.16,1.07-5.77-.48,0,0-.47,6.8,10.85,11.56C160.05,261.4,153.46,249.4,153.46,249.4Z" transform="translate(-18.1 -64.45)"/>
  <path class="cls-18" d="M352.35,234.71c-12,7.71-22.19.6-22.19.6-1.23,4.51,6.31,9.34,6.31,9.34-8.44.57-16-13.46-16-13.46-2.24,7,5.5,13.55,5.5,13.55-12-2.1-13.89-16.29-15-21.92a14.93,14.93,0,0,0-5.37-8.68c-3.8-2.62-6.34,5.54-6.34,5.54-2.39-3.66.88-5.56.88-5.56-3.27-1.81-8.34,10.92-8.34,10.92-2.36-10.94,5.25-11.22,6.95-17.24s-11.08-7.08-11.08-7.08c2.79-4.25,15.77.47,15.77.47-4.39-9.64-11.47-8.61-11.47-8.61,1.47-4.32,12.88,0,12.88,0-.26-9.79-6.78-11.44-6.78-11.44s15-.86,19.55,12.36,16.5,42.62,32.51,41.42Z" transform="translate(-18.1 -64.45)"/>
  <path class="cls-25" d="M203.39,109.43l.11,0c1.61.22,23,2.85,40-8.12l0,0,0,0c-.42.74-8.47,14.09-30.13,12.83,0,0,18.67,12.48,43.13-12s46.25,1.62,46.25,1.62S335.23,151,373,127.36c-16.39,3.57-27.48-4.12-27.48-4.12,10.23-.19,25.59-8.87,25.59-8.87-20.6,7.21-42.38-6.32-43.55-7.09l-.05,0s0,0,.05,0c21.22,8,31.86.24,31.86.24-19.31,2.88-23-10.24-23-10.24,14.73.94,16.53,9,16.53,9-1.55-9.64-22-17.79-33.73-14.18s-25.71-12.74-25.71-12.74A36.21,36.21,0,0,1,316,86.91l.09.09a.54.54,0,0,1-.09-.09c-19.71-21.18-44.66-16.53-66.44,3.36-21,19.18-44.36,19.19-46,19.18" transform="translate(-18.1 -64.45)"/>
  <path class="cls-18" d="M429.48,186.39s9.25,4.37,9.81,19.61c0,0,.38,5.29,6.4,5.47a15.26,15.26,0,0,1-4,.42,14.62,14.62,0,0,0,6.69.51,26.4,26.4,0,0,1-7.74,1.27l10.62,3.68c-.05,0-.12,0-.17,0a8.47,8.47,0,0,1-2.57.19h-.08c-2.8.12-7,0-9.29-1.41a11.82,11.82,0,0,0,7.45,3.47s.74,9.25,9.61,18.53a31.17,31.17,0,0,1-13.63-17.6c-19.88-4-20.69-9-20.71-9.25,1.68,4.35,14,4.77,14,4.77-7.57-7.1-9.85-13.27-10.09-14,0,0,0,0,0-.07l2.07,2.19s4.27,4.95,5.28,3,3.7-5.94,2.26-11.28S429.48,186.39,429.48,186.39Z" transform="translate(-18.1 -64.45)"/>
  <path class="cls-18" d="M436.69,209.47l-.63,2.56.08.07c.17.13.57.45,1.15.84l.09.07.05,0a32.14,32.14,0,0,0,7.05,3.66l-5.32-.55" transform="translate(-18.1 -64.45)"/>
  <path class="cls-18" d="M481,312.36c-3.47,5.86-10.75,8-20.07,10.49s-14.76,20.5-14.76,20.5c-.06-8.07,7.49-23,15-25.86s12.59-12.91,12.59-12.91-1.2,5.68-8.88,12.92c0,0,14.31-1.76,17.13-6.57S481,312.36,481,312.36Z" transform="translate(-18.1 -64.45)"/>
  <path class="cls-18" d="M234.7,684.75c-.57-22.86-11.33-45.72-11.33-45.72s9.72,10.66,11.71,22.16c0,0,3.44-3.29,3-7.06,0,0,2.51,6.1-2.08,16Z" transform="translate(-18.1 -64.45)"/>
  <path class="cls-18" d="M231.6,674.47s-.12-6.7-8.26-11.92-9.67-8.1-9.67-8.1,7.12,6.27,10.21,5.36S232.22,667.58,231.6,674.47Z" transform="translate(-18.1 -64.45)"/>
  <path class="cls-25" d="M257.18,649.41s.14-.67-6.37-9.74-4.19-20.22-4.19-20.22a20.85,20.85,0,0,0,4.35,7.21s1.33-2,1.86-1.85c0,0,.3,9.24,4.19,14.69a15.62,15.62,0,0,1,4.43-5.75S255.63,642.6,257.18,649.41Z" transform="translate(-18.1 -64.45)"/>
  <path class="cls-25" d="M133.64,649.42c-3.53-12.71-2.95-7.14-10.2-23.1s-3.74-25.24-3.74-25.24-2.07,10.79,9.19,28,4.92,21.77,4.92,21.77" transform="translate(-18.1 -64.45)"/>
  <path class="cls-25" d="M183,638.68a14,14,0,0,1-3.19,6.84c-2.62,2.79-4.45,3.76-4.23,8.1,0,0,1.25-4.62,4.53-5.54S183,638.68,183,638.68Z" transform="translate(-18.1 -64.45)"/>
  <path class="cls-25" d="M199.36,640.2s.79,4.9-3.51,11.07-7,12.11-6.79,14c0,0,3.1-8.08,8.64-12.08S199.36,640.2,199.36,640.2Z" transform="translate(-18.1 -64.45)"/>
  <path class="cls-18" d="M177.21,628.33a10.68,10.68,0,0,1-3.8,6.77c-3.45,2.8-3.19,5.06-3.19,5.06a21.2,21.2,0,0,1,6.16-4.86C179.58,633.89,177.21,628.33,177.21,628.33Z" transform="translate(-18.1 -64.45)"/>
  <path class="cls-25" d="M108.71,527.33s-1.36,8.09-3.24,10.21-2.28,14.29-2.1,17.22c0,0,2.91-9.93,5.6-11S108.71,527.33,108.71,527.33Z" transform="translate(-18.1 -64.45)"/>
  <path class="cls-25" d="M131.46,540.05c-3.08-6.32-14.6-4.45-14.6-4.45s3.45,12.17.17,16.29c0,0,4.7-4.66,4.25-10.67,0,0,4.19.83,2.84,11.13s-1.43,12.28-3.78,16.4C120.34,568.75,134.46,546.23,131.46,540.05Z" transform="translate(-18.1 -64.45)"/>
  <path class="cls-18" d="M133.23,535.53c-6.45,2.33-15.61-3.79-15.61-3.79s4.22,9.42,10.36,7.64S133.23,535.53,133.23,535.53Z" transform="translate(-18.1 -64.45)"/>
  <path class="cls-18" d="M137.37,548.53a6.57,6.57,0,0,1-2.42,1.75c-1.47.57-2.06-3.52-2.06-3.52s-2.86,11.62-6.65,15.5Z" transform="translate(-18.1 -64.45)"/>
  <path class="cls-25" d="M134.8,567.08c1.21,5.75-2.44,4.78-2.44,4.78-5.82-2.48,4.28-14.82,4.28-14.82s-5.4,6.6-4.55,10.35S134.8,567.08,134.8,567.08Z" transform="translate(-18.1 -64.45)"/>
  <path class="cls-18" d="M195.23,628.51c-.12-1.49-3.89-5.31-5.92-5.84s-2.06-3.25-2.06-3.25,1.75,3.88,4.94,2.67S195.23,628.51,195.23,628.51Z" transform="translate(-18.1 -64.45)"/>
  <path class="cls-18" d="M196.58,615.17c-1.36,2.4-8.14,3.24-8.14,3.24s5,.37,7.35-1.56S196.58,615.17,196.58,615.17Z" transform="translate(-18.1 -64.45)"/>
  <path class="cls-25" d="M316.06,638.58c8.19,12.8-5.72,31.63-5.72,31.63,3.8-5.79,2.2-19.57-.07-27s-.54-11.28-.54-11.28.31,10.22,3.48,13.12c0,0,3.33-3.33,2.35-7Z" transform="translate(-18.1 -64.45)"/>
  <path class="cls-13" d="M365.64,534.46s-6.21,1.54-6.66,5.43.26,10-1.91,12.5c0,0,4.93-4.82,4.24-9.41S365.64,534.46,365.64,534.46Z" transform="translate(-18.1 -64.45)"/>
  <path class="cls-13" d="M398.11,505.62S394.45,523,384.75,527.8s-10.29,12.87-10.29,12.87,3.42-7.22,6.6-8a19.66,19.66,0,0,0-2.15,20s-4.07-11.2,5.42-21.36S394.15,519.51,398.11,505.62Z" transform="translate(-18.1 -64.45)"/>
  <path class="cls-25" d="M321.06,667.66s9.8-16.2,4.64-26l-8.11-15.33s4.4,8.22,8.76,10.78,9.24,10.82,4.53,18.24A70.63,70.63,0,0,1,321.06,667.66Z" transform="translate(-18.1 -64.45)"/>
  <path class="cls-25" d="M329.57,637.92c.26-3.39,3-9.19.91-10.91a12.17,12.17,0,0,1-3.12-3.9,11.21,11.21,0,0,0,5.31,3.4C335.83,627.29,329.57,637.92,329.57,637.92Z" transform="translate(-18.1 -64.45)"/>
  <path class="cls-25" d="M340.23,655.1s.1-7.68-3.11-12.33a28.85,28.85,0,0,1-1.88-3,10.27,10.27,0,0,1-1.07-6.14,17.25,17.25,0,0,1,.62-2.92s0,6.11,2.62,8.53S341.75,650.26,340.23,655.1Z" transform="translate(-18.1 -64.45)"/>
  <path class="cls-12" d="M418.14,479.58s5.15-4.63,6.59-3.33-8.54,13.44-10.71,12.36,2.59,4.33,6.61,1.08S429,478.17,429,476,423.56,468.81,418.14,479.58Z" transform="translate(-18.1 -64.45)"/>
  <path class="cls-25" d="M120.16,553.63a19.38,19.38,0,0,1-8.1,6.26c1.2-7.34-.75-12.19-.75-12.19s-7.48,11.47-6.06,23.29a13.37,13.37,0,0,1,6-7.79C116,560.63,120.16,553.63,120.16,553.63Z" transform="translate(-18.1 -64.45)"/>
  <path class="cls-26" d="M249.06,526.92c-7.13,1.6-9.93-7.53-8.45-10.53a5.53,5.53,0,0,0,.11-5.2,6.64,6.64,0,0,1,1.74,5.89,8.05,8.05,0,0,0,2.23-2.2A12.35,12.35,0,0,1,243,519.3c-1.25,1.68,0,8,6.26,7.65" transform="translate(-18.1 -64.45)"/>
  <path class="cls-26" d="M263.1,510.93c-.48.41-3.34-.88-5-2.49a8.39,8.39,0,0,0-4-2s2.82.7,3.87,2.74S263.1,510.93,263.1,510.93Z" transform="translate(-18.1 -64.45)"/>
  <path class="cls-26" d="M268.1,515.22a4.4,4.4,0,0,1-5.33-.77,13.25,13.25,0,0,0-4.23-2.94,13.37,13.37,0,0,1,3.44,3.93C263.14,517.68,266.73,516.53,268.1,515.22Z" transform="translate(-18.1 -64.45)"/>
  <path class="cls-26" d="M272,533.24c-1.69-2.61.4-4,1.37-4.84a4.19,4.19,0,0,0,1-4.37,3,3,0,0,1,.64-3c-1.62.11-1.44,2.38-1.73,3.74a2.19,2.19,0,0,1-1.28,1.69c1-5.32-1.44-8.18-1.44-8.18,1.94,1.9-.86,6.72-.86,6.72.24-3.91-1.12-5.06-1.12-5.06a2.09,2.09,0,0,1,.27,2.34c-1.3-2.8-4.93-3.73-4.93-3.73s1.94.11,2.74,3.12-2.06,5.32,4.19,10.69Z" transform="translate(-18.1 -64.45)"/>
  <path class="cls-18" d="M302.09,539.87c-3,2.08-10.33,1.91-10.33,1.91s4.51.85,6.74.31A7.18,7.18,0,0,0,302.09,539.87Z" transform="translate(-18.1 -64.45)"/>
  <path class="cls-18" d="M303,542.12c-3.13,2.79-9,.5-9,.5s3.79,3.07,6.92,2.53c0,0,1.86-2.07,2.15-2.53S303,542.12,303,542.12Z" transform="translate(-18.1 -64.45)"/>
  <path class="cls-18" d="M299.76,534.23s-3.5,3.35-6.53,4.4c0,0,3.08,0,4.77-1.13A4.37,4.37,0,0,0,299.76,534.23Z" transform="translate(-18.1 -64.45)"/>
  <path class="cls-19" d="M223,491l-.73.37s-18.81,5-18.41-2.87C204.18,481.7,215,485,223,491Z" transform="translate(-18.1 -64.45)"/>
  <path class="cls-30" d="M246.77,491.21c-.18.15-.37.32-.55.5" transform="translate(-18.1 -64.45)"/>
  <path class="cls-19" d="M271.39,494.05c-.47,3.72-16.63,3-24.62-2.84a16.4,16.4,0,0,1,9.64-3.86C269.12,486.21,271.88,490.07,271.39,494.05Z" transform="translate(-18.1 -64.45)"/>
  <path class="cls-19" d="M229.22,494.62c-14.81,8.81-23.39,4.89-23.39,4.89-17-8-12.57-21.35-6.49-30.13a111.25,111.25,0,0,0,9.12-15.46s-4.07,6.58-7.55,9.82-17.15,21.92-3.19,33.15,22.61,4.87,31-1.28Z" transform="translate(-18.1 -64.45)"/>
  <path class="cls-19" d="M243.22,493.93c47.13,18.88,39.31-16.72,34.09-22.23s-6.75-8.38-6.75-8.38,3.32,4.2,5.78,5.66,12.65,18.72,6.39,26-15.72,14.73-39.38.09Z" transform="translate(-18.1 -64.45)"/>
  <path class="cls-18" d="M436.12,474.8c9-15.46,5.21-23.65,1.44-25.1s-8.63,6.71-8.63,6.71,6.83-5.64,8.37-4.47,3.64,14.37-1.44,23.43Z" transform="translate(-18.1 -64.45)"/>
  <path class="cls-3" d="M408,520.32s.59-4.82,1.8-5.69,5.24-2.66,6.72-4.42A53.52,53.52,0,0,0,411.7,516,28.05,28.05,0,0,1,408,520.32Z" transform="translate(-18.1 -64.45)"/>
  <path class="cls-18" d="M434.75,436.43s-9.28,5.27-15.8,35.33-7,35.22-8.7,35.91,4.06-35.15,4.06-35.15S422.86,440.65,434.75,436.43Z" transform="translate(-18.1 -64.45)"/>
  <path class="cls-31" d="M167.16,402.48l16.74-1.93S174,394.4,167.16,402.48Z" transform="translate(-18.1 -64.45)"/>
  <path class="cls-32" d="M315,410.67l16.75-1.94S321.85,402.58,315,410.67Z" transform="translate(-18.1 -64.45)"/>
  <path class="cls-33" d="M413.29,399c-4-1.26-16.42-4.67-20.6-5.8-.8-2.06-3.5-.57-3.5-.57-10.45-3.38-53.05-7.63-70.71-9.27s-55,5.49-68.38,8.78a47.94,47.94,0,0,1-25.48-1.2s-31.23-7.72-62.12-10.71-79.36,6.37-79.36,6.37c.49,11.71,4.25,14.12,4.25,14.12,15.76,2.31,11.69,16.12,18.26,37.18s15.13,27.05,15.13,27.05c20.51,11.17,31.46,9.67,54.16,9.45s33.18-20.64,36.68-26.07,9.3-23.57,11.13-28.37,5.13-12.37,15.81-12.53,17.79,19.82,17.79,19.82c12.09,32.91,22.7,39.69,22.7,39.69,21.53,14.3,33.42,13.36,55.39,12.79s30.53-11.61,35.22-20,11.23-38.84,12.5-44.66,7.58-6.34,7.58-6.34c2.78-.32,3.54-2.66,3.62-5.47,8.38,1.26,23.05,6.77,23.05,6.77S418,400.52,413.29,399ZM207.78,445.28c-7.12,23.29-30.89,27.14-47,25.72s-33.87-3-41.44-16.79-12.84-39.34-10.44-52.5,24.26-14.81,24.26-14.81c17.24-1.79,70.42-.51,76.21,13.64S214.9,422,207.78,445.28Zm162.33-11.82c.9,9.48-7,33.33-19.39,37.81s-28.1,6.31-49.47.7-28.31-18.11-35.55-41.27,3.87-32.54,3.87-32.54c17.86-11.66,69.19-9.31,86.87,0S369.25,424,370.11,433.46Z" transform="translate(-18.1 -64.45)"/>
</svg>