<?xml version="1.0" encoding="utf-8"?>
<!-- Generator: Adobe Illustrator 23.0.5, SVG Export Plug-In . SVG Version: 6.00 Build 0)  -->
<svg version="1.1" id="Layer_1" xmlns="http://www.w3.org/2000/svg" xmlns:xlink="http://www.w3.org/1999/xlink" x="0px" y="0px"
	 viewBox="0 0 2500 2500" style="enable-background:new 0 0 2500 2500;" xml:space="preserve">
<path d="M1250,0C559.6,0,0,559.6,0,1250s559.6,1250,1250,1250s1250-559.6,1250-1250S1940.4,0,1250,0z M1426.7,1912.3
	c-30.8,31-64.1,59.5-99.6,85.1c-0.5,0-1.1,0-1.6,0c-13.3,21-25.4,42-27.6,67.4l-0.1,0.1c-2.2,16.6-5.5,34.3-4.4,52v101.8l3.3,36.5
	c0,4.5-1.1,10-7.7,10c-8.9-6.6-18.8-7.7-27.7-11c-22-8.9-20.9-3.3-20.9-29.8v-22.2c-3.4-60.8-8.8-120.5-28.7-179.2
	c-0.9-2.7-1.1-4.7-1.1-6.6c-34.3-26.6-67.4-54.3-98.3-84.1c-126.1-123.8-223.4-266.5-277.6-436.8c-19.9-64.1-45.3-286.4-39.8-349.4
	c12-174.7,54.6-340.6,137-495.4c62-115,139.4-217.9,237.7-303c17.7-15.5,35.3-29.9,48.7-48.7c12.1-18.9,19.9-38.7,18.8-60.9
	c2.2-2.2,4.4-5.5,6.7-1.1l0,3.4l54.2,101.7c12.2,18.8,25.4,35.4,40.9,50.9c45.6,45,88,93,127.1,143.8
	c91.8,120.5,153.7,254.4,197.9,399.2c26.5,88.4,40.9,179.2,42,270.9C1710.3,1481.1,1616.2,1716.6,1426.7,1912.3z"/>
</svg>
