<?xml version="1.0" encoding="utf-8"?>
<!-- Generator: Adobe Illustrator 23.0.5, SVG Export Plug-In . SVG Version: 6.00 Build 0)  -->
<svg version="1.1" id="Layer_1" xmlns="http://www.w3.org/2000/svg" xmlns:xlink="http://www.w3.org/1999/xlink" x="0px" y="0px"
	 viewBox="0 0 2270 2500" style="enable-background:new 0 0 2270 2500;" xml:space="preserve">
<path d="M2221.6-0.9H48.4C21.7-0.9,0,20.8,0,47.5v2405c0,26.7,21.7,48.4,48.4,48.4h2173.3c26.7,0,48.4-21.7,48.4-48.4V47.5
	C2270,20.8,2248.4-0.9,2221.6-0.9z M2114.6,2211.6c-18.7-6.7-28-24-42.6-34.6c-29.3-20-58.6-44-87.9-62.6
	c-50.6-32-109.3-50.6-161.3-82.6c-29.3-18.7-57.3-40-85.3-61.3c-25.3-18.7-53.3-54.7-69.3-81.3c-9.3-14.7-10.7-32-21.3-42.6
	c2.7-25.3,34.7-25.3,54.6-33.3c69.3-29.3,151.9-40,258.5-37.3c-4-26.6-70.6-60-91.9-76c-42.7-30.6-88-62.6-133.3-90.6
	c-24-14.7-65.3-25.3-91.9-37.3c-36-14.7-115.9-29.3-135.9-57.3c-40-52-66.6-115.9-94.6-178.6c-28-64-62.6-130.6-90.6-195.9
	c-14.7-32-21.3-60-37.3-90.6c-97.3-187.9-241.2-345.1-415.8-455.7c-57.3-36-121.3-69.3-191.9-91.9c-40-12-87.9-5.3-130.6-14.7h-28
	c-24-6.7-44-32-62.6-45.3c-41.3-28-82.6-46.7-131.9-66.6c-17.3-8-66.6-26.7-83.9-12c-10.7,2.7-16,6.7-18.7,17.3
	c-10.7,16-1.3,40,5.3,54.6c20,42.6,48,68,73.3,103.9c22.7,32,50.6,67.9,66.6,102.6C401,716.5,417,799.1,449,873.8
	c12,28,30.6,60,48,85.3c14.7,20,41.3,34.6,49.3,60c16,26.6-24,114.6-33.3,142.6c-34.7,109.3-28,261.2,12,355.8
	c16,37.3,30.7,81.3,73.3,92c2.7-2.7,0-1.3,5.3-2.7c9.3-73.3,12-143.9,37.3-201.2c14.7-36,44-61.3,64-90.6c13.3,8,13.3,32,21.3,48
	c17.3,41.3,36,86.6,57.3,127.9c44,85.3,93.3,167.9,149.2,242.5c18.7,26.7,45.3,56,69.3,79.9c10.7,9.3,22.7,14.7,30.7,26.7h2.7v4
	c-40-14.7-65.3-56-97.3-79.9c-60-45.3-131.9-113.3-173.2-178.6c-17.3-37.3-36-73.3-54.6-110.6v-2.7c-8,10.7-5.3,21.3-9.3,37.3
	c-17.3,66.6-4,142.6-64,166.6c-68,28-118.6-45.3-139.9-78.6c-68-110.6-86.6-297.1-38.6-447.7c10.7-33.3,12-73.3,30.7-99.9
	c-4-24-22.7-30.6-33.3-45.3C437,979,421,949.7,406.3,921.7c-28-54.6-48-119.9-69.3-178.6c-9.3-24-12-48-21.3-70.6
	c-16-34.7-45.3-69.3-68-99.9c-30.6-44-119.9-129.3-83.9-215.9c56-137.3,251.9-33.3,327.8,14.7c18.7,12,40,37.3,61.3,46.6
	c33.3,1.3,66.6,4,99.9,5.3C715.5,438,774.1,450,823.4,478c229.2,134.6,378.4,271.8,515.7,498.4c29.3,48,44,99.9,67.9,151.9
	c33.3,77.3,70.6,158.6,109.3,231.8c17.3,34.7,30.6,73.3,54.6,102.6c9.3,13.3,36,17.3,52,25.3c44,22.7,97.3,40,138.6,66.6
	c77.3,48,151.9,105.3,219.9,163.9c25.3,22.6,42.6,54.6,66.6,78.6v12c-21.3,6.7-42.6,13.3-63.9,18.7c-46.6,12-87.9,9.3-133.3,21.3
	c-28,8-62.6,18.7-91.9,21.3c1.3,1.3,2.7,2.7,2.7,2.7c17.3,49.3,110.6,89.3,153.2,118.6c52,37.3,99.9,82.6,138.6,134.6
	c13.3,13.3,26.7,25.3,40,38.6c9.3,13.3,12,30.7,21.3,42.7V2211.6z M652.8,676.5c0,32-9.3,53.3-28,66.6c0,0-1.3,1.3-2.7,2.7
	c-10.7-21.3-20-42.7-30.6-64c-13.3-18.7-32-33.3-42.6-54.6h-2.7v-2.7c16-4,32-6.7,54.6-6.7c10.7,10.7,28,17.3,36,30.7
	C643.5,657.9,644.8,667.2,652.8,676.5z"/>
</svg>
