<?xml version="1.0" encoding="utf-8"?>
<!-- Generator: Adobe Illustrator 23.0.5, SVG Export Plug-In . SVG Version: 6.00 Build 0)  -->
<svg version="1.1" id="Layer_1" xmlns="http://www.w3.org/2000/svg" xmlns:xlink="http://www.w3.org/1999/xlink" x="0px" y="0px"
	 viewBox="0 0 2270 2500" style="enable-background:new 0 0 2270 2500;" xml:space="preserve">
<g>
	<path d="M2270.4,1247.2c0-150.4-188.4-293-477.2-381.4c66.7-294.4,37-528.6-93.5-603.6c-30.1-17.6-65.3-25.9-103.7-25.9v103.2
		c21.3,0,38.4,4.2,52.8,12c62.9,36.1,90.3,173.6,69,350.4c-5.1,43.5-13.4,89.3-23.6,136.1c-90.7-22.2-189.8-39.3-293.9-50.5
		c-62.5-85.6-127.3-163.4-192.6-231.4C1358.6,415.9,1500.2,339,1596.5,339V235.8c-127.3,0-293.9,90.7-462.4,248.1
		C965.6,327.5,799,237.7,671.7,237.7v103.2c95.8,0,237.9,76.4,388.8,215.7c-64.8,68-129.6,145.3-191.2,231
		c-104.6,11.1-203.7,28.2-294.4,50.9c-10.6-46.3-18.5-91.2-24.1-134.2C529.1,527.4,556,390,618.4,353.4c13.9-8.3,31.9-12,53.2-12
		V238.1c-38.9,0-74.1,8.3-104.6,25.9C437,339,407.8,572.8,475,866.3c-287.9,88.9-475.4,231-475.4,380.9
		c0,150.4,188.4,293,477.2,381.4c-66.7,294.4-37,528.6,93.5,603.6c30.1,17.6,65.3,25.9,104.1,25.9c127.3,0,293.9-90.7,462.4-248.1
		c168.5,156.4,335.1,246.2,462.4,246.2c38.9,0,74.1-8.3,104.6-25.9c130.1-75,159.2-308.7,92.1-602.2
		C2083,1539.7,2270.4,1397.2,2270.4,1247.2L2270.4,1247.2z M1667.8,938.5c-17.1,59.7-38.4,121.3-62.5,182.8
		c-19-37-38.9-74.1-60.6-111.1c-21.3-37-44-73.1-66.7-108.3C1543.7,911.6,1607.1,923.6,1667.8,938.5L1667.8,938.5z M1455.8,1431.4
		c-36.1,62.5-73.1,121.7-111.6,176.8c-69,6-138.9,9.3-209.2,9.3c-69.9,0-139.8-3.2-208.3-8.8c-38.4-55.1-75.9-113.9-112-175.9
		c-35.2-60.6-67.1-122.2-96.3-184.2c28.7-62,61.1-124,95.8-184.7c36.1-62.5,73.1-121.7,111.6-176.8c69-6,138.9-9.3,209.2-9.3
		c69.9,0,139.8,3.2,208.3,8.8c38.4,55.1,75.9,113.9,112,175.9c35.2,60.6,67.1,122.2,96.3,184.2
		C1522.4,1308.8,1490.5,1370.8,1455.8,1431.4L1455.8,1431.4z M1605.3,1371.2c25,62,46.3,124,63.9,184.2
		c-60.6,14.8-124.5,27.3-190.7,37c22.7-35.6,45.4-72.2,66.7-109.7C1566.4,1445.8,1586.3,1408.3,1605.3,1371.2L1605.3,1371.2z
		 M1135.9,1865.1c-43-44.4-86.1-94-128.7-148.1c41.7,1.9,84.2,3.2,127.3,3.2c43.5,0,86.6-0.9,128.7-3.2
		C1221.6,1771.2,1178.5,1820.7,1135.9,1865.1z M791.6,1592.5c-65.7-9.7-129.1-21.8-189.8-36.6c17.1-59.7,38.4-121.3,62.5-182.8
		c19,37,38.9,74.1,60.6,111.1C746.7,1521.2,768.9,1557.3,791.6,1592.5z M1133.6,629.3c43,44.4,86.1,94,128.7,148.1
		c-41.7-1.9-84.2-3.2-127.3-3.2c-43.5,0-86.6,0.9-128.7,3.2C1048,723.2,1091,673.7,1133.6,629.3z M791.1,901.9
		c-22.7,35.6-45.4,72.2-66.7,109.7c-21.3,37-41.2,74.1-60.2,111.1c-25-62-46.3-124-63.9-184.2C661,924.1,724.9,911.6,791.1,901.9
		L791.1,901.9z M372.2,1481.4c-163.9-69.9-269.9-161.5-269.9-234.2s106-164.8,269.9-234.2c39.8-17.1,83.3-32.4,128.2-46.7
		c26.4,90.7,61.1,185.1,104.1,281.9c-42.6,96.3-76.8,190.2-102.8,280.5C456,1514.3,412.5,1498.5,372.2,1481.4L372.2,1481.4z
		 M621.2,2142.8c-62.9-36.1-90.3-173.6-69-350.4c5.1-43.5,13.4-89.3,23.6-136.1c90.7,22.2,189.8,39.3,293.9,50.5
		c62.5,85.6,127.3,163.4,192.6,231.4c-150.9,140.2-292.5,217.1-388.8,217.1C652.7,2154.9,635.1,2150.7,621.2,2142.8L621.2,2142.8z
		 M1719.1,1790.1c21.8,176.8-5.1,314.3-67.6,350.9c-13.9,8.3-31.9,12-53.2,12c-95.8,0-237.9-76.4-388.8-215.7
		c64.8-68,129.6-145.3,191.2-231c104.6-11.1,203.7-28.2,294.4-50.9C1705.7,1702.2,1714.1,1747.1,1719.1,1790.1z M1897.3,1481.4
		c-39.8,17.1-83.3,32.4-128.2,46.7c-26.4-90.7-61.1-185.1-104.1-281.9c42.6-96.3,76.8-190.2,102.8-280.5
		c45.8,14.3,89.3,30.1,130.1,47.2c163.9,69.9,269.9,161.5,269.9,234.2C2167.2,1319.9,2061.2,1412,1897.3,1481.4L1897.3,1481.4z"/>
	<circle cx="1134.5" cy="1247.2" r="211.5"/>
</g>
</svg>
