<svg xmlns="http://www.w3.org/2000/svg" viewBox="0 0 1178.5 286.98">
  <defs>
    <style>
      .cls-1 {
        fill: none;
        stroke: #badc58;
        stroke-linecap: round;
        stroke-linejoin: round;
        stroke-width: 25px;
        stroke-dasharray: 4000;
        stroke-dashoffset: 4000;
        animation: write 5.5s linear 0.2s forwards;
      }

      @keyframes write {
        to {
            stroke-dashoffset: 0;
        }
      }
    </style>
  </defs>
  <g id="Layer_2" data-name="Layer 2">
    <g id="Layer_2-2" data-name="Layer 2">
      <path class="cls-1" d="M12.5,247.75s22,32,56,10,53.06-137.34,91-118.17,16.85,125.9,16.85,125.9,42.74-146.35,80.43-128,14.13,128,14.13,128S311.61,123,352.55,135.85c36.2,11.41-7.08,92.61,41,121.16A51.92,51.92,0,0,0,433,262.23c47.56-12.23,74.48-47,89-69.68,16-25,12.5-64.5-15.85-66.69C477.59,123.64,458,149.55,455,187.55c-2.59,32.86,17.57,72.55,77.82,69.43,56.65-2.93,121-100.81,146-142.49A127.18,127.18,0,0,0,696.5,62.7C703.34-.95,655.57-2.82,640,50c-18,61-27.42,217.94-27.42,217.94S615,153,675,148s32,70,32,70-14.88,41.82,15.84,49.49a34.92,34.92,0,0,0,31.26-7.86c18.19-15.83,54.75-53.95,64.4-111.13,0,0-28,101,20,122,0,0,41,17,68-25,27.58-42.9,25-99,25-99s-26,124,30.27,127.94c16.07,1.12,30.65-9.94,43.26-20,26.68-21.25,78.42-73,100.92-139.47,29.15-86.16,1.73-106.89-24-92-28.5,16.5-74,173-33,227s117-16,117-16" />
    </g>
  </g>
</svg>