<?xml version="1.0" encoding="utf-8"?>
<!-- Generator: Adobe Illustrator 23.0.5, SVG Export Plug-In . SVG Version: 6.00 Build 0)  -->
<svg version="1.1" id="Layer_1" xmlns="http://www.w3.org/2000/svg" xmlns:xlink="http://www.w3.org/1999/xlink" x="0px" y="0px"
	 viewBox="0 0 2270 2500" style="enable-background:new 0 0 2270 2500;" xml:space="preserve">
<path d="M718.3,2500c230,0,416.7-186.7,416.7-416.7v-416.7H718.3c-230,0-416.7,186.7-416.7,416.7S488.3,2500,718.3,2500z"/>
<path d="M301.7,1250c0-230,186.7-416.7,416.7-416.7H1135v833.3H718.3C488.3,1666.7,301.7,1480,301.7,1250z"/>
<path d="M301.7,416.7C301.7,186.7,488.3,0,718.3,0H1135v833.3H718.3C488.3,833.3,301.7,646.7,301.7,416.7z"/>
<path d="M1135,0h416.7c230,0,416.7,186.7,416.7,416.7s-186.7,416.7-416.7,416.7H1135V0z"/>
<path d="M1968.3,1250c0,230-186.7,416.7-416.7,416.7S1135,1480,1135,1250s186.7-416.7,416.7-416.7S1968.3,1020,1968.3,1250z"/>
</svg>
