<?xml version="1.0" encoding="utf-8"?>
<!-- Generator: Adobe Illustrator 23.0.5, SVG Export Plug-In . SVG Version: 6.00 Build 0)  -->
<svg version="1.1" id="Layer_1" xmlns="http://www.w3.org/2000/svg" xmlns:xlink="http://www.w3.org/1999/xlink" x="0px" y="0px"
	 viewBox="0 0 2500 2500" style="enable-background:new 0 0 2500 2500;" xml:space="preserve">
<path d="M2452.9,1138.6L1361.3,47.1c-62.8-62.9-164.8-62.9-227.7,0L907,273.8l287.5,287.5c66.8-22.6,143.4-7.4,196.7,45.8
	c53.5,53.6,68.6,130.9,45.4,197.9l277.1,277.1c67-23.1,144.4-8.2,197.9,45.5c74.8,74.8,74.8,196,0,270.9
	c-74.9,74.9-196.1,74.9-271,0c-56.3-56.3-70.2-139-41.7-208.4l-258.4-258.4l0,680c18.7,9.3,35.8,21.5,50.7,36.2
	c74.8,74.8,74.8,196.1,0,271c-74.9,74.8-196.2,74.8-270.9,0c-74.8-74.9-74.8-196.2,0-271c17.9-17.9,39.2-32.2,62.7-41.8V919.9
	c-23.5-9.6-44.8-23.8-62.7-41.8c-56.7-56.6-70.3-139.8-41.3-209.4L795.6,385.2L47.2,1133.6c-62.9,62.9-62.9,164.9,0,227.8
	l1091.5,1091.5c62.8,62.9,164.8,62.9,227.7,0l1086.4-1086.4C2515.7,1303.5,2515.7,1201.5,2452.9,1138.6"/>
</svg>
