<svg xmlns="http://www.w3.org/2000/svg" viewBox="0 0 77.76 46.36"><defs><style>.cls-1{font-size:20px;font-family:DMSans-Medium, DM Sans;font-weight:500;}.cls-1,.cls-6{fill:#231f20;}.cls-2{letter-spacing:-0.01em;}.cls-3{letter-spacing:-0.01em;}.cls-4{letter-spacing:0em;}.cls-5{fill:#ed2024;}</style></defs><title>Asset 12</title><g id="Layer_2" data-name="Layer 2"><g id="Layer_1-2" data-name="Layer 1"><text class="cls-1" transform="translate(0 30.63)">P<tspan class="cls-2" x="11.86" y="0">r</tspan><tspan x="19.18" y="0">oje</tspan><tspan class="cls-3" x="47.94" y="0">c</tspan><tspan class="cls-4" x="59.44" y="0">ts</tspan></text><path class="cls-5" d="M13.58,36.21a33.38,33.38,0,0,0,11.1,7.19,46.82,46.82,0,0,0,12.85,3.18l3.31.23c1.1.06,2.21,0,3.32,0a28.18,28.18,0,0,0,3.31-.13l3.31-.26c2.2-.18,4.38-.63,6.59-.89,2.17-.45,4.34-.93,6.54-1.33,0,0,.06,0,.06,0s0,.05,0,.06c-2.12.67-4.27,1.32-6.43,1.91-1.1.23-2.2.43-3.3.64l-1.66.32-.82.15-.84.09a50.44,50.44,0,0,1-6.73.39c-1.12,0-2.25,0-3.37-.08l-3.35-.34a47.17,47.17,0,0,1-12.95-3.51,33.37,33.37,0,0,1-11-7.59,0,0,0,1,1,.07-.07Z" transform="translate(0 -2.14)"/><path class="cls-5" d="M59.34,42.48a9.52,9.52,0,0,0,3.81,1.18,10.92,10.92,0,0,0,2,0,14.1,14.1,0,0,0,2-.29l.12.78a10.18,10.18,0,0,0-1.92.54,12.16,12.16,0,0,0-1.79.83A6.67,6.67,0,0,0,62,46.74a5.43,5.43,0,0,0-1,1.72.05.05,0,0,1-.07,0s0,0,0,0a4,4,0,0,1,.54-2.13A5.32,5.32,0,0,1,63,44.71a6.74,6.74,0,0,1,2-.91,11,11,0,0,1,2.15-.4h0a.39.39,0,0,1,.43.36.4.4,0,0,1-.34.42,12.26,12.26,0,0,1-2.09.16,11.1,11.1,0,0,1-2.08-.19,9.94,9.94,0,0,1-3.79-1.59,0,0,0,0,1,0-.07,0,0,0,0,1,.06,0Z" transform="translate(0 -2.14)"/><path class="cls-6" d="M45.39,12.62h-.07s-.06,0-.09,0a.19.19,0,0,1,0-.1,1.34,1.34,0,0,1,0-.26V12a.74.74,0,0,0,0-.18v-.11a.35.35,0,0,0,0-.12.43.43,0,0,0,0-.17.9.9,0,0,0,0-.18.21.21,0,0,1,0-.18.57.57,0,0,1,0-.14.68.68,0,0,0,0-.12,3,3,0,0,1,0-.37c0-.18,0-.39.06-.61s0-.46.08-.67,0-.41.08-.56a1.87,1.87,0,0,0,0-.37.69.69,0,0,0,0-.22V7.93l0-.09c0-.06.08-.08.12-.07l.15.06a.58.58,0,0,1,.11.13.41.41,0,0,1,0,.22.46.46,0,0,1,0,.2,1,1,0,0,1,0,.13s0,0,0,0a1.52,1.52,0,0,1,.49-.25.74.74,0,0,1,.39,0,.63.63,0,0,1,.28.2.76.76,0,0,1,.16.35.66.66,0,0,1,0,.2.93.93,0,0,1,0,.24.57.57,0,0,1-.06.15.1.1,0,0,0,0,.06s0,.08,0,.12a.82.82,0,0,1-.14.2,1.3,1.3,0,0,1-.22.19c-.07,0-.13.08-.17.07a0,0,0,0,0,0,0l-.1.08-.25.15a1.09,1.09,0,0,1-.25.09.34.34,0,0,1-.23,0s0,0,0,.05a.11.11,0,0,0,0,0,.46.46,0,0,1,0,.17,1.94,1.94,0,0,1,0,.24c0,.07,0,.12-.06.12a.08.08,0,0,0,0,.08.43.43,0,0,1,0,.23.65.65,0,0,1,0,.17.87.87,0,0,1,0,.18,1.09,1.09,0,0,1,0,.18s0,.08,0,.09,0,0,0,.1a.89.89,0,0,1,0,.11.54.54,0,0,1,0,.29A.2.2,0,0,1,45.39,12.62Zm.35-2.56A.73.73,0,0,0,46,10a2.49,2.49,0,0,0,.34-.2.86.86,0,0,0,.24-.21,1.23,1.23,0,0,0,.21-.43.41.41,0,0,0-.1-.4.2.2,0,0,0-.23,0,1,1,0,0,0-.3.19,2.21,2.21,0,0,0-.28.32.88.88,0,0,0-.1.26,1.67,1.67,0,0,0-.06.29.67.67,0,0,0,0,.24C45.69,10,45.71,10.07,45.74,10.06Z" transform="translate(0 -2.14)"/><path class="cls-6" d="M48.39,10.08h-.17l-.08,0a.22.22,0,0,1-.07-.07.46.46,0,0,1,0-.16,1,1,0,0,1,.08-.32,1,1,0,0,0,0-.23,3,3,0,0,0,0-.33c0-.11,0-.21,0-.31a1.52,1.52,0,0,1,0-.19.31.31,0,0,0,0-.17s-.07,0-.14,0H48s-.05-.05-.07-.14a.33.33,0,0,1,0-.15L48,7.85a.57.57,0,0,1,.13-.08l.14,0a.25.25,0,0,1,.13,0s.07,0,.09.11l.06.19,0,.15.16-.2a3,3,0,0,0,.18-.25,2.51,2.51,0,0,1,.23-.21.51.51,0,0,1,.21-.13h.16c.06,0,.11,0,.13.08a.46.46,0,0,1,.12.19.39.39,0,0,1,0,.21.5.5,0,0,1-.15.17l-.13.06s-.06,0-.12,0A.19.19,0,0,1,49.26,8s0,0-.08.06L49,8.25l-.15.2a2.8,2.8,0,0,0-.16.45c-.06.19-.12.42-.19.69a3,3,0,0,0-.06.33A.17.17,0,0,1,48.39,10.08Z" transform="translate(0 -2.14)"/><path class="cls-6" d="M50.56,9.58a.28.28,0,0,0-.09-.07s0,0-.06,0a.14.14,0,0,0,0-.06.07.07,0,0,0,0-.05s0-.09,0-.2a1.83,1.83,0,0,1,.06-.41c0-.16.08-.33.13-.52a.54.54,0,0,0,.08-.17l.06-.14a.13.13,0,0,1,0-.06.05.05,0,0,1,.05,0V7.77s0-.06,0-.13a1.64,1.64,0,0,1,.12-.22L51,7.17A.9.9,0,0,1,51.17,7a.77.77,0,0,1,.29-.19.36.36,0,0,1,.29,0l.08.06L52,7l.17.1.31.18-.05.38a1,1,0,0,0,.06.5,1.23,1.23,0,0,0,.21.34.41.41,0,0,0,.18.12.49.49,0,0,0,.23,0,.2.2,0,0,1,.11,0,.14.14,0,0,1,.08.1.16.16,0,0,1,0,.12s0,.06-.08.08a.61.61,0,0,1-.46,0,1.27,1.27,0,0,1-.48-.39.73.73,0,0,1-.1-.14l-.09-.14A1.2,1.2,0,0,1,52,8.4l-.09.17a3.43,3.43,0,0,1-.72.87A.62.62,0,0,1,50.56,9.58Zm.32-.48a1.41,1.41,0,0,0,.29-.27,6.08,6.08,0,0,0,.38-.56,3.83,3.83,0,0,0,.3-.54l.1-.29a.57.57,0,0,0-.2-.19.22.22,0,0,0-.15,0c-.06,0-.14.09-.24.23a3.5,3.5,0,0,0-.29.53,6.55,6.55,0,0,0-.25.71,3.65,3.65,0,0,0-.09.44S50.78,9.15,50.88,9.1Z" transform="translate(0 -2.14)"/><path class="cls-6" d="M54.64,8.78a.44.44,0,0,1-.2.08,1.34,1.34,0,0,1-.35,0l-.06,0-.11-.05-.1-.09a.76.76,0,0,1-.19-.46,2.86,2.86,0,0,1,0-.81,2.08,2.08,0,0,1,.1-.3,2.83,2.83,0,0,1,.14-.35A.53.53,0,0,1,54,6.59l.25-.18.07,0,.1,0,.08,0a.74.74,0,0,1,.32,0,1.46,1.46,0,0,1,.3.17c.08.07.12.14.11.2l0,.06a.36.36,0,0,1-.07.1.47.47,0,0,0-.06.09A.11.11,0,0,1,55,7a.19.19,0,0,1-.12,0,.32.32,0,0,1-.08-.13.46.46,0,0,0-.22-.11s-.09,0-.14.14a2.37,2.37,0,0,0-.15.28,1.39,1.39,0,0,0-.16.35,2.83,2.83,0,0,0-.07.36,2.23,2.23,0,0,1,0,.23.32.32,0,0,0,0,.2.47.47,0,0,0,.08.15l.15,0,.27-.09.31-.13a1.57,1.57,0,0,0,.23-.13.54.54,0,0,1,.22-.15.29.29,0,0,1,.14,0c.06,0,.1,0,.11.06a.09.09,0,0,1,0,.11.48.48,0,0,1-.14.16,1.49,1.49,0,0,0-.18.17q-.08.09-.06.12l-.06,0,0,0-.11,0-.19.09Z" transform="translate(0 -2.14)"/><path class="cls-6" d="M56.85,8.45a.3.3,0,0,1-.17,0,.57.57,0,0,1-.18-.12.6.6,0,0,1-.11-.14l0-.05s-.05-.07-.07-.19a3.06,3.06,0,0,1-.07-.37c0-.14,0-.25,0-.34s0-.19,0-.33,0-.26.05-.38l.1-.45-.3,0L56,6a.23.23,0,0,1,0-.07.24.24,0,0,1,0-.15c0-.06.05-.1.07-.1l.13,0,.19,0,.11,0s0,0,.05,0l0-.08,0-.16a1.36,1.36,0,0,1,0-.17l.05-.17a1.65,1.65,0,0,1,.07-.2,1.21,1.21,0,0,1,0-.14.39.39,0,0,1,.08-.14A.18.18,0,0,1,57,4.35a.49.49,0,0,1,.19.06.26.26,0,0,1,.09.1.22.22,0,0,1,0,.14,2.76,2.76,0,0,1-.08.27,2.76,2.76,0,0,0-.08.27c-.06.12-.06.18,0,.19a1.47,1.47,0,0,0,.39-.11.45.45,0,0,1,.3,0,.22.22,0,0,1,.15.15c0,.11,0,.18,0,.21a.78.78,0,0,1-.32.11l-.29.09-.17,0-.12,0-.08,0L56.86,6l0,.1a.59.59,0,0,0,0,.17,1.9,1.9,0,0,1-.09.29c0,.22,0,.43,0,.63a5.9,5.9,0,0,0,0,.6.35.35,0,0,0,.06.24s.1,0,.2,0A.93.93,0,0,0,57.17,8l.26-.09.15-.11.14-.12.17-.15s0-.06.07,0,.06,0,.09.09a.54.54,0,0,1,0,.18.6.6,0,0,1-.21.28,1.58,1.58,0,0,1-.54.36A1.19,1.19,0,0,1,56.85,8.45Z" transform="translate(0 -2.14)"/><path class="cls-6" d="M59,7.82a.25.25,0,0,1-.22-.11.83.83,0,0,1-.14-.23,1.49,1.49,0,0,0,0-.17,2,2,0,0,0,0-.23c0-.09,0-.2,0-.34s0-.28,0-.42,0-.26,0-.36,0-.16,0-.18a.09.09,0,0,1,.11,0,.24.24,0,0,1,.14,0,.38.38,0,0,1,.09.13.69.69,0,0,1,0,.23,4.4,4.4,0,0,1,0,.46c0,.2,0,.36,0,.48a1.65,1.65,0,0,0,0,.38c0,.16,0,.26,0,.3A.05.05,0,0,1,59,7.82Zm.21-3s0,0-.05,0l-.09,0a.3.3,0,0,1-.14,0l-.16-.1-.07-.07a.92.92,0,0,1,0-.19.37.37,0,0,1,0-.21.19.19,0,0,1,.14-.13h0l.14,0a1.92,1.92,0,0,1,.16.21.52.52,0,0,1,.11.24A.32.32,0,0,1,59.17,4.82Z" transform="translate(0 -2.14)"/><path class="cls-6" d="M60.69,7.51l-.24,0-.13,0-.12-.06-.09-.1L60,7.29A.85.85,0,0,1,59.93,7a2.17,2.17,0,0,1,0-.38,1.24,1.24,0,0,1,0-.39,1.64,1.64,0,0,0,0-.18.57.57,0,0,1,0-.19c0-.11.09-.21.14-.33a1.3,1.3,0,0,1,.14-.25.4.4,0,0,1,.12-.15L60.57,5l.15-.08a.71.71,0,0,1,.19-.06h.19a.5.5,0,0,1,.19.12.42.42,0,0,1,.2.22.7.7,0,0,1,0,.25.72.72,0,0,1,0,.24s-.06.09-.11.09a.3.3,0,0,1-.19-.07.41.41,0,0,1,0-.09.57.57,0,0,1,0-.12.41.41,0,0,0,0-.21c0-.06-.07-.09-.11-.09a.43.43,0,0,0-.19.13,1.8,1.8,0,0,0-.18.25l-.1.2q-.06.13-.12.3c0,.1-.06.2-.08.29s0,.35-.06.56c0,0,0,0,0,0l0,0a.15.15,0,0,0,.12.11.44.44,0,0,0,.2,0A.62.62,0,0,0,60.89,7a.86.86,0,0,0,.18-.2l.18-.21.11-.11s0,0,0,0,0,0,0,0,0,0,0,0a.36.36,0,0,1,.08-.09l.09,0,0,0a.12.12,0,0,0,0,.1.11.11,0,0,1,0,.08.11.11,0,0,1,0,.08.7.7,0,0,1-.08.14,1.49,1.49,0,0,1-.15.19l0,0,0,.06-.09.1-.07,0-.07,0a.05.05,0,0,0,0,0,.28.28,0,0,1-.15.13A1.44,1.44,0,0,1,60.69,7.51Z" transform="translate(0 -2.14)"/><path class="cls-6" d="M62.85,7a.24.24,0,0,1-.19,0,.5.5,0,0,1-.2-.08.43.43,0,0,1-.13-.14.87.87,0,0,1,0-.38,3.92,3.92,0,0,1,.1-.52,3.45,3.45,0,0,1,.45-1,1.1,1.1,0,0,1,.29-.31.39.39,0,0,1,.11-.09.17.17,0,0,1,.1,0l.17,0a.32.32,0,0,1,.16,0,.57.57,0,0,1,.16.11.76.76,0,0,1,.13.2,1.22,1.22,0,0,1,.1.23.52.52,0,0,1,.1.22s0,.07,0,.09,0,.08,0,.08a.18.18,0,0,1,0,.1,1.93,1.93,0,0,0,0,.34.9.9,0,0,0,.06.28.29.29,0,0,0,.25.14.36.36,0,0,0,.27-.2l.13-.13s.07,0,.07,0,.06,0,.08,0A.06.06,0,0,1,65,6,.15.15,0,0,1,65,6a.52.52,0,0,1,0,.11c-.06.09-.09.14-.08.16a1,1,0,0,1-.09.13.53.53,0,0,1-.3.14.49.49,0,0,1-.32,0A.89.89,0,0,1,64,6.4a1.3,1.3,0,0,1-.17-.21l-.05-.06-.18.18-.13.18-.1.12a.16.16,0,0,1,0,.06.1.1,0,0,1,0,0H63.2a.14.14,0,0,1-.05.09l-.14.1Zm0-.46.21-.22.21-.23a1.36,1.36,0,0,0,.12-.18l.08-.11.08-.14a1,1,0,0,0,.14-.46.45.45,0,0,0-.09-.35c0-.05-.06-.07-.09-.07a.44.44,0,0,0-.16.09.8.8,0,0,0-.17.23c-.06.11-.13.24-.19.38a3.79,3.79,0,0,0-.18.42,3.05,3.05,0,0,0-.13.4.94.94,0,0,0,0,.27s0,0,.05.07A.41.41,0,0,0,62.84,6.51Z" transform="translate(0 -2.14)"/><path class="cls-6" d="M65.39,6.74a.3.3,0,0,1-.16-.08.41.41,0,0,1-.09-.2,1.44,1.44,0,0,1,0-.24c0-.1,0-.21,0-.34V5.74a.38.38,0,0,1,0-.1s0,0,0,0v-.2c0-.09,0-.18,0-.27s0-.17,0-.23a.44.44,0,0,1,0-.12c0-.12,0-.2,0-.26A6,6,0,0,1,65.3,4a2.48,2.48,0,0,1,.1-.38.43.43,0,0,0,0,0,.18.18,0,0,0,0-.06V3.37a.14.14,0,0,1,0-.07.46.46,0,0,0,0-.09l0-.13V3a1.31,1.31,0,0,1,.06-.23,1.84,1.84,0,0,0,.06-.18s0-.1,0-.17a1.13,1.13,0,0,1,.06-.14h0a.2.2,0,0,1,.07-.1l.12,0a.15.15,0,0,1,.12,0,.39.39,0,0,1,0,.13c0,.07,0,.12,0,.15a.24.24,0,0,1,0,.12h0v0l0,.07,0,.09a.64.64,0,0,1,0,.07S66,2.9,66,3s-.06.26-.1.41-.08.31-.11.45,0,.26-.07.34v.11a0,0,0,0,0,0,0l0,.11a.29.29,0,0,1,0,.09l0,.44v.15l0,.17v.15s0,0,0,.08,0,0,0,.06V6a3.87,3.87,0,0,0,0,.45h0a.43.43,0,0,1,0,.22A.15.15,0,0,1,65.39,6.74Z" transform="translate(0 -2.14)"/><path class="cls-6" d="M43.11,17.31a.28.28,0,0,0-.09-.07s-.06,0-.06,0a.14.14,0,0,0,0-.06.07.07,0,0,0,0-.05s0-.09,0-.2a1.83,1.83,0,0,1,.06-.41,4.38,4.38,0,0,1,.13-.52.54.54,0,0,0,.08-.17l.06-.14a.13.13,0,0,1,0-.06.05.05,0,0,1,0,0V15.5s0-.06,0-.13a1.64,1.64,0,0,1,.12-.22,2.2,2.2,0,0,1,.17-.25.9.9,0,0,1,.14-.17.77.77,0,0,1,.29-.19.34.34,0,0,1,.28,0l.09.06.14.08.17.1L45,15l0,.38a1,1,0,0,0,.06.5,1.23,1.23,0,0,0,.21.34.41.41,0,0,0,.18.12.49.49,0,0,0,.23,0,.2.2,0,0,1,.11,0,.14.14,0,0,1,.08.1.16.16,0,0,1,0,.12s0,.06-.08.08a.61.61,0,0,1-.46,0,1.27,1.27,0,0,1-.48-.39.73.73,0,0,1-.1-.14L44.6,16a1.2,1.2,0,0,1-.08.15l-.09.17a3.43,3.43,0,0,1-.72.87A.62.62,0,0,1,43.11,17.31Zm.32-.48a1.41,1.41,0,0,0,.29-.27A6.08,6.08,0,0,0,44.1,16a3.83,3.83,0,0,0,.3-.54l.1-.29a.57.57,0,0,0-.2-.19.22.22,0,0,0-.15,0c-.06,0-.14.09-.24.23a4.08,4.08,0,0,0-.29.53,6.55,6.55,0,0,0-.25.71,3.65,3.65,0,0,0-.09.44S43.33,16.88,43.43,16.83Z" transform="translate(0 -2.14)"/><path class="cls-6" d="M46.27,18.56l-.07,0s-.06,0-.09,0a.19.19,0,0,1,0-.1,1.23,1.23,0,0,1,0-.26,2.18,2.18,0,0,0,0-.25.74.74,0,0,0,0-.18v-.11a.35.35,0,0,0,0-.12.44.44,0,0,0,0-.17,1,1,0,0,0,0-.18.21.21,0,0,1,0-.18.66.66,0,0,1,0-.15.23.23,0,0,0,0-.12c0-.06,0-.19,0-.37s0-.38.07-.61.05-.45.08-.67.05-.4.08-.56a1.71,1.71,0,0,0,0-.36,1.35,1.35,0,0,0,0-.23s0,0,0-.05l0-.08c0-.06.08-.08.12-.07l.15,0a.92.92,0,0,1,.11.14.39.39,0,0,1,0,.22.42.42,0,0,1,0,.19,1.27,1.27,0,0,1,0,.14s0,0,0,0a1.57,1.57,0,0,1,.49-.26.86.86,0,0,1,.39,0,.56.56,0,0,1,.28.2.89.89,0,0,1,.16.34.74.74,0,0,1,0,.21.85.85,0,0,1,0,.23.34.34,0,0,1-.07.16.15.15,0,0,0,0,.06.34.34,0,0,0,0,.12.65.65,0,0,1-.14.19,2,2,0,0,1-.22.2.32.32,0,0,1-.17.07s0,0,0,0,0,0-.11.08a1.08,1.08,0,0,1-.24.14,1.18,1.18,0,0,1-.25.1.34.34,0,0,1-.23,0s0,0,0,.05a.11.11,0,0,0,0,0,.45.45,0,0,1,0,.17,1.94,1.94,0,0,1,0,.24c0,.07,0,.11-.06.12a.06.06,0,0,0,0,.08.43.43,0,0,1,0,.23.59.59,0,0,1,0,.17.44.44,0,0,1,0,.18.52.52,0,0,1,0,.17c0,.06,0,.09,0,.1s0,0,0,.09,0,.1,0,.12a.54.54,0,0,1,0,.29C46.37,18.51,46.33,18.55,46.27,18.56ZM46.62,16a1.1,1.1,0,0,0,.23-.1l.34-.2a1.36,1.36,0,0,0,.24-.21,1.27,1.27,0,0,0,.21-.44.4.4,0,0,0-.1-.39.21.21,0,0,0-.23,0,1,1,0,0,0-.3.19,1.78,1.78,0,0,0-.28.32.88.88,0,0,0-.1.26,1.5,1.5,0,0,0-.06.29.67.67,0,0,0,0,.24C46.57,16,46.59,16,46.62,16Z" transform="translate(0 -2.14)"/><path class="cls-6" d="M49.18,17.58a.14.14,0,0,1-.17,0,.43.43,0,0,1-.22-.44.82.82,0,0,1,0-.14v-.35a1.87,1.87,0,0,1,0-.25,1.27,1.27,0,0,1,0-.18.9.9,0,0,0,0-.18.53.53,0,0,0,0-.14s0-.08,0-.12a.34.34,0,0,1,0-.12.66.66,0,0,1,0-.13.5.5,0,0,1,0-.13v-.12c0-.05,0-.08,0-.09v-.06a.25.25,0,0,1,0-.08,2.27,2.27,0,0,1,0-.24c0-.11,0-.23,0-.36a1.07,1.07,0,0,0,0-.4c0-.13-.09-.2-.16-.21a.11.11,0,0,1-.09-.07.14.14,0,0,1,0-.11.17.17,0,0,1,.07-.1.25.25,0,0,1,.13-.05h.14s.06,0,.05,0,0,0,0,0,0,0,.07,0l.12.13a.58.58,0,0,1,.07.11.1.1,0,0,0,0,0h0l.22-.19.09-.1.1-.09a.51.51,0,0,1,.3-.09.5.5,0,0,1,.29.07.56.56,0,0,1,.22.31.9.9,0,0,1,0,.43.45.45,0,0,1,0,.13c0,.06,0,.15-.09.25a1.64,1.64,0,0,1-.29.5,3.64,3.64,0,0,1-.38.4.41.41,0,0,1-.13.1l-.12.06h-.08a.58.58,0,0,1-.2-.21l0,.19a.78.78,0,0,0,0,.13v.08a.14.14,0,0,1,0,.06.35.35,0,0,1,0,.13c0,.14,0,.27-.05.38s0,.21,0,.28,0,.15,0,.21a1.77,1.77,0,0,1,0,.4A.61.61,0,0,1,49.18,17.58Zm.41-2.2.11-.11.18-.21.19-.23a1.59,1.59,0,0,0,.11-.16.77.77,0,0,0,.07-.16.53.53,0,0,0,0-.18.78.78,0,0,1,0-.14s0-.1,0-.15a.24.24,0,0,0,0-.12.13.13,0,0,0-.07-.09.42.42,0,0,0-.16.08,1.57,1.57,0,0,0-.28.21,1,1,0,0,0-.24.33,1.29,1.29,0,0,0-.13.44.81.81,0,0,0,0,.36C49.5,15.35,49.54,15.39,49.59,15.38Z" transform="translate(0 -2.14)"/><path class="cls-6" d="M51.59,15.83a.27.27,0,0,1-.16-.08.41.41,0,0,1-.09-.21.72.72,0,0,1,0-.23c0-.1,0-.21,0-.34v-.24s0,0,0,0v-.2c0-.09,0-.18,0-.27s0-.17,0-.23a.83.83,0,0,0,0-.12c0-.12,0-.21,0-.26a6,6,0,0,1,.1-.61,1.68,1.68,0,0,1,.1-.38.43.43,0,0,0,0-.05.18.18,0,0,0,0-.06v-.09a.14.14,0,0,1,0-.07.23.23,0,0,1,0-.09.86.86,0,0,0,0-.13l0-.08a1.31,1.31,0,0,1,.06-.23l0-.18a.88.88,0,0,1,.06-.17.48.48,0,0,1,.06-.14h0a.15.15,0,0,1,.07-.1l.12,0a.16.16,0,0,1,.12,0,1.11,1.11,0,0,1,0,.13,1,1,0,0,0,0,.15.24.24,0,0,1,0,.12h0v0a.24.24,0,0,1,0,.07v.09l0,.07a1.7,1.7,0,0,0-.06.21c0,.12-.07.26-.1.41S52,12.83,52,13s-.06.26-.07.34v.11a.11.11,0,0,0,0,.05.52.52,0,0,1,0,.11s0,.06,0,.09l0,.44v.15l0,.17v.15a.22.22,0,0,0,0,.08s0,.05,0,.06v0s0,0,0,0a1.79,1.79,0,0,0,0,.33c0,.14,0,.29,0,.45h0a.33.33,0,0,1,0,.22S51.66,15.84,51.59,15.83Z" transform="translate(0 -2.14)"/><path class="cls-6" d="M53.07,15.22a.26.26,0,0,1-.21-.12.65.65,0,0,1-.14-.23s0-.09,0-.17,0-.14,0-.22,0-.21,0-.35,0-.27,0-.41a3.53,3.53,0,0,1,0-.36,1.54,1.54,0,0,1,0-.19s0-.06.11-.05a.35.35,0,0,1,.14.06.2.2,0,0,1,.08.12.67.67,0,0,1,0,.23c0,.11,0,.26,0,.47s0,.36,0,.48a1.18,1.18,0,0,0,0,.37c0,.17,0,.27,0,.31A.09.09,0,0,1,53.07,15.22Zm.21-3a.05.05,0,0,1-.05,0l-.09,0a.27.27,0,0,1-.13,0l-.16-.1L52.78,12s0-.11,0-.18a.78.78,0,0,1,0-.22.24.24,0,0,1,.15-.13h0l.14,0,.16.21a.53.53,0,0,1,.1.25A.28.28,0,0,1,53.28,12.21Z" transform="translate(0 -2.14)"/><path class="cls-6" d="M54.85,15a.73.73,0,0,1-.38,0,.5.5,0,0,1-.32-.15.59.59,0,0,1-.18-.35,1.46,1.46,0,0,1-.06-.5,3.33,3.33,0,0,1,.09-.61,2.52,2.52,0,0,1,.2-.55c.07-.13.14-.26.21-.37a.94.94,0,0,1,.22-.25l.17-.09a.56.56,0,0,1,.15,0,.82.82,0,0,1,.26,0c.1,0,.16.08.17.14l0,0s.06,0,.1.08a.93.93,0,0,1,.08.2.47.47,0,0,1,0,.2.71.71,0,0,1,0,.26c0,.08-.07.12-.11.13H55.4s0,0,0,0,0,0,0,0l-.09,0a.23.23,0,0,1-.09-.08.85.85,0,0,1,0-.13c0-.06,0-.13,0-.23s0-.22-.07-.25-.1,0-.19,0a1.72,1.72,0,0,0-.28.35,2.1,2.1,0,0,0-.19.52,3.85,3.85,0,0,0-.09.75.65.65,0,0,0,0,.29c0,.08,0,.12.05.12a.78.78,0,0,0,.28,0,.68.68,0,0,0,.23-.12,1.39,1.39,0,0,0,.22-.21L55.4,14a.35.35,0,0,0,.06-.09l.09-.1a.26.26,0,0,1,.08-.12.33.33,0,0,1,.13,0,.22.22,0,0,1,.11,0s.07,0,.08,0,0,0,0,.05a0,0,0,0,0,0,0s0,.06,0,.13a1.58,1.58,0,0,1-.14.23,2.31,2.31,0,0,1-.18.23c-.06.06-.1.1-.13.1s-.07,0-.06.06l-.09.1-.21.16A1.35,1.35,0,0,1,54.85,15Z" transform="translate(0 -2.14)"/><path class="cls-6" d="M57,14.36a.31.31,0,0,1-.19,0,.5.5,0,0,1-.2-.08.34.34,0,0,1-.13-.14.74.74,0,0,1,0-.38,2.71,2.71,0,0,1,.09-.52,5.14,5.14,0,0,1,.2-.55,2.71,2.71,0,0,1,.26-.48,1.08,1.08,0,0,1,.28-.31l.11-.1.1,0a.54.54,0,0,1,.18,0,.35.35,0,0,1,.16,0A.76.76,0,0,1,58,12l.13.2c0,.07.07.14.1.23a.61.61,0,0,1,.09.22.2.2,0,0,1,0,.09c0,.06,0,.08,0,.08a.34.34,0,0,1,0,.1c0,.11,0,.23,0,.34a.59.59,0,0,0,.07.27.24.24,0,0,0,.24.14.34.34,0,0,0,.28-.19l.12-.13s.07,0,.08,0a.09.09,0,0,0,.08,0s0,0,0,0a.17.17,0,0,1,0,.08.23.23,0,0,1,0,.11.42.42,0,0,0-.08.16l-.08.13a.64.64,0,0,1-.31.14.46.46,0,0,1-.31,0,.79.79,0,0,1-.25-.17,1.17,1.17,0,0,1-.16-.21l-.05-.06-.18.17c0,.07-.09.13-.13.19l-.1.12,0,.06s0,0,0,0h-.08s0,.05-.05.09a.85.85,0,0,1-.14.1A.58.58,0,0,1,57,14.36Zm0-.47.22-.21.21-.23.12-.18.07-.11a1,1,0,0,1,.09-.15,1,1,0,0,0,.14-.45.45.45,0,0,0-.09-.35c0-.05-.06-.07-.09-.07a.39.39,0,0,0-.17.09,1,1,0,0,0-.17.23l-.19.37c-.07.15-.13.29-.18.43s-.09.28-.12.4a.53.53,0,0,0,0,.27s0,0,.05.07A.44.44,0,0,0,57,13.89Z" transform="translate(0 -2.14)"/><path class="cls-6" d="M60.4,13.86a.48.48,0,0,1-.18,0,1.43,1.43,0,0,1-.2-.09,1.37,1.37,0,0,1-.17-.19.7.7,0,0,1-.11-.21,3.19,3.19,0,0,1-.09-.34,1.42,1.42,0,0,1,0-.26v-.37c0-.14,0-.25,0-.36a1.92,1.92,0,0,0,0-.2c0-.07,0-.1-.1-.09l-.2,0a.27.27,0,0,1-.15,0s0,0,0,0,0,0,0,0l0,0s0-.05,0-.09a.13.13,0,0,1,.09-.09l.17-.06a1,1,0,0,0,.21-.1.35.35,0,0,0,.16-.16c0-.11,0-.24.08-.38s.06-.27.09-.38a1,1,0,0,1,.07-.21.19.19,0,0,1,.32,0l.07.07a.19.19,0,0,1,0,.08.63.63,0,0,1,0,.2c0,.09-.06.22-.1.38s0,.12-.06.2h.09l.14,0,.19-.06a.54.54,0,0,1,.19,0,.37.37,0,0,1,.26,0,.28.28,0,0,1,.13.18s0,.08,0,.1a.61.61,0,0,1-.23.06l-.2,0-.27.08-.25.07-.1.05a.43.43,0,0,0,0,.15,2,2,0,0,0,0,.29l0,.29a4.19,4.19,0,0,0,0,.5,2.24,2.24,0,0,0,.08.42.39.39,0,0,0,.13.23s.13,0,.25,0a.64.64,0,0,0,.27-.2.48.48,0,0,1,.19-.15.09.09,0,0,1,.11.06.45.45,0,0,1,0,.23.83.83,0,0,1-.17.26.85.85,0,0,1-.23.2A.5.5,0,0,1,60.4,13.86Z" transform="translate(0 -2.14)"/><path class="cls-6" d="M61.89,13.32a.43.43,0,0,1-.11-.12.34.34,0,0,1-.05-.17.38.38,0,0,1,0-.15.14.14,0,0,1,0-.09.06.06,0,0,0,0-.06.25.25,0,0,1,0-.1c0-.05,0-.1,0-.15a1.92,1.92,0,0,0,.05-.29c0-.12,0-.23,0-.34s0-.21,0-.29a1.14,1.14,0,0,0,0-.15q0-.09.09-.12a.18.18,0,0,1,.13,0,.41.41,0,0,1,.14.12.17.17,0,0,1,.08.16.86.86,0,0,1,0,.3,1.64,1.64,0,0,0,0,.18.69.69,0,0,0,0,.2,1.46,1.46,0,0,0,0,.17,1.83,1.83,0,0,0,0,.21.37.37,0,0,0,0,.11v.15c0,.06,0,.1,0,.14a.8.8,0,0,1-.05.37S62,13.4,61.89,13.32Zm.07-3a.36.36,0,0,1-.08-.09.75.75,0,0,1-.07-.12s0-.06,0-.07a.24.24,0,0,0,.1-.14.3.3,0,0,0,0-.22s0,0,0-.05a.1.1,0,0,1,0,0,.17.17,0,0,1,.16-.05.37.37,0,0,1,.19.12.29.29,0,0,1,.08.21,1,1,0,0,1-.1.28.38.38,0,0,1-.16.2A.32.32,0,0,1,62,10.3Z" transform="translate(0 -2.14)"/><path class="cls-6" d="M63.88,12.85l-.19.06a.36.36,0,0,1-.13-.05.65.65,0,0,1-.22-.11.71.71,0,0,1-.15-.15.64.64,0,0,1-.06-.16,2.66,2.66,0,0,1,0-.56,5.6,5.6,0,0,1,.12-.59,2.26,2.26,0,0,1,.22-.52.77.77,0,0,1,.27-.31.52.52,0,0,1,.26-.1.22.22,0,0,1,.21.09c.1.12.1.22,0,.27l0,0a.14.14,0,0,0,0,.06l.16,0,.25-.1a.47.47,0,0,0,.16-.11.09.09,0,0,1,.06,0h.11c.08,0,.13,0,.14.06s0,0,0,.05,0,0,.05,0,0,0,0,.07l-.17.2-.15.14a.12.12,0,0,0,0,.11.49.49,0,0,1,.07.31,1.3,1.3,0,0,1-.1.4,2.82,2.82,0,0,1-.23.41,2.2,2.2,0,0,1-.33.35A1.12,1.12,0,0,1,63.88,12.85Zm-.19-.28a.27.27,0,0,0,.09-.06l.1-.07a.7.7,0,0,0,.06-.09l.07-.06s0,0,.06,0a.38.38,0,0,0,.1-.13c0-.07.09-.16.15-.29a1.23,1.23,0,0,0,.16-.33.33.33,0,0,0,0-.26.06.06,0,0,0,0,0l-.08,0a.32.32,0,0,1-.14,0,.79.79,0,0,1-.16-.08L63.89,11l-.09.14a1.45,1.45,0,0,0-.17.39,3,3,0,0,0-.11.5,1.9,1.9,0,0,0,0,.39.18.18,0,0,0,.06.13A.27.27,0,0,0,63.69,12.57Z" transform="translate(0 -2.14)"/><path class="cls-6" d="M66,12.36s0,0-.09,0l-.09-.05a.28.28,0,0,1-.09-.1l-.06-.25a1.48,1.48,0,0,1,0-.52,7.4,7.4,0,0,1,.15-.81l.12-.55,0-.09,0-.07H66a.14.14,0,0,1,.13,0,.49.49,0,0,1,.12.13.59.59,0,0,1,0,.19.84.84,0,0,1-.11.34c0,.06,0,.15-.07.29a1.55,1.55,0,0,0,0,.34s0,0,0,.07a.5.5,0,0,1,0,.12l0,.13v.17l.37-.59a4.24,4.24,0,0,1,.44-.59.47.47,0,0,1,.3-.19.3.3,0,0,1,.25.14.91.91,0,0,1,.1.13.35.35,0,0,1,.07.15c0,.07,0,.16,0,.3l.09.44.16-.09.12-.08.14-.09a.77.77,0,0,1,.2-.07.4.4,0,0,1,0,.21.72.72,0,0,1-.1.22.7.7,0,0,1-.15.19.44.44,0,0,1-.19.1.36.36,0,0,1-.23-.05.42.42,0,0,1-.2-.17.46.46,0,0,1-.07-.16c0-.06,0-.18-.08-.34l-.06-.26c0-.08,0-.1-.08-.06L67,11a2,2,0,0,0-.18.26l-.18.3a5.5,5.5,0,0,1-.44.62C66.1,12.28,66,12.35,66,12.36Z" transform="translate(0 -2.14)"/><path class="cls-6" d="M69.32,12a1.11,1.11,0,0,1-.29-.1.69.69,0,0,1-.19-.12.16.16,0,0,1,0-.1s0,0,.12,0l.35,0,.21-.05.23-.1c.06,0,.1-.06.1-.1s0,0,0,0l-.06-.05s0,0-.07,0h-.07s0,0-.08-.07l-.16,0L69.11,11c-.09-.05-.13-.1-.12-.12s0,0,0,0-.08,0-.14-.12a.52.52,0,0,1-.11-.24.87.87,0,0,1,0-.23,2.26,2.26,0,0,1,.08-.3,1,1,0,0,1,.13-.27,2.18,2.18,0,0,1,.26-.33q.17-.18.33-.33a1.13,1.13,0,0,1,.28-.21.77.77,0,0,1,.23-.1.34.34,0,0,1,.2,0,.51.51,0,0,1,.15.07.87.87,0,0,1,.14.12.41.41,0,0,1,.09.1,1.11,1.11,0,0,1,0,.19.6.6,0,0,1,0,.19q0,.09-.06.09a0,0,0,0,0,0,.05.3.3,0,0,1-.07.19.71.71,0,0,1-.22.16c-.06,0-.1,0-.13,0l0,0s0,0,0,0S70,9.69,70,9.66s0-.05,0-.09,0,0,.08-.1a.66.66,0,0,0,.06-.2.27.27,0,0,0,0-.14s0,0,0-.05h-.07l-.22.17-.23.19a.79.79,0,0,0-.16.16l0,.07s0,0,0,0,0,0,0,0,0,.09-.09.16-.06.14-.08.21l-.06.15a.14.14,0,0,0,0,.09.53.53,0,0,0,0,.13c0,.06,0,.1,0,.11l.19.1.45.22.26.16a.4.4,0,0,1,.11.12c.12.12.17.23.15.31a.44.44,0,0,1-.2.25l-.22.11-.33.09A1.12,1.12,0,0,1,69.32,12Z" transform="translate(0 -2.14)"/><path class="cls-5" d="M42.33,7a8.66,8.66,0,0,1,1,2.3.09.09,0,0,1,0,.11.08.08,0,0,1-.09,0h0A6.09,6.09,0,0,0,41.54,8a2.23,2.23,0,0,0-1.94-.35.24.24,0,0,1-.31-.13.25.25,0,0,1,.13-.32h0a11.72,11.72,0,0,1,3.8-.84.33.33,0,0,1,.16.63h0a5.27,5.27,0,0,0-1.43,1,1.6,1.6,0,0,0-.57,1.34v0a.37.37,0,0,1-.28.44.37.37,0,0,1-.44-.28v0a7,7,0,0,1,.07-2.42,2.7,2.7,0,0,1,.17-.6.66.66,0,0,1,.22-.28.41.41,0,0,1,.37,0A2.56,2.56,0,0,1,42.33,7Zm-.06,0a2.08,2.08,0,0,0-.84-.71c-.31-.07-.31.43-.32.78a8.71,8.71,0,0,0,.08,1.13,7,7,0,0,0,.18,1.08l-.72.17a1.74,1.74,0,0,1,.12-1.17,2.69,2.69,0,0,1,.62-.88A5.43,5.43,0,0,1,43.1,6.37l.14.64a10.32,10.32,0,0,0-3.64.62l-.17-.45a2,2,0,0,1,1.24,0,3.89,3.89,0,0,1,1.07.5,6.05,6.05,0,0,1,1.61,1.62l-.15.08A5.92,5.92,0,0,0,42.27,7.05Z" transform="translate(0 -2.14)"/><path class="cls-5" d="M55.71,19.25a16,16,0,0,1,4-2.75,34.38,34.38,0,0,1,4.58-1.77c1.56-.49,3.11-1,4.71-1.36a21.6,21.6,0,0,1,4.87-.57,0,0,0,0,1,0,0,0,0,0,0,1,0,0,41.9,41.9,0,0,0-4.76,1c-1.57.41-3.15.81-4.71,1.25-3.11.9-6.24,2-8.71,4.18h0A0,0,0,0,1,55.71,19.25Z" transform="translate(0 -2.14)"/></g></g></svg>