<svg xmlns="http://www.w3.org/2000/svg" viewBox="0 0 374 88"><g id="Layer_2" data-name="Layer 2"><g id="Layer_1-2" data-name="Layer 1"><path d="M164,0V88H126.11q11.24,0,18.21-5.61t8.61-15.51H137.35q-2,7.59-11.24,7.59a11.91,11.91,0,0,1-9.22-3.86Q113.37,66.74,113,60h40.36V54.83q0-13.66-7.25-21.86t-20.25-8.19q-12.72,0-20.92,9t-8.2,22.68q0,14.08,8.13,22.81T126.11,88H86.55V48.47q0-10.29-5.28-16.31t-14.63-6q-11.25,0-18.29,7.72-5.82-7.71-16.25-7.72T16.79,32.5v-5H0V0Z"/><path d="M136.81,49.83H113.37q2.31-11.38,12.6-11.38a10,10,0,0,1,7.86,3.18A12.43,12.43,0,0,1,136.81,49.83Z"/><path d="M67.52,44.07a7.62,7.62,0,0,0-6.43-2.91,9.35,9.35,0,0,0-6,2A9.68,9.68,0,0,0,51.74,49V88h18V52A12.7,12.7,0,0,0,67.52,44.07Z"/><path d="M26.27,41.16a9.41,9.41,0,0,0-6,2.1A9.81,9.81,0,0,0,16.79,49V88h18V52Q34.81,41.16,26.27,41.16Z"/><path d="M180.83,0V33q6-6.91,16.25-6.91t15.78,6.09q5.63,6.11,5.63,16.25V88H253q-10,0-15.65-6.09t-5.62-16.24V26.13h16.8V62.28q0,5,2.44,7.85T258.31,73a11.21,11.21,0,0,0,6.91-2.24,10.56,10.56,0,0,0,3.93-6.16V26.13h16.93V88h14.49V0Z"/><path d="M269.28,81.1Q263.06,88,253,88h16.23Z"/><rect x="317.37" width="56.63" height="88"/><path d="M199.18,44.21q-2.51-2.91-7.38-2.91a11.51,11.51,0,0,0-7,2.23,10.37,10.37,0,0,0-4,6.16V88h20.86V52A11.51,11.51,0,0,0,199.18,44.21Z"/></g></g></svg>