<svg width="640" height="1202" viewBox="0 0 640 1202" fill="none" xmlns="http://www.w3.org/2000/svg">
<path id="Subtract" fill-rule="evenodd" clip-rule="evenodd" d="M628 1201.47C634.627 1201.47 640 1196.09 640 1189.47L640 12.0001C640 5.37264 634.628 5.28375e-05 628 5.22751e-05L12.0001 0C5.37269 -5.62417e-07 0.00010664 5.37262 0.000106043 12L0 1189.47C-5.96869e-07 1196.09 5.37259 1201.47 12 1201.47H628ZM55.9349 47.0045C49.3075 47.0045 43.9349 52.377 43.9349 59.0044V1143.61C43.9349 1150.24 49.3075 1155.61 55.9349 1155.61H585.961C592.588 1155.61 597.961 1150.24 597.961 1143.61V59.0045C597.961 52.3771 592.588 47.0045 585.961 47.0045H55.9349Z" fill="#444444"/>
</svg>
