<svg width="621" height="1201" viewBox="0 0 621 1201" fill="none" xmlns="http://www.w3.org/2000/svg">
<g id="Group 32">
<rect id="Rectangle 2" x="620.77" y="1200.53" width="620.77" height="1200.53" rx="12" transform="rotate(-180 620.77 1200.53)" fill="#444444" fill-opacity="0.2"/>
<path id="Ellipse 199" d="M134.22 958.186C151.723 958.186 165.911 972.375 165.911 989.877C165.911 1007.38 151.723 1021.57 134.22 1021.57C116.718 1021.57 102.529 1007.38 102.529 989.877C102.529 972.375 116.718 958.186 134.22 958.186Z" fill="#C4C4C4" fill-opacity="0.4"/>
<path id="Ellipse 200" d="M134.22 887.347C151.723 887.347 165.911 901.536 165.911 919.038C165.911 936.541 151.723 950.729 134.22 950.729C116.718 950.729 102.529 936.541 102.529 919.038C102.529 901.536 116.718 887.347 134.22 887.347Z" fill="#C4C4C4" fill-opacity="0.4"/>
<path id="Ellipse 201" d="M134.22 816.509C151.723 816.509 165.911 830.697 165.911 848.2C165.911 865.702 151.723 879.891 134.22 879.891C116.718 879.891 102.529 865.702 102.529 848.2C102.529 830.697 116.718 816.509 134.22 816.509Z" fill="#C4C4C4" fill-opacity="0.4"/>
<path id="Ellipse 202" d="M134.22 674.832C151.723 674.832 165.911 689.02 165.911 706.523C165.911 724.025 151.723 738.214 134.22 738.214C116.718 738.214 102.529 724.025 102.529 706.523C102.529 689.02 116.718 674.832 134.22 674.832Z" fill="#C4C4C4" fill-opacity="0.4"/>
<path id="Ellipse 203" d="M134.22 603.993C151.723 603.993 165.911 618.182 165.911 635.684C165.911 653.187 151.723 667.375 134.22 667.375C116.718 667.375 102.529 653.187 102.529 635.684C102.529 618.182 116.718 603.993 134.22 603.993Z" fill="#C4C4C4" fill-opacity="0.4"/>
<path id="Ellipse 204" d="M134.22 533.154C151.723 533.154 165.911 547.343 165.911 564.845C165.911 582.348 151.723 596.536 134.22 596.536C116.718 596.536 102.529 582.348 102.529 564.845C102.529 547.343 116.718 533.154 134.22 533.154Z" fill="#C4C4C4" fill-opacity="0.4"/>
<path id="Ellipse 205" d="M134.22 391.477C151.723 391.477 165.911 405.666 165.911 423.168C165.911 440.671 151.723 454.859 134.22 454.859C116.718 454.859 102.529 440.671 102.529 423.168C102.529 405.666 116.718 391.477 134.22 391.477Z" fill="#C4C4C4" fill-opacity="0.4"/>
<path id="Ellipse 206" d="M134.22 320.638C151.723 320.638 165.911 334.827 165.911 352.329C165.911 369.831 151.723 384.02 134.22 384.02C116.718 384.02 102.529 369.831 102.529 352.329C102.529 334.827 116.718 320.638 134.22 320.638Z" fill="#C4C4C4" fill-opacity="0.4"/>
<path id="Ellipse 207" d="M134.22 249.8C151.723 249.8 165.911 263.988 165.911 281.491C165.911 298.993 151.723 313.182 134.22 313.182C116.718 313.182 102.529 298.993 102.529 281.491C102.529 263.988 116.718 249.8 134.22 249.8Z" fill="#C4C4C4" fill-opacity="0.4"/>
<path id="Ellipse 208" d="M134.221 108.123C151.723 108.123 165.912 122.311 165.912 139.814C165.912 157.316 151.723 171.505 134.221 171.505C116.718 171.505 102.53 157.316 102.53 139.814C102.53 122.311 116.718 108.123 134.221 108.123Z" fill="#C4C4C4" fill-opacity="0.4"/>
<path id="Ellipse 209" d="M205.059 958.186C222.561 958.186 236.75 972.375 236.75 989.877C236.75 1007.38 222.561 1021.57 205.059 1021.57C187.556 1021.57 173.368 1007.38 173.368 989.877C173.368 972.375 187.556 958.186 205.059 958.186Z" fill="#C4C4C4" fill-opacity="0.4"/>
<path id="Ellipse 210" d="M205.059 816.509C222.561 816.509 236.75 830.697 236.75 848.2C236.75 865.702 222.561 879.891 205.059 879.891C187.556 879.891 173.368 865.702 173.368 848.2C173.368 830.697 187.556 816.509 205.059 816.509Z" fill="#C4C4C4" fill-opacity="0.4"/>
<path id="Ellipse 211" d="M205.059 674.832C222.561 674.832 236.75 689.02 236.75 706.523C236.75 724.025 222.561 738.214 205.059 738.214C187.556 738.214 173.368 724.025 173.368 706.523C173.368 689.02 187.556 674.832 205.059 674.832Z" fill="#C4C4C4" fill-opacity="0.4"/>
<path id="Ellipse 212" d="M205.059 533.154C222.561 533.154 236.75 547.343 236.75 564.845C236.75 582.348 222.561 596.536 205.059 596.536C187.556 596.536 173.368 582.348 173.368 564.845C173.368 547.343 187.556 533.154 205.059 533.154Z" fill="#C4C4C4" fill-opacity="0.4"/>
<path id="Ellipse 213" d="M205.059 391.477C222.562 391.477 236.75 405.666 236.75 423.168C236.75 440.671 222.562 454.859 205.059 454.859C187.557 454.859 173.368 440.671 173.368 423.168C173.368 405.666 187.557 391.477 205.059 391.477Z" fill="#C4C4C4" fill-opacity="0.4"/>
<path id="Ellipse 214" d="M205.059 108.123C222.562 108.123 236.75 122.311 236.75 139.814C236.75 157.316 222.562 171.505 205.059 171.505C187.557 171.505 173.368 157.316 173.368 139.814C173.368 122.311 187.557 108.123 205.059 108.123Z" fill="#C4C4C4" fill-opacity="0.4"/>
<path id="Ellipse 215" d="M275.898 958.186C293.4 958.186 307.589 972.375 307.589 989.877C307.589 1007.38 293.4 1021.57 275.898 1021.57C258.395 1021.57 244.207 1007.38 244.207 989.877C244.207 972.375 258.395 958.186 275.898 958.186Z" fill="#C4C4C4" fill-opacity="0.4"/>
<path id="Ellipse 216" d="M275.898 816.509C293.4 816.509 307.589 830.697 307.589 848.2C307.589 865.702 293.4 879.891 275.898 879.891C258.395 879.891 244.207 865.702 244.207 848.2C244.207 830.697 258.395 816.509 275.898 816.509Z" fill="#C4C4C4" fill-opacity="0.4"/>
<path id="Ellipse 217" d="M275.898 674.832C293.4 674.832 307.589 689.02 307.589 706.523C307.589 724.025 293.4 738.214 275.898 738.214C258.395 738.214 244.207 724.025 244.207 706.523C244.207 689.02 258.395 674.832 275.898 674.832Z" fill="#C4C4C4" fill-opacity="0.4"/>
<path id="Ellipse 218" d="M275.898 603.993C293.4 603.993 307.589 618.182 307.589 635.684C307.589 653.187 293.4 667.375 275.898 667.375C258.395 667.375 244.207 653.187 244.207 635.684C244.207 618.182 258.395 603.993 275.898 603.993Z" fill="#C4C4C4" fill-opacity="0.4"/>
<path id="Ellipse 219" d="M275.898 533.154C293.4 533.154 307.589 547.343 307.589 564.845C307.589 582.348 293.4 596.536 275.898 596.536C258.395 596.536 244.207 582.348 244.207 564.845C244.207 547.343 258.395 533.154 275.898 533.154Z" fill="#C4C4C4" fill-opacity="0.4"/>
<path id="Ellipse 220" d="M275.898 391.477C293.4 391.477 307.589 405.666 307.589 423.168C307.589 440.671 293.4 454.859 275.898 454.859C258.395 454.859 244.207 440.671 244.207 423.168C244.207 405.666 258.395 391.477 275.898 391.477Z" fill="#C4C4C4" fill-opacity="0.4"/>
<path id="Ellipse 221" d="M275.898 320.639C293.4 320.639 307.589 334.827 307.589 352.33C307.589 369.832 293.4 384.021 275.898 384.021C258.395 384.021 244.207 369.832 244.207 352.33C244.207 334.827 258.395 320.639 275.898 320.639Z" fill="#C4C4C4" fill-opacity="0.4"/>
<path id="Ellipse 222" d="M275.898 249.8C293.4 249.8 307.589 263.988 307.589 281.491C307.589 298.993 293.4 313.182 275.898 313.182C258.395 313.182 244.207 298.993 244.207 281.491C244.207 263.988 258.395 249.8 275.898 249.8Z" fill="#C4C4C4" fill-opacity="0.4"/>
<path id="Ellipse 223" d="M275.898 108.123C293.4 108.123 307.589 122.311 307.589 139.814C307.589 157.316 293.4 171.505 275.898 171.505C258.395 171.505 244.207 157.316 244.207 139.814C244.207 122.311 258.395 108.123 275.898 108.123Z" fill="#C4C4C4" fill-opacity="0.4"/>
<path id="Ellipse 224" d="M275.898 37.2836C293.4 37.2836 307.589 51.4721 307.589 68.9746C307.589 86.477 293.4 100.666 275.898 100.666C258.395 100.666 244.207 86.477 244.207 68.9746C244.207 51.4721 258.395 37.2836 275.898 37.2836Z" fill="#C4C4C4" fill-opacity="0.4"/>
<path id="Ellipse 225" d="M346.736 958.186C364.239 958.186 378.427 972.375 378.427 989.877C378.427 1007.38 364.239 1021.57 346.736 1021.57C329.234 1021.57 315.045 1007.38 315.045 989.877C315.045 972.375 329.234 958.186 346.736 958.186Z" fill="#C4C4C4" fill-opacity="0.4"/>
<path id="Ellipse 226" d="M346.736 816.509C364.239 816.509 378.427 830.697 378.427 848.2C378.427 865.702 364.239 879.891 346.736 879.891C329.234 879.891 315.045 865.702 315.045 848.2C315.045 830.697 329.234 816.509 346.736 816.509Z" fill="#C4C4C4" fill-opacity="0.4"/>
<path id="Ellipse 227" d="M346.736 674.832C364.239 674.832 378.427 689.02 378.427 706.523C378.427 724.025 364.239 738.214 346.736 738.214C329.234 738.214 315.045 724.025 315.045 706.523C315.045 689.02 329.234 674.832 346.736 674.832Z" fill="#C4C4C4" fill-opacity="0.4"/>
<path id="Ellipse 228" d="M346.736 533.154C364.239 533.154 378.427 547.343 378.427 564.845C378.427 582.348 364.239 596.536 346.736 596.536C329.234 596.536 315.045 582.348 315.045 564.845C315.045 547.343 329.234 533.154 346.736 533.154Z" fill="#C4C4C4" fill-opacity="0.4"/>
<path id="Ellipse 229" d="M346.736 249.8C364.239 249.8 378.427 263.988 378.427 281.491C378.427 298.993 364.239 313.182 346.736 313.182C329.234 313.182 315.045 298.993 315.045 281.491C315.045 263.988 329.234 249.8 346.736 249.8Z" fill="#C4C4C4" fill-opacity="0.4"/>
<path id="Ellipse 230" d="M346.736 108.123C364.239 108.123 378.427 122.311 378.427 139.814C378.427 157.316 364.239 171.505 346.736 171.505C329.234 171.505 315.045 157.316 315.045 139.814C315.045 122.311 329.234 108.123 346.736 108.123Z" fill="#C4C4C4" fill-opacity="0.4"/>
<path id="Ellipse 231" d="M417.575 958.186C435.077 958.186 449.266 972.375 449.266 989.877C449.266 1007.38 435.077 1021.57 417.575 1021.57C400.072 1021.57 385.884 1007.38 385.884 989.877C385.884 972.375 400.072 958.186 417.575 958.186Z" fill="#C4C4C4" fill-opacity="0.4"/>
<path id="Ellipse 232" d="M417.575 887.347C435.077 887.347 449.266 901.536 449.266 919.038C449.266 936.541 435.077 950.729 417.575 950.729C400.072 950.729 385.884 936.541 385.884 919.038C385.884 901.536 400.072 887.347 417.575 887.347Z" fill="#C4C4C4" fill-opacity="0.4"/>
<path id="Ellipse 233" d="M417.575 816.509C435.077 816.509 449.266 830.697 449.266 848.2C449.266 865.702 435.077 879.891 417.575 879.891C400.072 879.891 385.884 865.702 385.884 848.2C385.884 830.697 400.072 816.509 417.575 816.509Z" fill="#C4C4C4" fill-opacity="0.4"/>
<path id="Ellipse 234" d="M417.575 674.832C435.077 674.832 449.266 689.02 449.266 706.523C449.266 724.025 435.077 738.214 417.575 738.214C400.072 738.214 385.884 724.025 385.884 706.523C385.884 689.02 400.072 674.832 417.575 674.832Z" fill="#C4C4C4" fill-opacity="0.4"/>
<path id="Ellipse 235" d="M417.575 533.154C435.077 533.154 449.266 547.343 449.266 564.845C449.266 582.348 435.077 596.536 417.575 596.536C400.072 596.536 385.884 582.348 385.884 564.845C385.884 547.343 400.072 533.154 417.575 533.154Z" fill="#C4C4C4" fill-opacity="0.4"/>
<path id="Ellipse 236" d="M417.575 391.477C435.077 391.477 449.266 405.666 449.266 423.168C449.266 440.671 435.077 454.859 417.575 454.859C400.072 454.859 385.884 440.671 385.884 423.168C385.884 405.666 400.072 391.477 417.575 391.477Z" fill="#C4C4C4" fill-opacity="0.4"/>
<path id="Ellipse 237" d="M417.575 320.639C435.077 320.639 449.266 334.827 449.266 352.33C449.266 369.832 435.077 384.021 417.575 384.021C400.072 384.021 385.884 369.832 385.884 352.33C385.884 334.827 400.072 320.639 417.575 320.639Z" fill="#C4C4C4" fill-opacity="0.4"/>
<path id="Ellipse 238" d="M417.575 249.8C435.077 249.8 449.266 263.988 449.266 281.491C449.266 298.993 435.077 313.182 417.575 313.182C400.072 313.182 385.884 298.993 385.884 281.491C385.884 263.988 400.072 249.8 417.575 249.8Z" fill="#C4C4C4" fill-opacity="0.4"/>
<path id="Ellipse 239" d="M417.575 108.123C435.077 108.123 449.266 122.311 449.266 139.814C449.266 157.316 435.077 171.505 417.575 171.505C400.072 171.505 385.884 157.316 385.884 139.814C385.884 122.311 400.072 108.123 417.575 108.123Z" fill="#C4C4C4" fill-opacity="0.4"/>
<path id="Ellipse 240" d="M134.22 1099.86C151.723 1099.86 165.911 1114.05 165.911 1131.55C165.911 1149.06 151.723 1163.25 134.22 1163.25C116.718 1163.25 102.529 1149.06 102.529 1131.55C102.529 1114.05 116.718 1099.86 134.22 1099.86Z" fill="#C4C4C4" fill-opacity="0.4"/>
<path id="Ellipse 241" d="M63.3818 1099.86C80.8843 1099.86 95.0728 1114.05 95.0728 1131.55C95.0728 1149.06 80.8843 1163.25 63.3818 1163.25C45.8794 1163.25 31.6909 1149.06 31.6909 1131.55C31.6909 1114.05 45.8794 1099.86 63.3818 1099.86Z" fill="#C4C4C4" fill-opacity="0.4"/>
<path id="Ellipse 242" d="M63.3818 1029.02C80.8843 1029.02 95.0728 1043.21 95.0728 1060.72C95.0728 1078.22 80.8843 1092.41 63.3818 1092.41C45.8794 1092.41 31.6909 1078.22 31.6909 1060.72C31.6909 1043.21 45.8794 1029.02 63.3818 1029.02Z" fill="#C4C4C4" fill-opacity="0.4"/>
<path id="Ellipse 243" d="M134.22 1029.02C151.723 1029.02 165.911 1043.21 165.911 1060.72C165.911 1078.22 151.723 1092.41 134.22 1092.41C116.718 1092.41 102.529 1078.22 102.529 1060.72C102.529 1043.21 116.718 1029.02 134.22 1029.02Z" fill="#C4C4C4" fill-opacity="0.4"/>
<path id="Ellipse 244" d="M134.22 745.67C151.723 745.67 165.911 759.859 165.911 777.361C165.911 794.864 151.723 809.052 134.22 809.052C116.718 809.052 102.529 794.864 102.529 777.361C102.529 759.859 116.718 745.67 134.22 745.67Z" fill="#C4C4C4" fill-opacity="0.4"/>
<path id="Ellipse 245" d="M134.22 462.316C151.723 462.316 165.911 476.504 165.911 494.007C165.911 511.509 151.723 525.698 134.22 525.698C116.718 525.698 102.529 511.509 102.529 494.007C102.529 476.504 116.718 462.316 134.22 462.316Z" fill="#C4C4C4" fill-opacity="0.4"/>
<path id="Ellipse 246" d="M134.22 178.961C151.723 178.961 165.911 193.149 165.911 210.652C165.911 228.154 151.723 242.343 134.22 242.343C116.718 242.343 102.529 228.154 102.529 210.652C102.529 193.149 116.718 178.961 134.22 178.961Z" fill="#C4C4C4" fill-opacity="0.4"/>
<path id="Ellipse 247" d="M134.221 37.2836C151.723 37.2836 165.912 51.4721 165.912 68.9746C165.912 86.477 151.723 100.666 134.221 100.666C116.718 100.666 102.53 86.477 102.53 68.9746C102.53 51.4721 116.718 37.2836 134.221 37.2836Z" fill="#C4C4C4" fill-opacity="0.4"/>
<path id="Ellipse 248" d="M205.059 1029.02C222.561 1029.02 236.75 1043.21 236.75 1060.72C236.75 1078.22 222.561 1092.41 205.059 1092.41C187.556 1092.41 173.368 1078.22 173.368 1060.72C173.368 1043.21 187.556 1029.02 205.059 1029.02Z" fill="#C4C4C4" fill-opacity="0.4"/>
<path id="Ellipse 249" d="M205.059 887.347C222.561 887.347 236.75 901.536 236.75 919.038C236.75 936.541 222.561 950.729 205.059 950.729C187.556 950.729 173.368 936.541 173.368 919.038C173.368 901.536 187.556 887.347 205.059 887.347Z" fill="#C4C4C4" fill-opacity="0.4"/>
<path id="Ellipse 250" d="M205.059 745.67C222.562 745.67 236.75 759.859 236.75 777.361C236.75 794.864 222.562 809.052 205.059 809.052C187.557 809.052 173.368 794.864 173.368 777.361C173.368 759.859 187.557 745.67 205.059 745.67Z" fill="#C4C4C4" fill-opacity="0.4"/>
<path id="Ellipse 251" d="M205.059 603.993C222.561 603.993 236.75 618.182 236.75 635.684C236.75 653.187 222.561 667.375 205.059 667.375C187.556 667.375 173.368 653.187 173.368 635.684C173.368 618.182 187.556 603.993 205.059 603.993Z" fill="#C4C4C4" fill-opacity="0.4"/>
<path id="Ellipse 252" d="M205.059 462.316C222.562 462.316 236.75 476.504 236.75 494.007C236.75 511.509 222.562 525.698 205.059 525.698C187.557 525.698 173.368 511.509 173.368 494.007C173.368 476.504 187.557 462.316 205.059 462.316Z" fill="#C4C4C4" fill-opacity="0.4"/>
<path id="Ellipse 253" d="M205.059 320.639C222.561 320.639 236.75 334.827 236.75 352.33C236.75 369.832 222.561 384.021 205.059 384.021C187.556 384.021 173.368 369.832 173.368 352.33C173.368 334.827 187.556 320.639 205.059 320.639Z" fill="#C4C4C4" fill-opacity="0.4"/>
<path id="Ellipse 254" d="M205.059 249.8C222.561 249.8 236.75 263.988 236.75 281.491C236.75 298.993 222.561 313.182 205.059 313.182C187.556 313.182 173.368 298.993 173.368 281.491C173.368 263.988 187.556 249.8 205.059 249.8Z" fill="#C4C4C4" fill-opacity="0.4"/>
<path id="Ellipse 255" d="M205.059 178.961C222.561 178.961 236.75 193.149 236.75 210.652C236.75 228.154 222.561 242.343 205.059 242.343C187.556 242.343 173.368 228.154 173.368 210.652C173.368 193.149 187.556 178.961 205.059 178.961Z" fill="#C4C4C4" fill-opacity="0.4"/>
<path id="Ellipse 256" d="M205.059 37.2836C222.562 37.2836 236.75 51.4721 236.75 68.9746C236.75 86.477 222.562 100.666 205.059 100.666C187.557 100.666 173.368 86.477 173.368 68.9746C173.368 51.4721 187.557 37.2836 205.059 37.2836Z" fill="#C4C4C4" fill-opacity="0.4"/>
<path id="Ellipse 257" d="M275.898 1029.02C293.4 1029.02 307.589 1043.21 307.589 1060.72C307.589 1078.22 293.4 1092.41 275.898 1092.41C258.395 1092.41 244.207 1078.22 244.207 1060.72C244.207 1043.21 258.395 1029.02 275.898 1029.02Z" fill="#C4C4C4" fill-opacity="0.4"/>
<path id="Ellipse 258" d="M275.898 887.347C293.4 887.347 307.589 901.536 307.589 919.038C307.589 936.541 293.4 950.729 275.898 950.729C258.395 950.729 244.207 936.541 244.207 919.038C244.207 901.536 258.395 887.347 275.898 887.347Z" fill="#C4C4C4" fill-opacity="0.4"/>
<path id="Ellipse 259" d="M275.898 745.67C293.4 745.67 307.589 759.859 307.589 777.361C307.589 794.864 293.4 809.052 275.898 809.052C258.395 809.052 244.207 794.864 244.207 777.361C244.207 759.859 258.395 745.67 275.898 745.67Z" fill="#C4C4C4" fill-opacity="0.4"/>
<path id="Ellipse 260" d="M275.898 462.316C293.4 462.316 307.589 476.504 307.589 494.007C307.589 511.509 293.4 525.698 275.898 525.698C258.395 525.698 244.207 511.509 244.207 494.007C244.207 476.504 258.395 462.316 275.898 462.316Z" fill="#C4C4C4" fill-opacity="0.4"/>
<path id="Ellipse 261" d="M275.898 178.961C293.4 178.961 307.589 193.149 307.589 210.652C307.589 228.154 293.4 242.343 275.898 242.343C258.395 242.343 244.207 228.154 244.207 210.652C244.207 193.149 258.395 178.961 275.898 178.961Z" fill="#C4C4C4" fill-opacity="0.4"/>
<path id="Ellipse 262" d="M346.736 1029.02C364.239 1029.02 378.427 1043.21 378.427 1060.72C378.427 1078.22 364.239 1092.41 346.736 1092.41C329.234 1092.41 315.045 1078.22 315.045 1060.72C315.045 1043.21 329.234 1029.02 346.736 1029.02Z" fill="#C4C4C4" fill-opacity="0.4"/>
<path id="Ellipse 263" d="M346.736 887.347C364.239 887.347 378.427 901.536 378.427 919.038C378.427 936.541 364.239 950.729 346.736 950.729C329.234 950.729 315.045 936.541 315.045 919.038C315.045 901.536 329.234 887.347 346.736 887.347Z" fill="#C4C4C4" fill-opacity="0.4"/>
<path id="Ellipse 264" d="M346.736 745.67C364.239 745.67 378.427 759.859 378.427 777.361C378.427 794.864 364.239 809.052 346.736 809.052C329.234 809.052 315.045 794.864 315.045 777.361C315.045 759.859 329.234 745.67 346.736 745.67Z" fill="#C4C4C4" fill-opacity="0.4"/>
<path id="Ellipse 265" d="M346.736 603.993C364.239 603.993 378.427 618.182 378.427 635.684C378.427 653.187 364.239 667.375 346.736 667.375C329.234 667.375 315.045 653.187 315.045 635.684C315.045 618.182 329.234 603.993 346.736 603.993Z" fill="#C4C4C4" fill-opacity="0.4"/>
<path id="Ellipse 266" d="M346.736 462.316C364.239 462.316 378.427 476.504 378.427 494.007C378.427 511.509 364.239 525.698 346.736 525.698C329.234 525.698 315.045 511.509 315.045 494.007C315.045 476.504 329.234 462.316 346.736 462.316Z" fill="#C4C4C4" fill-opacity="0.4"/>
<path id="Ellipse 267" d="M346.736 391.477C364.239 391.477 378.427 405.666 378.427 423.168C378.427 440.671 364.239 454.859 346.736 454.859C329.234 454.859 315.045 440.671 315.045 423.168C315.045 405.666 329.234 391.477 346.736 391.477Z" fill="#C4C4C4" fill-opacity="0.4"/>
<path id="Ellipse 268" d="M346.736 320.639C364.239 320.639 378.427 334.827 378.427 352.33C378.427 369.832 364.239 384.021 346.736 384.021C329.234 384.021 315.045 369.832 315.045 352.33C315.045 334.827 329.234 320.639 346.736 320.639Z" fill="#C4C4C4" fill-opacity="0.4"/>
<path id="Ellipse 269" d="M346.736 178.961C364.239 178.961 378.427 193.149 378.427 210.652C378.427 228.154 364.239 242.343 346.736 242.343C329.234 242.343 315.045 228.154 315.045 210.652C315.045 193.149 329.234 178.961 346.736 178.961Z" fill="#C4C4C4" fill-opacity="0.4"/>
<path id="Ellipse 270" d="M346.736 37.2836C364.239 37.2836 378.427 51.4721 378.427 68.9746C378.427 86.477 364.239 100.666 346.736 100.666C329.234 100.666 315.045 86.477 315.045 68.9746C315.045 51.4721 329.234 37.2836 346.736 37.2836Z" fill="#C4C4C4" fill-opacity="0.4"/>
<path id="Ellipse 271" d="M417.575 1029.02C435.077 1029.02 449.266 1043.21 449.266 1060.72C449.266 1078.22 435.077 1092.41 417.575 1092.41C400.072 1092.41 385.884 1078.22 385.884 1060.72C385.884 1043.21 400.072 1029.02 417.575 1029.02Z" fill="#C4C4C4" fill-opacity="0.4"/>
<path id="Ellipse 272" d="M417.575 745.67C435.077 745.67 449.266 759.859 449.266 777.361C449.266 794.864 435.077 809.052 417.575 809.052C400.072 809.052 385.884 794.864 385.884 777.361C385.884 759.859 400.072 745.67 417.575 745.67Z" fill="#C4C4C4" fill-opacity="0.4"/>
<path id="Ellipse 273" d="M417.575 603.993C435.077 603.993 449.266 618.182 449.266 635.684C449.266 653.187 435.077 667.375 417.575 667.375C400.072 667.375 385.884 653.187 385.884 635.684C385.884 618.182 400.072 603.993 417.575 603.993Z" fill="#C4C4C4" fill-opacity="0.4"/>
<path id="Ellipse 274" d="M417.575 462.316C435.077 462.316 449.266 476.504 449.266 494.007C449.266 511.509 435.077 525.698 417.575 525.698C400.072 525.698 385.884 511.509 385.884 494.007C385.884 476.504 400.072 462.316 417.575 462.316Z" fill="#C4C4C4" fill-opacity="0.4"/>
<path id="Ellipse 275" d="M417.575 178.961C435.077 178.961 449.266 193.149 449.266 210.652C449.266 228.154 435.077 242.343 417.575 242.343C400.072 242.343 385.884 228.154 385.884 210.652C385.884 193.149 400.072 178.961 417.575 178.961Z" fill="#C4C4C4" fill-opacity="0.4"/>
<path id="Ellipse 276" d="M417.575 37.2836C435.077 37.2836 449.266 51.4721 449.266 68.9746C449.266 86.477 435.077 100.666 417.575 100.666C400.072 100.666 385.884 86.477 385.884 68.9746C385.884 51.4721 400.072 37.2836 417.575 37.2836Z" fill="#C4C4C4" fill-opacity="0.4"/>
<path id="Ellipse 277" d="M488.413 1029.02C505.916 1029.02 520.104 1043.21 520.104 1060.72C520.104 1078.22 505.916 1092.41 488.413 1092.41C470.911 1092.41 456.722 1078.22 456.722 1060.72C456.722 1043.21 470.911 1029.02 488.413 1029.02Z" fill="#C4C4C4" fill-opacity="0.4"/>
<path id="Ellipse 278" d="M488.413 958.186C505.916 958.186 520.104 972.375 520.104 989.877C520.104 1007.38 505.916 1021.57 488.413 1021.57C470.911 1021.57 456.722 1007.38 456.722 989.877C456.722 972.375 470.911 958.186 488.413 958.186Z" fill="#C4C4C4" fill-opacity="0.4"/>
<path id="Ellipse 279" d="M488.413 887.347C505.916 887.347 520.104 901.536 520.104 919.038C520.104 936.541 505.916 950.729 488.413 950.729C470.911 950.729 456.722 936.541 456.722 919.038C456.722 901.536 470.911 887.347 488.413 887.347Z" fill="#C4C4C4" fill-opacity="0.4"/>
<path id="Ellipse 280" d="M488.413 816.509C505.916 816.509 520.104 830.697 520.104 848.2C520.104 865.702 505.916 879.891 488.413 879.891C470.911 879.891 456.722 865.702 456.722 848.2C456.722 830.697 470.911 816.509 488.413 816.509Z" fill="#C4C4C4" fill-opacity="0.4"/>
<path id="Ellipse 281" d="M488.413 745.67C505.916 745.67 520.104 759.859 520.104 777.361C520.104 794.864 505.916 809.052 488.413 809.052C470.911 809.052 456.722 794.864 456.722 777.361C456.722 759.859 470.911 745.67 488.413 745.67Z" fill="#C4C4C4" fill-opacity="0.4"/>
<path id="Ellipse 282" d="M488.413 674.832C505.916 674.832 520.104 689.02 520.104 706.523C520.104 724.025 505.916 738.214 488.413 738.214C470.911 738.214 456.722 724.025 456.722 706.523C456.722 689.02 470.911 674.832 488.413 674.832Z" fill="#C4C4C4" fill-opacity="0.4"/>
<path id="Ellipse 283" d="M488.413 603.993C505.916 603.993 520.104 618.182 520.104 635.684C520.104 653.187 505.916 667.375 488.413 667.375C470.911 667.375 456.722 653.187 456.722 635.684C456.722 618.182 470.911 603.993 488.413 603.993Z" fill="#C4C4C4" fill-opacity="0.4"/>
<path id="Ellipse 284" d="M488.413 533.154C505.916 533.154 520.104 547.343 520.104 564.845C520.104 582.348 505.916 596.536 488.413 596.536C470.911 596.536 456.722 582.348 456.722 564.845C456.722 547.343 470.911 533.154 488.413 533.154Z" fill="#C4C4C4" fill-opacity="0.4"/>
<path id="Ellipse 285" d="M488.413 462.316C505.916 462.316 520.104 476.504 520.104 494.007C520.104 511.509 505.916 525.698 488.413 525.698C470.911 525.698 456.722 511.509 456.722 494.007C456.722 476.504 470.911 462.316 488.413 462.316Z" fill="#C4C4C4" fill-opacity="0.4"/>
<path id="Ellipse 286" d="M488.414 391.477C505.916 391.477 520.105 405.666 520.105 423.168C520.105 440.671 505.916 454.859 488.414 454.859C470.911 454.859 456.723 440.671 456.723 423.168C456.723 405.666 470.911 391.477 488.414 391.477Z" fill="#C4C4C4" fill-opacity="0.4"/>
<path id="Ellipse 287" d="M488.414 320.639C505.916 320.639 520.105 334.827 520.105 352.33C520.105 369.832 505.916 384.021 488.414 384.021C470.911 384.021 456.723 369.832 456.723 352.33C456.723 334.827 470.911 320.639 488.414 320.639Z" fill="#C4C4C4" fill-opacity="0.4"/>
<path id="Ellipse 288" d="M488.414 249.8C505.916 249.8 520.105 263.989 520.105 281.491C520.105 298.994 505.916 313.182 488.414 313.182C470.911 313.182 456.723 298.994 456.723 281.491C456.723 263.989 470.911 249.8 488.414 249.8Z" fill="#C4C4C4" fill-opacity="0.4"/>
<path id="Ellipse 289" d="M488.414 178.961C505.916 178.961 520.105 193.149 520.105 210.652C520.105 228.154 505.916 242.343 488.414 242.343C470.911 242.343 456.723 228.154 456.723 210.652C456.723 193.149 470.911 178.961 488.414 178.961Z" fill="#C4C4C4" fill-opacity="0.4"/>
<path id="Ellipse 290" d="M488.414 108.123C505.916 108.123 520.105 122.311 520.105 139.814C520.105 157.316 505.916 171.505 488.414 171.505C470.911 171.505 456.723 157.316 456.723 139.814C456.723 122.311 470.911 108.123 488.414 108.123Z" fill="#C4C4C4" fill-opacity="0.4"/>
<path id="Ellipse 291" d="M488.414 37.2836C505.916 37.2836 520.105 51.4721 520.105 68.9746C520.105 86.477 505.916 100.666 488.414 100.666C470.911 100.666 456.723 86.477 456.723 68.9746C456.723 51.4721 470.911 37.2836 488.414 37.2836Z" fill="#C4C4C4" fill-opacity="0.4"/>
<path id="Ellipse 292" d="M63.3818 958.186C80.8843 958.186 95.0728 972.375 95.0728 989.877C95.0728 1007.38 80.8843 1021.57 63.3818 1021.57C45.8794 1021.57 31.6909 1007.38 31.6909 989.877C31.6909 972.375 45.8794 958.186 63.3818 958.186Z" fill="#C4C4C4" fill-opacity="0.4"/>
<path id="Ellipse 293" d="M63.3818 887.347C80.8843 887.347 95.0728 901.536 95.0728 919.038C95.0728 936.541 80.8843 950.729 63.3818 950.729C45.8794 950.729 31.6909 936.541 31.6909 919.038C31.6909 901.536 45.8794 887.347 63.3818 887.347Z" fill="#C4C4C4" fill-opacity="0.4"/>
<path id="Ellipse 294" d="M63.3818 816.509C80.8843 816.509 95.0728 830.697 95.0728 848.2C95.0728 865.702 80.8843 879.891 63.3818 879.891C45.8794 879.891 31.6909 865.702 31.6909 848.2C31.6909 830.697 45.8794 816.509 63.3818 816.509Z" fill="#C4C4C4" fill-opacity="0.4"/>
<path id="Ellipse 295" d="M63.3818 745.67C80.8843 745.67 95.0728 759.859 95.0728 777.361C95.0728 794.864 80.8843 809.052 63.3818 809.052C45.8794 809.052 31.6909 794.864 31.6909 777.361C31.6909 759.859 45.8794 745.67 63.3818 745.67Z" fill="#C4C4C4" fill-opacity="0.4"/>
<path id="Ellipse 296" d="M63.3818 674.832C80.8843 674.832 95.0728 689.02 95.0728 706.523C95.0728 724.025 80.8843 738.214 63.3818 738.214C45.8794 738.214 31.6909 724.025 31.6909 706.523C31.6909 689.02 45.8794 674.832 63.3818 674.832Z" fill="#C4C4C4" fill-opacity="0.4"/>
<path id="Ellipse 297" d="M63.3818 603.993C80.8843 603.993 95.0728 618.182 95.0728 635.684C95.0728 653.187 80.8843 667.375 63.3818 667.375C45.8794 667.375 31.6909 653.187 31.6909 635.684C31.6909 618.182 45.8794 603.993 63.3818 603.993Z" fill="#C4C4C4" fill-opacity="0.4"/>
<path id="Ellipse 298" d="M63.3818 533.154C80.8843 533.154 95.0728 547.343 95.0728 564.845C95.0728 582.348 80.8843 596.536 63.3818 596.536C45.8794 596.536 31.6909 582.348 31.6909 564.845C31.6909 547.343 45.8794 533.154 63.3818 533.154Z" fill="#C4C4C4" fill-opacity="0.4"/>
<path id="Ellipse 299" d="M63.3818 462.316C80.8843 462.316 95.0728 476.504 95.0728 494.007C95.0728 511.509 80.8843 525.698 63.3818 525.698C45.8794 525.698 31.6909 511.509 31.6909 494.007C31.6909 476.504 45.8794 462.316 63.3818 462.316Z" fill="#C4C4C4" fill-opacity="0.4"/>
<path id="Ellipse 300" d="M63.3818 391.477C80.8843 391.477 95.0728 405.666 95.0728 423.168C95.0728 440.671 80.8843 454.859 63.3818 454.859C45.8794 454.859 31.6909 440.671 31.6909 423.168C31.6909 405.666 45.8794 391.477 63.3818 391.477Z" fill="#C4C4C4" fill-opacity="0.4"/>
<path id="Ellipse 301" d="M63.3818 320.638C80.8843 320.638 95.0728 334.827 95.0728 352.329C95.0728 369.831 80.8843 384.02 63.3818 384.02C45.8794 384.02 31.6909 369.831 31.6909 352.329C31.6909 334.827 45.8794 320.638 63.3818 320.638Z" fill="#C4C4C4" fill-opacity="0.4"/>
<path id="Ellipse 302" d="M63.3818 249.8C80.8843 249.8 95.0728 263.988 95.0728 281.491C95.0728 298.993 80.8843 313.182 63.3818 313.182C45.8794 313.182 31.6909 298.993 31.6909 281.491C31.6909 263.988 45.8794 249.8 63.3818 249.8Z" fill="#C4C4C4" fill-opacity="0.4"/>
<path id="Ellipse 303" d="M63.3818 178.961C80.8843 178.961 95.0728 193.149 95.0728 210.652C95.0728 228.154 80.8843 242.343 63.3818 242.343C45.8794 242.343 31.6909 228.154 31.6909 210.652C31.6909 193.149 45.8794 178.961 63.3818 178.961Z" fill="#C4C4C4" fill-opacity="0.4"/>
<path id="Ellipse 304" d="M63.3818 108.123C80.8843 108.123 95.0728 122.311 95.0728 139.814C95.0728 157.316 80.8843 171.505 63.3818 171.505C45.8794 171.505 31.6909 157.316 31.6909 139.814C31.6909 122.311 45.8794 108.123 63.3818 108.123Z" fill="#C4C4C4" fill-opacity="0.4"/>
<path id="Ellipse 305" d="M63.3818 37.2836C80.8843 37.2836 95.0728 51.4721 95.0728 68.9746C95.0728 86.477 80.8843 100.666 63.3818 100.666C45.8794 100.666 31.6909 86.477 31.6909 68.9746C31.6909 51.4721 45.8794 37.2836 63.3818 37.2836Z" fill="#C4C4C4" fill-opacity="0.4"/>
<path id="Ellipse 306" d="M205.059 1099.86C222.562 1099.86 236.75 1114.05 236.75 1131.55C236.75 1149.06 222.562 1163.25 205.059 1163.25C187.557 1163.25 173.368 1149.06 173.368 1131.55C173.368 1114.05 187.557 1099.86 205.059 1099.86Z" fill="#C4C4C4" fill-opacity="0.4"/>
<path id="Ellipse 307" d="M275.898 1099.86C293.4 1099.86 307.589 1114.05 307.589 1131.55C307.589 1149.06 293.4 1163.25 275.898 1163.25C258.395 1163.25 244.207 1149.06 244.207 1131.55C244.207 1114.05 258.395 1099.86 275.898 1099.86Z" fill="#C4C4C4" fill-opacity="0.4"/>
<path id="Ellipse 308" d="M346.736 1099.86C364.239 1099.86 378.427 1114.05 378.427 1131.55C378.427 1149.06 364.239 1163.25 346.736 1163.25C329.234 1163.25 315.045 1149.06 315.045 1131.55C315.045 1114.05 329.234 1099.86 346.736 1099.86Z" fill="#C4C4C4" fill-opacity="0.4"/>
<path id="Ellipse 309" d="M417.575 1099.86C435.077 1099.86 449.266 1114.05 449.266 1131.55C449.266 1149.06 435.077 1163.25 417.575 1163.25C400.072 1163.25 385.884 1149.06 385.884 1131.55C385.884 1114.05 400.072 1099.86 417.575 1099.86Z" fill="#C4C4C4" fill-opacity="0.4"/>
<path id="Ellipse 310" d="M488.413 1099.86C505.916 1099.86 520.104 1114.05 520.104 1131.55C520.104 1149.06 505.916 1163.25 488.413 1163.25C470.911 1163.25 456.722 1149.06 456.722 1131.55C456.722 1114.05 470.911 1099.86 488.413 1099.86Z" fill="#C4C4C4" fill-opacity="0.4"/>
<path id="Ellipse 311" d="M559.252 1099.86C576.755 1099.86 590.943 1114.05 590.943 1131.55C590.943 1149.06 576.755 1163.25 559.252 1163.25C541.75 1163.25 527.561 1149.06 527.561 1131.55C527.561 1114.05 541.75 1099.86 559.252 1099.86Z" fill="#C4C4C4" fill-opacity="0.4"/>
<path id="Ellipse 312" d="M559.252 1029.02C576.755 1029.02 590.943 1043.21 590.943 1060.72C590.943 1078.22 576.755 1092.41 559.252 1092.41C541.75 1092.41 527.561 1078.22 527.561 1060.72C527.561 1043.21 541.75 1029.02 559.252 1029.02Z" fill="#C4C4C4" fill-opacity="0.4"/>
<path id="Ellipse 313" d="M559.252 958.186C576.755 958.186 590.943 972.375 590.943 989.877C590.943 1007.38 576.755 1021.57 559.252 1021.57C541.75 1021.57 527.561 1007.38 527.561 989.877C527.561 972.375 541.75 958.186 559.252 958.186Z" fill="#C4C4C4" fill-opacity="0.4"/>
<path id="Ellipse 314" d="M559.252 887.347C576.755 887.347 590.943 901.536 590.943 919.038C590.943 936.541 576.755 950.729 559.252 950.729C541.75 950.729 527.561 936.541 527.561 919.038C527.561 901.536 541.75 887.347 559.252 887.347Z" fill="#C4C4C4" fill-opacity="0.4"/>
<path id="Ellipse 315" d="M559.252 816.509C576.755 816.509 590.943 830.697 590.943 848.2C590.943 865.702 576.755 879.891 559.252 879.891C541.75 879.891 527.561 865.702 527.561 848.2C527.561 830.697 541.75 816.509 559.252 816.509Z" fill="#C4C4C4" fill-opacity="0.4"/>
<path id="Ellipse 316" d="M559.252 745.67C576.755 745.67 590.943 759.859 590.943 777.361C590.943 794.864 576.755 809.052 559.252 809.052C541.75 809.052 527.561 794.864 527.561 777.361C527.561 759.859 541.75 745.67 559.252 745.67Z" fill="#C4C4C4" fill-opacity="0.4"/>
<path id="Ellipse 317" d="M559.252 674.832C576.755 674.832 590.943 689.02 590.943 706.523C590.943 724.025 576.755 738.214 559.252 738.214C541.75 738.214 527.561 724.025 527.561 706.523C527.561 689.02 541.75 674.832 559.252 674.832Z" fill="#C4C4C4" fill-opacity="0.4"/>
<path id="Ellipse 318" d="M559.252 603.993C576.755 603.993 590.943 618.182 590.943 635.684C590.943 653.187 576.755 667.375 559.252 667.375C541.75 667.375 527.561 653.187 527.561 635.684C527.561 618.182 541.75 603.993 559.252 603.993Z" fill="#C4C4C4" fill-opacity="0.4"/>
<path id="Ellipse 319" d="M559.252 533.154C576.755 533.154 590.943 547.343 590.943 564.845C590.943 582.348 576.755 596.536 559.252 596.536C541.75 596.536 527.561 582.348 527.561 564.845C527.561 547.343 541.75 533.154 559.252 533.154Z" fill="#C4C4C4" fill-opacity="0.4"/>
<path id="Ellipse 320" d="M559.252 462.316C576.755 462.316 590.943 476.504 590.943 494.007C590.943 511.509 576.755 525.698 559.252 525.698C541.75 525.698 527.561 511.509 527.561 494.007C527.561 476.504 541.75 462.316 559.252 462.316Z" fill="#C4C4C4" fill-opacity="0.4"/>
<path id="Ellipse 321" d="M559.252 391.477C576.755 391.477 590.943 405.666 590.943 423.168C590.943 440.671 576.755 454.859 559.252 454.859C541.75 454.859 527.561 440.671 527.561 423.168C527.561 405.666 541.75 391.477 559.252 391.477Z" fill="#C4C4C4" fill-opacity="0.4"/>
<path id="Ellipse 322" d="M559.252 320.639C576.755 320.639 590.943 334.827 590.943 352.33C590.943 369.832 576.755 384.021 559.252 384.021C541.75 384.021 527.561 369.832 527.561 352.33C527.561 334.827 541.75 320.639 559.252 320.639Z" fill="#C4C4C4" fill-opacity="0.4"/>
<path id="Ellipse 323" d="M559.252 249.8C576.755 249.8 590.943 263.989 590.943 281.491C590.943 298.994 576.755 313.182 559.252 313.182C541.75 313.182 527.561 298.994 527.561 281.491C527.561 263.989 541.75 249.8 559.252 249.8Z" fill="#C4C4C4" fill-opacity="0.4"/>
<path id="Ellipse 324" d="M559.252 178.961C576.755 178.961 590.943 193.149 590.943 210.652C590.943 228.154 576.755 242.343 559.252 242.343C541.75 242.343 527.561 228.154 527.561 210.652C527.561 193.149 541.75 178.961 559.252 178.961Z" fill="#C4C4C4" fill-opacity="0.4"/>
<path id="Ellipse 325" d="M559.252 108.123C576.755 108.123 590.943 122.311 590.943 139.814C590.943 157.316 576.755 171.505 559.252 171.505C541.75 171.505 527.561 157.316 527.561 139.814C527.561 122.311 541.75 108.123 559.252 108.123Z" fill="#C4C4C4" fill-opacity="0.4"/>
<path id="Ellipse 326" d="M559.252 37.2836C576.755 37.2836 590.943 51.4721 590.943 68.9746C590.943 86.477 576.755 100.666 559.252 100.666C541.75 100.666 527.561 86.477 527.561 68.9746C527.561 51.4721 541.75 37.2836 559.252 37.2836Z" fill="#C4C4C4" fill-opacity="0.4"/>
</g>
</svg>
